<?xml version="1.0" encoding="UTF-8" standalone="no"?>
<!-- Created with Inkscape (http://www.inkscape.org/) -->

<svg
   width="2012"
   height="1810"
   id="svg2"
   sodipodi:version="0.32"
   inkscape:version="1.3.2 (091e20e, 2023-11-25, custom)"
   version="1.0"
   sodipodi:docname="US11U4VARA.svg"
   xmlns:inkscape="http://www.inkscape.org/namespaces/inkscape"
   xmlns:sodipodi="http://sodipodi.sourceforge.net/DTD/sodipodi-0.dtd"
   xmlns="http://www.w3.org/2000/svg"
   xmlns:svg="http://www.w3.org/2000/svg"
   xmlns:rdf="http://www.w3.org/1999/02/22-rdf-syntax-ns#"
   xmlns:cc="http://creativecommons.org/ns#"
   xmlns:dc="http://purl.org/dc/elements/1.1/">
  <defs
     id="defs4" />
  <sodipodi:namedview
     id="base"
     pagecolor="#ffffff"
     bordercolor="#666666"
     borderopacity="1.0"
     inkscape:pageopacity="0.0"
     inkscape:pageshadow="2"
     inkscape:zoom="0.29400281"
     inkscape:cx="608.83772"
     inkscape:cy="845.23002"
     inkscape:document-units="px"
     inkscape:current-layer="layer2"
     width="1800px"
     height="1800px"
     inkscape:window-width="1293"
     inkscape:window-height="928"
     inkscape:window-x="15"
     inkscape:window-y="36"
     inkscape:showpageshadow="2"
     inkscape:pagecheckerboard="0"
     inkscape:deskcolor="#d1d1d1"
     inkscape:window-maximized="0" />
  <metadata
     id="metadata7">
    <rdf:RDF>
      <cc:Work
         rdf:about="">
        <dc:format>image/svg+xml</dc:format>
        <dc:type
           rdf:resource="http://purl.org/dc/dcmitype/StillImage" />
        <dc:creator>
          <cc:Agent>
            <dc:title>Serge Rosmorduc</dc:title>
          </cc:Agent>
        </dc:creator>
        <dc:description>U1 sign from a Sethi the 1st relief in the Louvre.
</dc:description>
      </cc:Work>
    </rdf:RDF>
  </metadata>
  <g
     inkscape:groupmode="layer"
     id="layer2"
     inkscape:label="dessin"
     style="display:inline">
    <path
       style="fill:#000000;stroke:none"
       d="M -0.33412622,928.00911 C 409.36112,1009.9669 819.05638,1091.9247 1228.7517,1173.8826 c 17.4499,-87.2301 34.9,-174.46013 52.3499,-261.69016 C 959.65789,847.88895 638.21412,783.58546 316.77034,719.28198 211.06886,788.85768 105.36736,858.4334 -0.33412622,928.00911 Z M 329.38047,778.27671 c 295.51989,59.11753 591.03979,118.23505 886.55963,177.35258 -9.9468,49.72311 -19.8938,99.44631 -29.8407,149.16951 C 836.40183,1036.4984 486.79512,967.73363 137.09552,899.44349 200.53639,858.92319 263.97347,818.39691 327.41932,777.8844 l 0.98057,0.19615 z"
       id="path1896" />
    <path
       style="opacity:1;fill:#000000;fill-opacity:1;fill-rule:evenodd;stroke:none;stroke-width:60.2163;stroke-linecap:butt;stroke-linejoin:miter;stroke-miterlimit:4;stroke-dasharray:none;stroke-opacity:1"
       d="M 1449.5027,8.0839061 C 1343.7211,203.60859 1080.5055,452.59508 1079.2188,623.40625 c 125.5521,-23.75124 236.5338,-20.07226 360.125,14.75 42.6355,15.12289 75.982,35.68661 95.3124,58.25 19.3305,22.56339 26.6426,45.32729 19.9688,77.125 -52.1773,248.60235 -294.8755,574.29635 -567.90625,708.99995 -113.69659,56.0938 -321.02988,122.6422 -513.78125,167.75 -112.13015,26.2411 -219.2358,37.946 -301.5,46.625 -53.35386,10.0492 -174.3752448,-4.2608 -175.5,71 15.917066,47.9784 103.863955,40.5772 143.625,40.4376 79.90884,-0.5166 190.95876,-9.8089 311.34375,-29.5 253.38231,-41.445 556.09965,-123.1694 726.68755,-229.0313 405.9285,-253.0556 704.7097,-616.42717 838.1562,-1078.625 -229.9662,49.41906 -498.0817,24.67016 -575.9339,-29.08391 -5.5777,-145.94155 332.8308,-185.46402 335.6983,-330.49804 C 1687.9406,93.905726 1535.171,34.808605 1449.5027,8.0839061 Z m 24.9028,85.5888279 c 46.4234,28.371036 170.0351,52.116866 194.0448,69.697576 -247.8362,133.69537 -298.6388,195.23558 -327.5126,319.01453 213.9438,100.68092 362.7956,90.91984 589.6873,63.77141 -139.842,434.30876 -449.0713,744.14855 -784.8125,952.49995 -154.75132,96.0343 -456.39389,180.1476 -704.625,220.75 -4.65114,0.7608 -9.18967,1.3961 -13.8125,2.125 19.53747,-3.8423 39.24832,-7.9368 59.28125,-12.625 196.12271,-45.8968 404.1567,-111.9073 526.71875,-172.375 294.2056,-145.1505 542.6724,-476.5903 600.1875,-750.62495 10.1953,-48.57607 -3.9225,-94.52811 -33.1875,-128.6875 -29.265,-34.15939 -71.6893,-58.36626 -120.875,-75.8125 -85.3934,-30.28917 -192.5953,-40.24641 -295.4688,-30.59375 46.9179,-159.901 213.8559,-269.20287 310.3743,-457.139766 z"
       id="path1883"
       sodipodi:nodetypes="ccsssscssscccccccccccsccsssscc" />
  </g>
</svg>
