<?xml version="1.0" encoding="UTF-8" standalone="no"?>
<svg
   width="1753"
   height="939"
   id="svg2"
   sodipodi:version="0.32"
   inkscape:version="1.3.2 (091e20e, 2023-11-25, custom)"
   sodipodi:docname="US11I86VARA.svg"
   inkscape:output_extension="org.inkscape.output.svg.inkscape"
   version="1.0"
   xmlns:inkscape="http://www.inkscape.org/namespaces/inkscape"
   xmlns:sodipodi="http://sodipodi.sourceforge.net/DTD/sodipodi-0.dtd"
   xmlns="http://www.w3.org/2000/svg"
   xmlns:svg="http://www.w3.org/2000/svg"
   xmlns:rdf="http://www.w3.org/1999/02/22-rdf-syntax-ns#"
   xmlns:cc="http://creativecommons.org/ns#"
   xmlns:dc="http://purl.org/dc/elements/1.1/">
  <metadata
     id="metadata9">
    <rdf:RDF>
      <cc:Work
         rdf:about="">
        <dc:format>image/svg+xml</dc:format>
        <dc:type
           rdf:resource="http://purl.org/dc/dcmitype/StillImage" />
      </cc:Work>
    </rdf:RDF>
  </metadata>
  <defs
     id="defs7">
    <inkscape:perspective
       sodipodi:type="inkscape:persp3d"
       inkscape:vp_x="0 : 4.6953125 : 1"
       inkscape:vp_y="0 : 1000 : 0"
       inkscape:vp_z="17.53125 : 4.6953125 : 1"
       inkscape:persp3d-origin="8.765625 : 3.1302083 : 1"
       id="perspective11" />
  </defs>
  <sodipodi:namedview
     inkscape:window-height="894"
     inkscape:window-width="1362"
     inkscape:pageshadow="2"
     inkscape:pageopacity="0.0"
     guidetolerance="10.0"
     gridtolerance="10.0"
     objecttolerance="10.0"
     borderopacity="1.0"
     bordercolor="#666666"
     pagecolor="#ffffff"
     id="base"
     showgrid="false"
     inkscape:zoom="0.56242015"
     inkscape:cx="520.07383"
     inkscape:cy="445.39656"
     inkscape:window-x="512"
     inkscape:window-y="70"
     inkscape:current-layer="svg2"
     inkscape:showpageshadow="2"
     inkscape:pagecheckerboard="0"
     inkscape:deskcolor="#d1d1d1"
     inkscape:window-maximized="0" />
  <path
     id="path2413"
     style="fill:#000000;stroke:none"
     d="m 499.54492,218.71875 c -86.68109,0 -156.70118,47.52659 -156.70117,142.5625 L 369.5,714.41016 c -0.90132,9.55281 -2.68705,17.73852 -4.85742,25.33007 L 213.85156,594.82422 176.21875,639.86328 330.17188,786.0332 c -11.723,6.36107 -25.40679,9.69228 -40.52344,10.8086 -41.63571,-40.9411 -104.71796,-47.88689 -189.25196,-20.79297 -70.04977,31.22505 -97.63137,73.5183 -82.72656,126.86523 9.24381,28.84101 20.96939,25.22016 49.28125,33.14453 28.31179,7.92434 89.54076,-3.74355 183.70117,-35.01953 53.81155,-13.82665 102.22916,-26.96248 137.94727,-59.53125 l 85.68164,81.34961 35.67773,-43.46289 -87.08593,-83.69141 c 10.8505,-21.56282 8.23184,-48.01542 12.70877,-81.29296 L 418.0625,361.28125 c 0,-54.30624 44.93014,-81.46874 81.48242,-81.46875 36.55228,0 74.40236,27.1625 74.40235,81.46875 L 547.29102,688.6875 c 0,136.80993 38.65555,205.21875 115.9375,205.21875 78.3263,0 117.49998,-68.4088 117.5,-205.21875 L 754.07227,361.28125 c 0,-54.30624 50.29727,-81.46874 86.84963,-81.46875 36.5522,0 74.3691,27.1625 74.3691,81.46875 L 888.666,688.6875 c 0,136.80993 38.6555,205.21875 115.9375,205.21875 78.3262,0 117.4688,-68.4088 117.4688,-205.21875 l -28.1875,-327.40625 c 0,-54.30624 34.8135,-81.46874 72.4101,-81.46875 36.5523,0 74.3692,27.1625 74.3692,81.46875 2.8171,108.46853 -21.7509,225.82834 -3.5235,334.29687 21.2878,114.17693 50.2115,190.04066 171.2285,208.41993 87.6687,19.27657 92.3231,-33.3851 56.4219,-62.46485 -76.2671,-0.91477 -132.6593,-28.16749 -166.5566,-145.95508 -20.1028,-114.13461 9.4609,-225.82834 3.5234,-334.29687 10e-5,-95.0359 -58.1811,-142.56251 -135.4629,-142.5625 -78.3263,0 -133.5039,47.52659 -133.5039,142.5625 l 28.1875,327.40625 c 0,96.08025 -18.7783,144.12497 -56.375,144.125 -36.5522,0 -54.8437,-48.04473 -54.8437,-144.125 l 26.625,-327.40625 c 0,-95.0359 -58.181,-142.56251 -135.4629,-142.5625 -77.28203,0 -147.94338,47.52659 -147.94338,142.5625 l 26.65625,327.40625 c 0,96.08025 -18.80964,143.60689 -56.40625,142.5625 -36.55227,0 -54.84373,-47.52658 -54.84375,-142.5625 l 26.65625,-327.40625 c 0,-95.0359 -58.21419,-142.56251 -135.4961,-142.5625 z M 200.82617,799.5918 c 32.97907,-0.004 42.83187,11.91788 59.95899,22.6914 24.61835,11.24931 34.4736,30.15276 -6.64258,49.35742 -82.19379,5.77576 -143.90369,50.77404 -196.20899,18.36915 -10.83757,-33.81361 16.08877,-61.07409 80.73243,-81.79297 27.40119,-6.15671 47.16967,-8.62324 62.16015,-8.625 z m -68.61328,22.83203 c -3.90026,0.0165 -8.25103,0.65642 -13.05469,1.92187 -24.86293,7.9688 -32.99463,16.46668 -31.27343,38.94532 3.82502,11.9342 7.36549,6.19145 27.25585,-0.1836 28.84101,-9.24381 45.41487,-7.0678 39.9961,-23.97461 -3.58597,-11.18833 -11.22307,-16.75847 -22.92383,-16.70898 z"
     sodipodi:nodetypes="scccccccccscccccccsccsccsccsccsccccccsccsccscccccssccccssccsss" />
  <g
     id="path1"
     transform="rotate(6.1035337,181.9099,532.52059)">
    <path
       style="color:#000000;fill:#000000;fill-opacity:0;-inkscape-stroke:none"
       d="M 376.9424,396.50073 664.98329,627.64466"
       id="path2" />
  </g>
</svg>
