<?xml version="1.0" encoding="UTF-8" standalone="no"?>
<svg
   width="16.785839"
   height="17.972717"
   version="1.1"
   id="svg1"
   sodipodi:docname="US11M20VARA.svg"
   inkscape:version="1.3.2 (091e20e, 2023-11-25, custom)"
   xmlns:inkscape="http://www.inkscape.org/namespaces/inkscape"
   xmlns:sodipodi="http://sodipodi.sourceforge.net/DTD/sodipodi-0.dtd"
   xmlns="http://www.w3.org/2000/svg"
   xmlns:svg="http://www.w3.org/2000/svg">
  <defs
     id="defs1" />
  <sodipodi:namedview
     id="namedview1"
     pagecolor="#ffffff"
     bordercolor="#000000"
     borderopacity="0.25"
     inkscape:showpageshadow="2"
     inkscape:pageopacity="0.0"
     inkscape:pagecheckerboard="0"
     inkscape:deskcolor="#d1d1d1"
     inkscape:zoom="83.571114"
     inkscape:cx="12.235089"
     inkscape:cy="15.693222"
     inkscape:window-width="1898"
     inkscape:window-height="964"
     inkscape:window-x="155"
     inkscape:window-y="0"
     inkscape:window-maximized="0"
     inkscape:current-layer="svg1"
     showguides="true">
    <sodipodi:guide
       position="0.76150248,2.7426677"
       orientation="0,-1"
       id="guide1"
       inkscape:locked="false" />
    <sodipodi:guide
       position="7.6996362,4.8071855"
       orientation="1,0"
       id="guide2"
       inkscape:locked="false" />
    <sodipodi:guide
       position="2.2337406,4.8071855"
       orientation="1,0"
       id="guide3"
       inkscape:locked="false" />
    <sodipodi:guide
       position="13.165532,3.8256934"
       orientation="1,0"
       id="guide4"
       inkscape:locked="false" />
  </sodipodi:namedview>
  <path
     style="fill:#000000;stroke:none"
     d="m 1.827415,9.683414 c 0.5651793,0.3014287 1.3375917,1.004763 2.317237,2.110004 H 4.163491 V 1.375271 C 4.0253363,1.086401 3.6862287,0.941966 3.146168,0.941966 Z m 5.463404,0.018839 c 0.56518,0.301429 1.3313127,1.004764 2.298398,2.110005 H 9.626896 V 1.39411 C 9.4761813,1.1052407 9.1370733,0.960806 8.609572,0.960806 Z m 7.422694,7.102427 v -3.183848 c 0,-0.879168 -0.973365,-1.978128 -2.920095,-3.296881 v -0.05652 L 13.338243,0.018839 c 1.419229,-0.02511867 2.266999,0.35794767 2.543309,1.149199 V 16.80468 h 0.904287 v 1.168037 H 0 V 16.80468 H 2.6657896 L 1.2919139,15.195338 2.223041,14.958426 3.805544,16.80468 v -3.202686 c 0,-0.879169 -0.979645,-1.97813 -2.938935,-3.296882 v -0.05652 L 2.430273,0 c 1.4192293,-0.02511933 2.2607193,0.357947 2.52447,1.149199 v 15.63664 H 8.1480336 L 6.841847,15.191503 7.705285,14.920747 9.268949,16.80468 v -3.183848 c 0,-0.879168 -0.979645,-1.978128 -2.938935,-3.296881 v -0.05652 L 7.874838,0.018839 c 1.4192293,-0.02511867 2.266999,0.35794767 2.543309,1.149199 V 16.80468 h 3.106764 l -1.25542,-1.618929 0.880359,-0.321523 z M 12.735385,9.702253 c 0.56518,0.301429 1.337592,1.004764 2.317237,2.110005 h 0.03768 V 1.39411 C 14.939586,1.1052407 14.594198,0.960806 14.054137,0.960806 Z"
     id="path1"
     sodipodi:nodetypes="cccccccccccccscccccccccccccscccccccccsccccccccccccccc" />
</svg>
