<?xml version="1.0" encoding="UTF-8" standalone="no"?>
<svg
   width="1033.5625"
   height="1200"
   id="svg2"
   version="1.1"
   inkscape:version="1.3.2 (091e20e, 2023-11-25, custom)"
   sodipodi:docname="US11X2VARB.svg"
   xmlns:inkscape="http://www.inkscape.org/namespaces/inkscape"
   xmlns:sodipodi="http://sodipodi.sourceforge.net/DTD/sodipodi-0.dtd"
   xmlns="http://www.w3.org/2000/svg"
   xmlns:svg="http://www.w3.org/2000/svg"
   xmlns:rdf="http://www.w3.org/1999/02/22-rdf-syntax-ns#"
   xmlns:cc="http://creativecommons.org/ns#"
   xmlns:dc="http://purl.org/dc/elements/1.1/">
  <metadata
     id="metadata10">
    <rdf:RDF>
      <cc:Work
         rdf:about="">
        <dc:format>image/svg+xml</dc:format>
        <dc:type
           rdf:resource="http://purl.org/dc/dcmitype/StillImage" />
      </cc:Work>
    </rdf:RDF>
  </metadata>
  <defs
     id="defs8">
    <linearGradient
       id="linearGradient1"
       inkscape:swatch="gradient">
      <stop
         style="stop-color:#000000;stop-opacity:1;"
         offset="0"
         id="stop2" />
      <stop
         style="stop-color:#000000;stop-opacity:0;"
         offset="1"
         id="stop3" />
    </linearGradient>
    <linearGradient
       id="swatch1"
       inkscape:swatch="solid">
      <stop
         style="stop-color:#000000;stop-opacity:1;"
         offset="0"
         id="stop1" />
    </linearGradient>
  </defs>
  <sodipodi:namedview
     pagecolor="#ffffff"
     bordercolor="#666666"
     borderopacity="1"
     objecttolerance="10"
     gridtolerance="10"
     guidetolerance="10"
     inkscape:pageopacity="0"
     inkscape:pageshadow="2"
     inkscape:window-width="1920"
     inkscape:window-height="986"
     id="namedview6"
     showgrid="false"
     fit-margin-top="0"
     fit-margin-left="0"
     fit-margin-right="0"
     fit-margin-bottom="0"
     inkscape:snap-grids="true"
     inkscape:zoom="0.55505133"
     inkscape:cx="545.89546"
     inkscape:cy="283.75754"
     inkscape:window-x="-11"
     inkscape:window-y="-11"
     inkscape:window-maximized="1"
     inkscape:current-layer="svg2"
     inkscape:showpageshadow="2"
     inkscape:pagecheckerboard="0"
     inkscape:deskcolor="#d1d1d1"
     showguides="true">
    <inkscape:grid
       type="xygrid"
       id="grid2991"
       empspacing="5"
       visible="false"
       enabled="true"
       snapvisiblegridlinesonly="true"
       originx="0"
       originy="0"
       spacingy="1"
       spacingx="1"
       units="px" />
    <sodipodi:guide
       position="503.20964,845.84233"
       orientation="1,0"
       id="guide6"
       inkscape:locked="false" />
  </sodipodi:namedview>
  <g
     id="path1"
     transform="translate(-42,448)">
    <path
       id="path5"
       style="color:#000000;fill:#000000;stroke-width:1.2297;-inkscape-stroke:none"
       d="m 679.4605,-52.583641 c 31.67753,-38.949589 39.53673,-92.722669 39.53673,-152.105719 0,-59.38303 -19.56983,-113.15377 -51.24736,-152.10336 -31.67752,-38.94959 -75.49124,-63.08364 -123.90237,-63.08364 -48.41114,0 -92.22486,24.13405 -123.90238,63.08364 -31.67753,38.94959 -51.24981,92.72033 -51.24981,152.10336 0,59.38305 19.57228,113.15613 51.24981,152.105719 21.31806,30.595322 22.95196,31.728527 38.77717,49.3096926 L 42,-2 c 73.56337,249.99054 147.08374,499.99376 220.59375,750 h 592.375 C 928.4787,497.99374 1001.9993,247.99059 1075.5625,-2 L 631.43758,-3.2739484 C 663.99932,-31.002608 664.85221,-31.899827 679.4605,-52.583641 Z M 440.39413,-207.39092 c 0.29832,-38.52395 14.99085,-80.01223 41.67428,-107.80033 15.54842,-16.19211 39.33168,-27.04562 61.77901,-26.81033 25.44522,0.26671 52.5003,12.80756 69.37732,31.85215 24.27189,27.38921 32.84929,67.9692 33.47857,104.56014 0.58648,34.10211 -6.32746,71.98998 -27.83219,98.46344 -16.91757,20.826428 -48.49794,37.431933 -75.32942,37.304331 -26.5672,-0.126345 -49.83136,-18.246222 -66.27237,-37.606981 -22.98897,-27.07157 -37.15021,-64.44781 -36.8752,-99.96242 z M 135.53125,68 h 846.5 l -179.4375,610 h -487.625 z"
       sodipodi:nodetypes="csssssccccccccassssssaaccccc" />
  </g>
</svg>
