<?xml version="1.0" encoding="UTF-8" standalone="no"?>
<svg
   width="17.226"
   height="17.977417"
   version="1.1"
   id="svg1"
   sodipodi:docname="US11V4VARA.svg"
   inkscape:version="1.3.2 (091e20e, 2023-11-25, custom)"
   xmlns:inkscape="http://www.inkscape.org/namespaces/inkscape"
   xmlns:sodipodi="http://sodipodi.sourceforge.net/DTD/sodipodi-0.dtd"
   xmlns="http://www.w3.org/2000/svg"
   xmlns:svg="http://www.w3.org/2000/svg">
  <defs
     id="defs1" />
  <sodipodi:namedview
     id="namedview1"
     pagecolor="#ffffff"
     bordercolor="#000000"
     borderopacity="0.25"
     inkscape:showpageshadow="2"
     inkscape:pageopacity="0.0"
     inkscape:pagecheckerboard="0"
     inkscape:deskcolor="#d1d1d1"
     inkscape:zoom="20.887317"
     inkscape:cx="14.578225"
     inkscape:cy="13.860086"
     inkscape:window-width="1133"
     inkscape:window-height="1020"
     inkscape:window-x="21"
     inkscape:window-y="0"
     inkscape:window-maximized="0"
     inkscape:current-layer="svg1" />
  <path
     style="fill:#000000;stroke:none"
     d="m 5.01717,10.49148 c 0.4247347,0.876014 0.7532403,1.632571 0.985517,2.269672 0.232276,0.637101 0.3749597,1.280839 0.428051,1.931213 0.013273,0.809649 -0.136047,1.423522 -0.447961,1.84162 -0.311914,0.418097 -0.8594227,0.627146 -1.642526,0.627146 -0.7963767,0 -1.350522,-0.209049 -1.662436,-0.627146 C 2.365901,16.115887 2.2165807,15.502014 2.229854,14.692365 2.282945,14.041991 2.4256293,13.398253 2.657906,12.761152 2.890182,12.124051 3.3049613,11.294493 3.902244,10.272476 H 3.922153 C 3.0328663,9.728286 1.5579162,8.4000787 -0.14362783,7.6523184 L 0.4308835,6.9279902 C 1.9011051,7.6330899 2.9996843,8.759362 3.942063,9.038094 V 6.330414 C 4.061519,4.5651133 4.3236593,3.2411377 4.728484,2.358487 5.1333087,1.4758363 5.773728,0.84537167 6.649742,0.467093 7.525756,0.08881433 8.471453,-0.060506 9.486833,0.019132 c 1.015379,0.07963733 1.871484,0.36168733 2.568313,0.84615 0.696829,0.484462 1.12774,1.3713467 1.622617,2.538449 0.577078,1.3609609 0.680582,7.800345 0.732662,8.387506 0.04655,0.52482 1.594574,2.595298 2.880874,2.771255 0.114702,0.31347 0.116187,0.698611 -0.223979,0.813806 -0.883867,-0.3419 -1.722899,-0.76203 -2.632995,-2.053654 0.212367,1.446751 0.80965,2.776653 1.791848,4.037582 0.0284,0.326043 0.08219,0.663804 -0.69683,0.617191 C 14.507321,16.76958 13.850311,15.196736 13.558307,13.258887 13.531761,11.2414 13.475351,9.1907317 13.389076,7.106881 13.302802,5.0230297 12.957706,3.490005 12.353787,2.507807 11.749868,1.5256097 10.940219,0.97146467 9.924839,0.845372 8.9094597,0.71927933 7.8542613,0.93496467 6.759244,1.492428 5.6642267,2.0498913 5.076899,3.689099 4.997261,6.410051 V 9.2134829 C 6.146942,8.5830576 7.5443382,7.5569982 8.2558683,7.6194592 L 8.7769535,8.2147448 C 8.7509366,8.1887279 7.2527719,8.7395174 5.793637,9.794651 m -1.453386,6.311281 c 0.8627407,0 1.234383,-0.570736 1.114927,-1.712209 C 5.202992,12.9337 4.8313497,12.07096 4.340251,11.805501 3.835879,12.07096 3.4576003,12.9337 3.205415,14.393723 c -0.1194567,1.141473 0.258822,1.712209 1.134836,1.712209 z"
     id="path1"
     sodipodi:nodetypes="cscssscsccccccssssssccccccsssscccccscccs" />
</svg>
