<?xml version="1.0" encoding="UTF-8" standalone="no"?>
<svg
   width="19.297203"
   height="15.12"
   id="svg2"
   sodipodi:version="0.32"
   inkscape:version="1.3.2 (091e20e, 2023-11-25, custom)"
   sodipodi:docname="US11F40VARF.svg"
   version="1.1"
   xmlns:inkscape="http://www.inkscape.org/namespaces/inkscape"
   xmlns:sodipodi="http://sodipodi.sourceforge.net/DTD/sodipodi-0.dtd"
   xmlns="http://www.w3.org/2000/svg"
   xmlns:svg="http://www.w3.org/2000/svg"
   xmlns:rdf="http://www.w3.org/1999/02/22-rdf-syntax-ns#"
   xmlns:cc="http://creativecommons.org/ns#"
   xmlns:dc="http://purl.org/dc/elements/1.1/">
  <metadata
     id="metadata9">
    <rdf:RDF>
      <cc:Work
         rdf:about="">
        <dc:format>image/svg+xml</dc:format>
        <dc:type
           rdf:resource="http://purl.org/dc/dcmitype/StillImage" />
      </cc:Work>
    </rdf:RDF>
  </metadata>
  <defs
     id="defs7" />
  <sodipodi:namedview
     inkscape:window-height="964"
     inkscape:window-width="1663"
     inkscape:pageshadow="2"
     inkscape:pageopacity="0.0"
     guidetolerance="10.0"
     gridtolerance="10.0"
     objecttolerance="10.0"
     borderopacity="1.0"
     bordercolor="#666666"
     pagecolor="#ffffff"
     id="base"
     inkscape:zoom="64"
     inkscape:cx="9.0859375"
     inkscape:cy="9.3359375"
     inkscape:window-x="-8"
     inkscape:window-y="2"
     inkscape:current-layer="svg2"
     inkscape:showpageshadow="2"
     inkscape:pagecheckerboard="0"
     inkscape:deskcolor="#d1d1d1"
     inkscape:window-maximized="0"
     showguides="true">
    <sodipodi:guide
       position="9.625,10.604375"
       orientation="1,0"
       id="guide2"
       inkscape:locked="false" />
    <sodipodi:guide
       position="15.272919,2.9403124"
       orientation="0,-1"
       id="guide5"
       inkscape:locked="false" />
  </sodipodi:namedview>
  <rect
     style="fill:none;fill-opacity:1;stroke:#ff0000;stroke-width:0.523875;stroke-miterlimit:4;stroke-dasharray:none;stroke-opacity:1"
     id="zone2"
     width="10.656108"
     height="9.591011"
     x="4.3548732"
     y="11.225262"
     inkscape:label="gravity:t" />
  <g
     id="g5">
    <path
       id="path4"
       style="fill:#000000;stroke:none"
       d="M 11.183594 5.3417969 L 10.181641 5.3535156 L 10.199219 6.625 L 8.984375 6.6308594 L 8.9667969 5.3535156 L 7.9667969 5.3652344 L 7.984375 6.6367188 L 6.6972656 6.6425781 L 6.6796875 5.359375 L 5.6777344 5.3710938 L 5.6953125 6.6464844 L 5.34375 6.6484375 C 4.2023151 6.7115437 3.6503182 7.8658732 3.5644531 7.9199219 C 2.2921057 8.7208104 0.53588899 11.287953 0 14.6875 C 0.22412783 15.318723 0.78759075 15.194326 1.0117188 14.697266 C 1.5350652 12.504193 2.6769662 10.371364 3.7636719 9.1445312 C 4.0213127 9.613429 3.9210627 10.002398 4.46875 10.15625 L 14.599609 10.15625 C 15.132294 10.019517 15.228032 9.6234506 15.439453 9.0761719 C 16.717094 10.114555 17.642731 12.119767 18.257812 14.697266 C 18.399504 15.269991 19.296871 15.281987 19.296875 14.730469 C 18.630809 10.993958 16.893713 8.7677524 15.556641 7.9238281 C 15.556641 7.9238281 15.021008 6.7051635 13.960938 6.6074219 L 13.410156 6.609375 L 13.392578 5.3710938 L 12.390625 5.3828125 L 12.410156 6.6152344 L 11.201172 6.6210938 L 11.183594 5.3417969 z M 5.0839844 7.7402344 L 14.025391 7.7402344 C 14.463768 7.8471457 14.595696 8.2337128 14.628906 8.4570312 C 14.498152 8.7423166 14.488078 9.0688767 14.066406 9.1542969 L 5.125 9.1621094 C 4.797796 9.1102531 4.6607035 8.6939348 4.6191406 8.4199219 C 4.7234065 8.2402816 4.791257 7.858405 5.0839844 7.7402344 z " />
  </g>
</svg>
