<?xml version="1.0" encoding="UTF-8" standalone="no"?>
<svg
   width="8.5480003"
   height="12.02"
   version="1.1"
   id="svg1"
   sodipodi:docname="US11Aa2VARA.svg"
   inkscape:version="1.3.2 (091e20e, 2023-11-25, custom)"
   xmlns:inkscape="http://www.inkscape.org/namespaces/inkscape"
   xmlns:sodipodi="http://sodipodi.sourceforge.net/DTD/sodipodi-0.dtd"
   xmlns="http://www.w3.org/2000/svg"
   xmlns:svg="http://www.w3.org/2000/svg">
  <defs
     id="defs1" />
  <sodipodi:namedview
     id="namedview1"
     pagecolor="#ffffff"
     bordercolor="#000000"
     borderopacity="0.25"
     inkscape:showpageshadow="2"
     inkscape:pageopacity="0.0"
     inkscape:pagecheckerboard="0"
     inkscape:deskcolor="#d1d1d1"
     inkscape:zoom="48.190142"
     inkscape:cx="5.7584391"
     inkscape:cy="5.5094256"
     inkscape:window-width="1920"
     inkscape:window-height="986"
     inkscape:window-x="-11"
     inkscape:window-y="-11"
     inkscape:window-maximized="1"
     inkscape:current-layer="svg1"
     showguides="true">
    <sodipodi:guide
       position="5.665059,7.6168149"
       orientation="0,-1"
       id="guide1"
       inkscape:locked="false" />
    <sodipodi:guide
       position="6.5366065,6.6830139"
       orientation="0,-1"
       id="guide2"
       inkscape:locked="false" />
    <sodipodi:guide
       position="5.7895658,4.7324076"
       orientation="0,-1"
       id="guide3"
       inkscape:locked="false" />
    <sodipodi:guide
       position="7.1591405,3.7156021"
       orientation="0,-1"
       id="guide4"
       inkscape:locked="false" />
  </sodipodi:namedview>
  <path
     style="fill:#000000;stroke:none;stroke-width:0.785258"
     d="M 7.6912691,5.3117082 C 7.4677931,4.8748486 7.1015913,4.7877202 6.5926621,5.0503238 6.8161371,5.4871837 7.0230585,5.9490189 7.213427,6.4358288 7.7503628,6.1390535 7.9096434,5.7643468 7.6912691,5.3117082 Z M 6.1771014,11.19612 C 6.943347,10.426057 7.4304147,9.3525905 6.9927244,8.0435308 6.5550336,6.7344707 5.7079365,4.776376 5.0707718,4.2524834 4.1185994,3.4695837 4.0704085,3.2650461 2.5142629,3.4721237 1.4457212,4.5664305 1.3612264,5.444348 1.6804978,6.4452674 2.0592889,7.632782 2.6619847,8.7089994 3.4993295,9.7934453 4.2742888,10.797095 5.060611,11.392076 6.1771014,11.19612 Z M 2.6442525,9.8767435 C 1.2061379,10.503623 0.79026377,10.029435 0.21101322,9.1976882 -0.24338771,8.2529264 0.10548621,7.6154955 1.001374,6.9428732 0.39209028,5.015576 1.2461338,3.4066476 2.121836,2.7970551 3.2420736,2.2569334 4.9396949,2.6675187 6.2155032,4.3673768 7.1901187,3.8447622 7.9110588,4.0413678 8.3783227,4.9571935 8.8379583,5.8703821 8.5575616,6.6066767 7.5371319,7.1660782 8.2475167,9.3763255 7.7399508,11.038637 6.561589,11.876733 5.2879698,12.316248 3.7967604,11.896417 2.644251,9.8767435 Z M 0.96822856,8.8634083 C 1.2527752,9.2687556 1.5312721,9.4625241 2.0326589,9.0920628 c 0,0 -0.4541788,-0.9150934 -0.7387258,-1.3204408 C 0.83326049,8.1210746 0.6786033,8.4475342 0.96822856,8.8634083 Z"
     id="path1"
     sodipodi:nodetypes="cccccsscssccccccccccccccc" />
</svg>
