<?xml version="1.0" encoding="UTF-8" standalone="no"?>
<svg
   width="19.299999"
   height="7.9200001"
   version="1.1"
   id="svg1"
   sodipodi:docname="US11N27VARA.svg"
   inkscape:version="1.3.2 (091e20e, 2023-11-25, custom)"
   xmlns:inkscape="http://www.inkscape.org/namespaces/inkscape"
   xmlns:sodipodi="http://sodipodi.sourceforge.net/DTD/sodipodi-0.dtd"
   xmlns="http://www.w3.org/2000/svg"
   xmlns:svg="http://www.w3.org/2000/svg">
  <defs
     id="defs1" />
  <sodipodi:namedview
     id="namedview1"
     pagecolor="#ffffff"
     bordercolor="#000000"
     borderopacity="0.25"
     inkscape:showpageshadow="2"
     inkscape:pageopacity="0.0"
     inkscape:pagecheckerboard="0"
     inkscape:deskcolor="#d1d1d1"
     inkscape:zoom="45.921225"
     inkscape:cx="9.9736016"
     inkscape:cy="3.9524207"
     inkscape:window-width="1920"
     inkscape:window-height="986"
     inkscape:window-x="-11"
     inkscape:window-y="-11"
     inkscape:window-maximized="1"
     inkscape:current-layer="svg1"
     showguides="true">
    <sodipodi:guide
       position="14.590203,2.9331993"
       orientation="0,-1"
       id="guide1"
       inkscape:locked="false" />
    <sodipodi:guide
       position="9.6034024,3.1727399"
       orientation="1,0"
       id="guide2"
       inkscape:locked="false" />
  </sodipodi:namedview>
  <path
     id="path1"
     style="fill:#000000;stroke:none"
     d="M 9.5761719 -3.4394531 C 9.022186 -3.4394531 8.5024603 -3.3358324 8.015625 -3.1289062 C 7.5287897 -2.9219802 7.1083955 -2.6410686 6.7558594 -2.2851562 C 6.4033233 -1.9292431 6.1219527 -1.5147596 5.9121094 -1.0429688 C 5.702267 -0.57117709 5.5976563 -0.061909354 5.5976562 0.484375 C 5.5976562 1.0306593 5.702267 1.5399271 5.9121094 2.0117188 C 6.1219527 2.4835105 6.4033233 2.8925987 6.7558594 3.2402344 C 7.1083955 3.58787 7.5287897 3.8653394 8.015625 4.0722656 C 8.5024603 4.2791911 9.022186 4.3828125 9.5761719 4.3828125 C 10.130157 4.3828125 10.646558 4.2791911 11.125 4.0722656 C 11.603442 3.8653394 12.023836 3.58787 12.384766 3.2402344 C 12.745695 2.8925987 13.030391 2.4835105 13.240234 2.0117188 C 13.450077 1.5399271 13.554688 1.0306593 13.554688 0.484375 C 13.554688 -0.061909354 13.450077 -0.57117709 13.240234 -1.0429688 C 13.030391 -1.5147596 12.745695 -1.9292431 12.384766 -2.2851562 C 12.023836 -2.6410686 11.603442 -2.9219802 11.125 -3.1289062 C 10.646558 -3.3358324 10.130157 -3.4394531 9.5761719 -3.4394531 z M 9.6269531 -2.59375 C 10.080215 -2.59375 10.500608 -2.5112439 10.886719 -2.3457031 C 11.272828 -2.1801619 11.61247 -1.9537589 11.90625 -1.6640625 C 12.200031 -1.3743662 12.429782 -1.0423884 12.597656 -0.66992188 C 12.765531 -0.29745535 12.849609 0.095913249 12.849609 0.50976562 C 12.849609 0.94017142 12.765528 1.3404233 12.597656 1.7128906 C 12.429782 2.0853572 12.200031 2.4119398 11.90625 2.6933594 C 11.61247 2.9747783 11.272828 3.1942981 10.886719 3.3515625 C 10.500608 3.5088261 10.080215 3.5878906 9.6269531 3.5878906 C 9.1736922 3.5878906 8.7499728 3.508826 8.3554688 3.3515625 C 7.9609628 3.1942981 7.6213231 2.9747783 7.3359375 2.6933594 C 7.0505501 2.4119398 6.8241245 2.0853572 6.65625 1.7128906 C 6.4883756 1.3404233 6.4042969 0.94017102 6.4042969 0.50976562 C 6.4042969 0.095913259 6.4883738 -0.29745536 6.65625 -0.66992188 C 6.8241245 -1.0423888 7.0505501 -1.3743662 7.3359375 -1.6640625 C 7.6213231 -1.9537589 7.9609628 -2.1801619 8.3554688 -2.3457031 C 8.7499728 -2.5112443 9.1736922 -2.59375 9.6269531 -2.59375 z M 1.2089844 0 C 0.68878757 7.4014794e-17 0.28610838 0.20884242 0 0.625 L 0 7.9199219 L 19.269531 7.9199219 L 19.269531 0.625 C 18.970419 0.20884242 18.561212 0 18.041016 0 C 17.221705 1.4802959e-16 16.714604 0.37331117 16.519531 1.1210938 C 16.324458 1.8688763 16.030635 3.3679544 15.435547 4.1113281 C 14.669984 5.0676551 11.197777 5.5455684 9.8105469 5.3984375 C 8.2313768 5.5304301 4.6305937 5.1399878 3.921875 4.21875 C 3.3248651 3.4427184 2.9255426 1.8688763 2.7304688 1.1210938 C 2.5353949 0.37331117 2.0282936 0 1.2089844 0 z M 1.2285156 0.625 C 1.7096971 0.625 2.0523298 1.0309435 2.2539062 1.84375 C 2.455482 2.6565572 2.9477882 4.2195128 3.8242188 4.859375 C 5.7297173 6.2505364 10.436246 5.9835118 9.8105469 6.0234375 C 12.685032 6.0106774 14.663661 5.5419625 15.533203 4.8710938 C 16.380074 4.2177167 16.794516 2.6402889 16.996094 1.8339844 C 17.197669 1.0276799 17.54683 0.625 18.041016 0.625 C 18.301114 0.625 18.501476 0.75357414 18.644531 1.0136719 L 18.644531 7.2949219 L 0.625 7.3144531 L 0.625 1.0136719 C 0.75504854 0.75357414 0.9554119 0.625 1.2285156 0.625 z " />
</svg>
