<?xml version="1.0" encoding="UTF-8" standalone="no"?>
<svg
   width="1753"
   height="939"
   id="svg2"
   sodipodi:version="0.32"
   inkscape:version="1.3.2 (091e20e, 2023-11-25, custom)"
   sodipodi:docname="US11I14VARB.svg"
   inkscape:output_extension="org.inkscape.output.svg.inkscape"
   version="1.0"
   xmlns:inkscape="http://www.inkscape.org/namespaces/inkscape"
   xmlns:sodipodi="http://sodipodi.sourceforge.net/DTD/sodipodi-0.dtd"
   xmlns="http://www.w3.org/2000/svg"
   xmlns:svg="http://www.w3.org/2000/svg"
   xmlns:rdf="http://www.w3.org/1999/02/22-rdf-syntax-ns#"
   xmlns:cc="http://creativecommons.org/ns#"
   xmlns:dc="http://purl.org/dc/elements/1.1/">
  <metadata
     id="metadata9">
    <rdf:RDF>
      <cc:Work
         rdf:about="">
        <dc:format>image/svg+xml</dc:format>
        <dc:type
           rdf:resource="http://purl.org/dc/dcmitype/StillImage" />
      </cc:Work>
    </rdf:RDF>
  </metadata>
  <defs
     id="defs7">
    <inkscape:perspective
       sodipodi:type="inkscape:persp3d"
       inkscape:vp_x="0 : 4.6953125 : 1"
       inkscape:vp_y="0 : 1000 : 0"
       inkscape:vp_z="17.53125 : 4.6953125 : 1"
       inkscape:persp3d-origin="8.765625 : 3.1302083 : 1"
       id="perspective11" />
  </defs>
  <sodipodi:namedview
     inkscape:window-height="894"
     inkscape:window-width="1362"
     inkscape:pageshadow="2"
     inkscape:pageopacity="0.0"
     guidetolerance="10.0"
     gridtolerance="10.0"
     objecttolerance="10.0"
     borderopacity="1.0"
     bordercolor="#666666"
     pagecolor="#ffffff"
     id="base"
     showgrid="false"
     inkscape:zoom="0.7953822"
     inkscape:cx="1436.4163"
     inkscape:cy="477.12911"
     inkscape:window-x="534"
     inkscape:window-y="30"
     inkscape:current-layer="svg2"
     inkscape:showpageshadow="2"
     inkscape:pagecheckerboard="0"
     inkscape:deskcolor="#d1d1d1"
     inkscape:window-maximized="0" />
  <path
     style="fill:#000000;stroke:none"
     d="M 135.5,13.080871 C 59.262251,21.435691 20.088705,53.292681 18,108.64337 c 0,30.28623 12.270181,30.41686 36.8125,46.60436 24.542255,16.18744 86.41149,23.76311 185.625,22.71875 20.88704,34.46364 13.39691,101.38852 1.77803,175.00227 C 221.25495,485.76869 263.10102,555.67406 284.6089,592 c 44.35154,74.90796 101.2803,99.46874 152.4536,99.46875 112.7901,0 169.18747,-71.03051 169.1875,-213.0625 l -28.1875,-321.125 c 0,-54.30634 18.26014,-81.46874 54.8125,-81.46875 36.55235,0 54.84376,27.1624 54.84375,81.46875 L 661.0625,484.6875 c 0,136.81021 38.6554,205.21875 115.9375,205.21875 78.32646,0 117.49998,-68.40852 117.5,-205.21875 L 867.84375,157.28125 c 0,-54.30634 18.29141,-81.46874 54.84375,-81.46875 36.55234,0 54.81251,27.1624 54.8125,81.46875 L 950.875,484.6875 c 0,136.81021 38.6554,205.21875 115.9375,205.21875 78.3264,0 117.4687,-68.40852 117.4687,-205.21875 l -28.1874,-327.40625 c 0,-54.30634 18.8095,-81.46874 56.4062,-81.46875 36.5523,0 54.8125,27.1624 54.8125,81.46875 2.8171,108.46875 -0.4149,216.9375 17.8125,325.40625 21.2878,114.17715 107.1082,207.82173 171.2286,297.32232 14.7694,24.61071 69.2088,18.17886 56.422,-12.67898 C 1445.3985,675.73644 1380.1163,600.47532 1346.2188,482.6875 1326.116,368.55266 1334.3437,265.75 1328.4062,157.28125 1328.4063,62.24516 1289.782,14.71874 1212.5,14.71875 c -78.3265,0 -117.5,47.5264 -117.5,142.5625 l 28.1875,327.40625 c 0,96.08045 -18.7783,144.12497 -56.375,144.125 -36.5523,0 -54.8437,-48.04453 -54.8437,-144.125 l 26.625,-327.40625 c 0,-95.03609 -38.62421,-142.56251 -115.9063,-142.5625 -77.28209,0 -115.9375,47.5264 -115.9375,142.5625 l 26.65625,327.40625 c 0,96.08045 -18.80956,143.60689 -56.40625,142.5625 -36.55234,0 -54.84373,-47.52638 -54.84375,-142.5625 L 748.8125,157.28125 c 0,-95.03609 -38.65543,-142.56251 -115.9375,-142.5625 -86.68127,0 -130.03126,47.5264 -130.03125,142.5625 L 529.5,478.40625 c 0,65.79422 -35.63424,156.37637 -92.4375,132.50132 C 365.14789,580.68106 361.67439,562.8052 344.625,519.9375 327.33635,476.46823 320.60057,364.1146 332.09375,288.75 344.10384,203.63529 336.52818,142.3388 309.375,90.643371 282.22183,38.947881 224.26997,13.080871 135.5,13.080871 Z m 26.625,42.3125 c 89.51324,8.001136 93.05942,28.141555 112,50.667989 33.7409,40.12876 36.3199,112.48956 28.1875,190.50114 -12.4359,119.29374 9.02654,220.65359 -1.93913,230.57499 C 289.40764,537.05881 255.82055,454.6974 277.25,327.125 290.29584,249.46138 288.22627,185.11854 255.85133,145.43315 214.42068,128.97763 66.477361,161.82132 60.28125,108.64337 c 0,-35.507989 33.960814,-53.249999 101.84375,-53.249999 z m -23.5,9.40625 c -26.10881,0 -36.44414,5.609499 -41.665909,27.540909 0,12.53223 5.122599,8.14432 26.009659,8.14432 30.28621,0 45.40624,7.13127 45.40625,-10.622729 0,-15.66529 -9.90729,-24.01815 -29.75,-25.0625 z"
     id="path2413"
     sodipodi:nodetypes="ccscsssccsccsccsccsccsccccccsccsccscccccsccssssccsssscscccssc" />
</svg>
