<?xml version="1.0" encoding="UTF-8" standalone="no"?>
<svg
   width="10.502062"
   height="17.977417"
   version="1.1"
   id="svg1"
   sodipodi:docname="US11O21VARA.svg"
   inkscape:version="1.3.2 (091e20e, 2023-11-25, custom)"
   xmlns:inkscape="http://www.inkscape.org/namespaces/inkscape"
   xmlns:sodipodi="http://sodipodi.sourceforge.net/DTD/sodipodi-0.dtd"
   xmlns="http://www.w3.org/2000/svg"
   xmlns:svg="http://www.w3.org/2000/svg">
  <defs
     id="defs1" />
  <sodipodi:namedview
     id="namedview1"
     pagecolor="#ffffff"
     bordercolor="#000000"
     borderopacity="0.25"
     inkscape:showpageshadow="2"
     inkscape:pageopacity="0.0"
     inkscape:pagecheckerboard="0"
     inkscape:deskcolor="#d1d1d1"
     inkscape:zoom="41.774633"
     inkscape:cx="9.2520262"
     inkscape:cy="1.9509447"
     inkscape:window-width="1920"
     inkscape:window-height="986"
     inkscape:window-x="-11"
     inkscape:window-y="-11"
     inkscape:window-maximized="1"
     inkscape:current-layer="svg1" />
  <path
     style="fill:#000000;stroke:none"
     d="M 9.2418483,16.088264 8.226954,3.8635171 H 2.254795 L 1.128424,16.088264 Z M 8.247267,3.0306651 8.1987145,0.670344 H 2.3309094 L 2.234481,3.0306651 Z M 0.21332014,16.829706 c 0,0 1.28822226,-14.0594605 1.31018986,-14.128015 C 1.428714,1.929779 1.7079634,1.2526633 1.3558634,0.670344 H 0.446896 C 0.14896533,0.670344 0,0.55523433 0,0.325015 0,0.10833833 0.14896533,0 0.446896,0 h 9.587956 c 0.311473,0 0.46721,0.10833833 0.46721,0.325015 0,0.23021933 -0.155737,0.345329 -0.46721,0.345329 H 9.1737615 C 8.8216609,1.2526633 9.0530343,1.929779 8.958239,2.701691 c 0,0 1.208035,14.159187 1.174776,14.128015 z"
     id="path1"
     sodipodi:nodetypes="cccccccccccccsssssscccc" />
</svg>
