<?xml version="1.0" encoding="UTF-8" standalone="no"?>
<svg
   width="10.702"
   height="9.7600002"
   version="1.1"
   id="svg1"
   sodipodi:docname="US11N21VARA.svg"
   inkscape:version="1.3.2 (091e20e, 2023-11-25, custom)"
   xmlns:inkscape="http://www.inkscape.org/namespaces/inkscape"
   xmlns:sodipodi="http://sodipodi.sourceforge.net/DTD/sodipodi-0.dtd"
   xmlns="http://www.w3.org/2000/svg"
   xmlns:svg="http://www.w3.org/2000/svg">
  <defs
     id="defs1" />
  <sodipodi:namedview
     id="namedview1"
     pagecolor="#ffffff"
     bordercolor="#000000"
     borderopacity="0.25"
     inkscape:showpageshadow="2"
     inkscape:pageopacity="0.0"
     inkscape:pagecheckerboard="0"
     inkscape:deskcolor="#d1d1d1"
     inkscape:zoom="63.0256"
     inkscape:cx="8.4489478"
     inkscape:cy="5.4184332"
     inkscape:window-width="1920"
     inkscape:window-height="986"
     inkscape:window-x="-11"
     inkscape:window-y="-11"
     inkscape:window-maximized="1"
     inkscape:current-layer="svg1" />
  <path
     style="fill:#000000;stroke:none"
     d="m 2.0004649,1.3443138 q 0.2244163,0.1194197 0.4858277,0.321517 3.5535987,2.2509499 7.025351,4.9262894 L 7.3397308,8.7119615 Q 4.3520758,6.0062636 1.519106,2.8069527 0.57795425,1.8021955 0.98691115,1.3718952 1.3272134,0.98605313 2.0004649,1.3443138 Z M 2.507728,0.64980039 Q 1.2548619,-0.01689351 0.45932945,0.87517779 -0.40336385,1.8199355 0.72874275,3.1422782 3.7282239,6.5021875 6.8955116,9.4114612 7.0730598,9.6039277 7.2191204,9.6816516 7.4486454,9.8037899 7.6004201,9.6425846 L 10.397993,6.9557878 Q 10.749041,6.5666642 10.290689,6.1427824 6.4691841,3.2453353 2.8201048,0.83558989 2.6605154,0.73110389 2.507728,0.64980039 Z"
     id="path1" />
</svg>
