<?xml version="1.0" encoding="UTF-8" standalone="no"?>
<svg
   width="15.811"
   height="8.081254"
   version="1.1"
   id="svg1"
   sodipodi:docname="US11M11VARB.svg"
   inkscape:version="1.3.2 (091e20e, 2023-11-25, custom)"
   xmlns:inkscape="http://www.inkscape.org/namespaces/inkscape"
   xmlns:sodipodi="http://sodipodi.sourceforge.net/DTD/sodipodi-0.dtd"
   xmlns="http://www.w3.org/2000/svg"
   xmlns:svg="http://www.w3.org/2000/svg">
  <defs
     id="defs1" />
  <sodipodi:namedview
     id="namedview1"
     pagecolor="#ffffff"
     bordercolor="#000000"
     borderopacity="0.25"
     inkscape:showpageshadow="2"
     inkscape:pageopacity="0.0"
     inkscape:pagecheckerboard="0"
     inkscape:deskcolor="#d1d1d1"
     inkscape:zoom="67.235622"
     inkscape:cx="7.7116859"
     inkscape:cy="5.0791528"
     inkscape:window-width="1898"
     inkscape:window-height="964"
     inkscape:window-x="0"
     inkscape:window-y="0"
     inkscape:window-maximized="0"
     inkscape:current-layer="svg1" />
  <path
     style="fill:#000000;stroke:none"
     d="M 1.1137452,3.6059997 C 1.3224229,3.5454159 2.2509535,3.3676504 2.3365374,3.426446 3.046713,3.9143327 3.4793798,3.4047176 3.6266588,3.4047176 H 13.804023 c 0.482843,0 0.724265,0.2414213 0.724265,0.724264 -0.02541,0.4574293 -0.260482,0.686144 -0.705204,0.686144 H 1.7012032 c -0.87674005,0 -1.31511005,0.476489 -1.31511005,1.429467 0,1.029216 0.43837,1.537471 1.31511005,1.524765 L 15.420713,7.6801192 v -0.8958 L 1.9108582,6.8735576 c -0.4447135,0.00294 -0.6797913,-0.171536 -0.705204,-0.514608 0,-0.482842 0.241421,-0.724263 0.724263,-0.724263 H 13.823084 v -0.019059 c 1.067335,0.012706 1.601003,-0.495549 1.601003,-1.524765 0,-1.003804 -0.463783,-1.505706 -1.391348,-1.505706 H 3.6266588 c -0.040342,0 -0.6774046,-0.6310456 -1.3210127,0.00899 0,0 -0.9874674,-0.083763 -1.1919009,-0.1317155 h 0.01906 c 0.068618,0.068888 -1.0779109,-0.4835656 -1.10118882,-0.3586198 -0.053883,0.2892207 -0.0389133,1.9729454 -0.0194306,1.8930033 0,0 1.10625472,-0.3868721 1.12061942,-0.3908105 z"
     id="path1"
     sodipodi:nodetypes="cssscssscccscsccssssccsscc" />
</svg>
