<?xml version="1.0" encoding="UTF-8" standalone="no"?>
<svg
   width="19.040001pt"
   height="18.379999pt"
   id="svg1337"
   sodipodi:version="0.32"
   inkscape:version="1.3.2 (091e20e, 2023-11-25, custom)"
   sodipodi:docname="US11O400XT.svg"
   version="1.0"
   xmlns:inkscape="http://www.inkscape.org/namespaces/inkscape"
   xmlns:sodipodi="http://sodipodi.sourceforge.net/DTD/sodipodi-0.dtd"
   xmlns="http://www.w3.org/2000/svg"
   xmlns:svg="http://www.w3.org/2000/svg"
   xmlns:rdf="http://www.w3.org/1999/02/22-rdf-syntax-ns#"
   xmlns:cc="http://creativecommons.org/ns#"
   xmlns:dc="http://purl.org/dc/elements/1.1/">
  <metadata
     id="metadata1344">
    <rdf:RDF>
      <cc:Work
         rdf:about="">
        <dc:format>image/svg+xml</dc:format>
        <dc:type
           rdf:resource="http://purl.org/dc/dcmitype/StillImage" />
      </cc:Work>
    </rdf:RDF>
  </metadata>
  <defs
     id="defs1342" />
  <sodipodi:namedview
     inkscape:window-height="875"
     inkscape:window-width="1413"
     inkscape:pageshadow="2"
     inkscape:pageopacity="0.0"
     borderopacity="1.0"
     bordercolor="#666666"
     pagecolor="#ffffff"
     id="base"
     inkscape:zoom="24.502877"
     inkscape:cx="11.508853"
     inkscape:cy="10.978303"
     inkscape:window-x="0"
     inkscape:window-y="0"
     inkscape:current-layer="svg1337"
     inkscape:showpageshadow="2"
     inkscape:pagecheckerboard="0"
     inkscape:deskcolor="#d1d1d1"
     inkscape:document-units="pt"
     inkscape:window-maximized="0"
     showguides="true">
    <sodipodi:guide
       position="13.649887,7.7545312"
       orientation="0,-1"
       id="guide1"
       inkscape:locked="false" />
  </sodipodi:namedview>
  <g
     id="g1349"
     transform="matrix(-0.98,0,0,0.98,23.061324,4.392166)">
    <path
       id="path1339"
       style="fill:#000000;stroke:none"
       d="M 22.784594 -4.0194296 L 22.784594 17.977142 L 0.00079298469 17.977142 L 0.00079298469 -4.0194296 L 22.784594 -4.0194296 z M 21.471217 -2.7439194 L 18.651144 -2.7439194 L 18.651144 1.7123944 L 21.471217 1.7123944 L 21.471217 -2.7439194 z M 17.375634 -2.7439194 L 1.2763032 -2.7439194 L 1.2763032 16.701632 L 21.509084 16.701632 L 21.509084 2.9879046 L 17.375634 2.9879046 L 17.375634 -2.7439194 z M 11.530209 -1.2950195 L 16.263548 11.065472 L 17.849964 11.065472 L 17.849964 14.674767 L 5.1945111 14.674767 L 5.1945111 11.085401 L 6.7988638 11.085401 L 11.530209 -1.2950195 z M 11.530209 0.80558635 C 10.026318 4.7581256 8.3958314 8.6746251 7.1894888 12.731607 L 6.4241827 12.614021 L 6.6733057 11.81882 L 5.9159716 11.81882 L 5.9159716 13.941348 L 17.130496 13.941348 L 17.130496 11.81882 L 16.420994 11.81882 L 16.700012 12.60007 L 15.934706 12.731607 C 15.106278 9.8781341 13.428559 6.016685 11.530209 0.80558635 z " />
  </g>
</svg>
