<?xml version="1.0" encoding="UTF-8" standalone="no"?>
<svg
   width="19.299999"
   height="7.9200001"
   version="1.1"
   id="svg1"
   sodipodi:docname="US11N26VARA.svg"
   inkscape:version="1.3.2 (091e20e, 2023-11-25, custom)"
   xmlns:inkscape="http://www.inkscape.org/namespaces/inkscape"
   xmlns:sodipodi="http://sodipodi.sourceforge.net/DTD/sodipodi-0.dtd"
   xmlns="http://www.w3.org/2000/svg"
   xmlns:svg="http://www.w3.org/2000/svg">
  <defs
     id="defs1" />
  <sodipodi:namedview
     id="namedview1"
     pagecolor="#ffffff"
     bordercolor="#000000"
     borderopacity="0.25"
     inkscape:showpageshadow="2"
     inkscape:pageopacity="0.0"
     inkscape:pagecheckerboard="0"
     inkscape:deskcolor="#d1d1d1"
     inkscape:zoom="45.921225"
     inkscape:cx="9.9736015"
     inkscape:cy="0.94727438"
     inkscape:window-width="1898"
     inkscape:window-height="964"
     inkscape:window-x="152"
     inkscape:window-y="0"
     inkscape:window-maximized="0"
     inkscape:current-layer="svg1"
     showguides="true">
    <sodipodi:guide
       position="14.590203,2.9331993"
       orientation="0,-1"
       id="guide1"
       inkscape:locked="false" />
  </sodipodi:namedview>
  <path
     style="fill:#000000;stroke:none"
     d="M 18.645115,7.295764 V 1.014384 C 18.50206,0.754286 18.300483,0.624237 18.040384,0.624237 c -0.494186,0 -0.842067,0.4031527 -1.043642,1.209458 -0.201578,0.8063053 -0.616183,2.3845406 -1.463055,3.0379183 -0.869543,0.6708694 -2.849499,1.1381759 -5.7239867,1.150936 v 0 C 10.4354,5.9826236 5.7305406,6.2507537 3.8250401,4.8595909 2.9486087,4.2197281 2.45468,2.656256 2.253104,1.843448 2.0515273,1.0306407 1.710148,0.624237 1.228966,0.624237 c -0.273104,0 -0.47468033,0.130049 -0.604729,0.390147 V 7.315271 Z M 9.8097003,5.3983123 C 11.196932,5.5454433 14.670587,5.0671512 15.436151,4.1108233 16.03124,3.3674488 16.323736,1.8694583 16.518809,1.121675 16.713882,0.37389167 17.221073,0 18.040384,0 18.560581,0 18.970237,0.208079 19.26935,0.624237 V 7.92 H 0 V 0.624237 C 0.28610867,0.208079 0.68926167,0 1.209459,0 2.028769,0 2.535961,0.37389167 2.731035,1.121675 2.926109,1.8694583 3.3255666,3.443673 3.9225771,4.2197054 4.6312965,5.1409441 8.2305286,5.530305 9.8097003,5.3983123 Z"
     id="path1"
     sodipodi:nodetypes="ccscsssscsccccsssccccsssc" />
  <rect
     style="fill:none;fill-opacity:1;stroke:#ff0000;stroke-width:0.6;stroke-miterlimit:4;stroke-dasharray:none;stroke-opacity:1"
     id="zone2"
     width="10.579983"
     height="12.671353"
     x="4.3469858"
     y="-9.007103"
     inkscape:label="gravity:t" />
</svg>
