<?xml version="1.0" encoding="UTF-8" standalone="no"?>
<svg
   width="14.4"
   height="28.978001"
   id="svg2440"
   sodipodi:version="0.32"
   inkscape:version="1.3.2 (091e20e, 2023-11-25, custom)"
   sodipodi:docname="US11F5VARA.svg"
   inkscape:output_extension="org.inkscape.output.svg.inkscape"
   version="1.1"
   xmlns:inkscape="http://www.inkscape.org/namespaces/inkscape"
   xmlns:sodipodi="http://sodipodi.sourceforge.net/DTD/sodipodi-0.dtd"
   xmlns="http://www.w3.org/2000/svg"
   xmlns:svg="http://www.w3.org/2000/svg"
   xmlns:rdf="http://www.w3.org/1999/02/22-rdf-syntax-ns#"
   xmlns:cc="http://creativecommons.org/ns#"
   xmlns:dc="http://purl.org/dc/elements/1.1/">
  <metadata
     id="metadata2447">
    <rdf:RDF>
      <cc:Work
         rdf:about="">
        <dc:format>image/svg+xml</dc:format>
        <dc:type
           rdf:resource="http://purl.org/dc/dcmitype/StillImage" />
      </cc:Work>
    </rdf:RDF>
  </metadata>
  <defs
     id="defs2445">
    <inkscape:perspective
       sodipodi:type="inkscape:persp3d"
       inkscape:vp_x="0 : 19.989209 : 1"
       inkscape:vp_y="0 : 1000 : 0"
       inkscape:vp_z="11.191835 : 19.989209 : 1"
       inkscape:persp3d-origin="5.5959177 : 16.992945 : 1"
       id="perspective2449" />
  </defs>
  <sodipodi:namedview
     inkscape:window-height="947"
     inkscape:window-width="1641"
     inkscape:pageshadow="2"
     inkscape:pageopacity="0.0"
     guidetolerance="10.0"
     gridtolerance="10.0"
     objecttolerance="10.0"
     borderopacity="1.0"
     bordercolor="#666666"
     pagecolor="#ffffff"
     id="base"
     showgrid="false"
     inkscape:zoom="12.849336"
     inkscape:cx="5.6034024"
     inkscape:cy="19.845383"
     inkscape:window-x="0"
     inkscape:window-y="0"
     inkscape:current-layer="svg2440"
     inkscape:showpageshadow="2"
     inkscape:pagecheckerboard="0"
     inkscape:deskcolor="#d1d1d1"
     inkscape:window-maximized="0" />
  <path
     id="path2442"
     style="fill:#000000;stroke:none"
     d="M 7.65625,0.54477521 C 6.7638789,0.55716921 6.3287276,0.94821897 6.3535156,1.71665 6.3299379,3.455663 6.647769,6.0633687 4.6855469,6.587744 c -1.2641928,0 -1.8964844,-1.463677 -1.8964844,-4.3886721 0,-0.9915235 -0.3223068,-1.51097009 -0.9667969,-1.56054669 C 1.177775,0.58894931 0.71279742,0.65055561 0.42773438,0.82407211 0.14267133,0.99758917 0,1.1947296 0,1.417822 0.14872852,1.5913384 0.36014344,1.6107971 0.6328125,1.4744625 0.90548156,1.3381281 1.1590442,1.2817052 1.3945312,1.3064939 c 0.2354865,0.024788 0.3463784,0.3470946 0.3339844,0.9667967 -0.012391,0.6197027 -0.017578,1.3136007 -0.017578,2.0820313 0,0.7684312 0.3592704,1.885159 1.078125,3.3476561 C 2.6403339,7.975647 2.428919,8.273311 2.15625,8.595556 1.883581,8.917802 1.7480469,9.424928 1.7480469,10.118994 c -0.347033,0.52055 -0.6446971,1.054271 -0.89257815,1.599609 -0.1735165,0.347034 -0.037982,0.644697 0.40820315,0.892578 0.1735165,0.545339 0.5697504,0.767119 1.1894531,0.667969 0.6444901,-0.297457 1.2398181,-0.632085 1.7851562,-1.003906 0.5701262,0 1.0668837,-0.246425 1.4882813,-0.742188 0.1774411,1.623811 0.1353285,3.379766 -0.010894,5.023438 l 2.1417532,0.01172 0.2070312,4.080078 H 3.2089844 v 1 h 4.8945312 l 0.2871094,7.341796 1,-0.03906 -0.2871094,-7.302734 h 5.3070154 l -0.01702,-0.749672 -5.4638205,-4.324547 1.8554685,0.01172 C 10.605212,14.24183 10.728721,8.743487 8.03125,7.515478 8.4526476,6.97014 8.6005031,6.4383714 8.4765625,5.9178219 c 0,-0.4461856 -0.086249,-0.8917044 -0.2597656,-1.3378907 L 7.2871094,5.5076656 C 7.4781016,4.6017955 7.708817,3.6669781 7.4140625,2.0701656 7.4016685,1.6115861 7.5566613,1.3437491 7.8789062,1.2693845 8.2011519,1.1950207 8.572743,1.2566269 8.9941406,1.4549314 9.4403262,1.5788718 9.5654927,1.4556586 9.3671875,1.0838377 9.1193071,0.71201611 8.5486218,0.53238121 7.65625,0.54477521 Z M 7.9570312,5.5467281 C 8.0066072,6.1416422 7.7828709,6.784302 7.2871094,7.478369 6.5930428,7.503159 6.2460938,7.876702 6.2460938,8.595556 h 0.5214843 c 0,-0.421397 0.2976634,-0.620492 0.8925781,-0.595703 2.2655684,1.949556 2.2393254,5.700032 2.325572,7.785156 l -3.4759626,0.0059 c 0.1477993,-2.590984 0.1455502,-4.034781 -0.375,-5.22461 H 5.7265625 c -0.4213976,0.743644 -0.9551193,1.152203 -1.5996094,1.226563 -0.6197027,0.421396 -1.0405794,0.694418 -1.2636719,0.818359 -0.223093,0.123938 -0.4221865,0.173228 -0.5957031,0.148438 0.074364,-0.173517 0.1625659,-0.303865 0.2617188,-0.390625 0.099153,-0.08676 0.1905858,-0.167828 0.2773437,-0.242188 0.086759,-0.07437 0.081575,-0.135967 -0.017578,-0.185547 -0.099152,-0.04958 -0.2366391,0.03667 -0.4101563,0.259766 C 2.2053897,12.424118 2.0205701,12.598568 1.8222656,12.722509 1.6735371,12.623357 1.587289,12.522831 1.5625,12.423681 1.661653,12.027071 1.7654065,11.903859 1.8769531,12.052587 1.9884997,12.201318 2.0818861,12.188995 2.15625,12.015477 2.230615,11.84196 2.119723,11.694105 1.8222656,11.570165 l -0.484375,0.445312 c 0,-0.173517 0.3099848,-0.656 0.9296875,-1.449219 C 2.2923661,9.723464 2.4103947,9.1651 2.6210938,8.892431 2.8317922,8.619762 3.0853555,8.260492 3.3828125,7.814306 3.5315411,7.516849 3.7552774,7.26847 4.0527344,7.070166 h 0.78125 c 0.1239406,0.446185 0.2964381,0.669922 0.5195312,0.669922 0.2726685,0 1.1410178,-0.730863 2.6035156,-2.1933599 z M 4.2011719,8.595556 3.7929688,9.003759 C 2.9997495,9.102909 2.6035156,9.474504 2.6035156,10.118994 L 3.2714844,10.007666 C 3.6185173,9.784573 3.8299322,9.499229 3.9042969,9.152197 L 4.2382812,8.818213 Z m 4.7519531,9.1875 3.698622,2.865235 H 9.0644531 Z"
     sodipodi:nodetypes="sccscccsccscsccccccccccccccccccccccccsccsccccccccccccscssccsscccscccscccccccccccc" />
  <g
     id="path1" />
</svg>
