<?xml version="1.0" encoding="UTF-8" standalone="no"?>
<svg
   width="23.322735"
   height="14.469024"
   id="svg3145"
   sodipodi:version="0.32"
   inkscape:version="1.3.2 (091e20e, 2023-11-25, custom)"
   sodipodi:docname="US11D238VARA.svg"
   inkscape:output_extension="org.inkscape.output.svg.inkscape"
   version="1.0"
   xmlns:inkscape="http://www.inkscape.org/namespaces/inkscape"
   xmlns:sodipodi="http://sodipodi.sourceforge.net/DTD/sodipodi-0.dtd"
   xmlns="http://www.w3.org/2000/svg"
   xmlns:svg="http://www.w3.org/2000/svg"
   xmlns:rdf="http://www.w3.org/1999/02/22-rdf-syntax-ns#"
   xmlns:cc="http://creativecommons.org/ns#"
   xmlns:dc="http://purl.org/dc/elements/1.1/">
  <metadata
     id="metadata3152">
    <rdf:RDF>
      <cc:Work
         rdf:about="">
        <dc:format>image/svg+xml</dc:format>
        <dc:type
           rdf:resource="http://purl.org/dc/dcmitype/StillImage" />
      </cc:Work>
    </rdf:RDF>
  </metadata>
  <defs
     id="defs3150">
    <inkscape:perspective
       sodipodi:type="inkscape:persp3d"
       inkscape:vp_x="0 : 5.4000001 : 1"
       inkscape:vp_y="0 : 1000 : 0"
       inkscape:vp_z="23.438807 : 5.4000001 : 1"
       inkscape:persp3d-origin="11.719403 : 3.6000001 : 1"
       id="perspective3154" />
  </defs>
  <sodipodi:namedview
     inkscape:window-height="932"
     inkscape:window-width="1245"
     inkscape:pageshadow="2"
     inkscape:pageopacity="0.0"
     guidetolerance="10.0"
     gridtolerance="10.0"
     objecttolerance="10.0"
     borderopacity="1.0"
     bordercolor="#666666"
     pagecolor="#ffffff"
     id="base"
     showgrid="false"
     inkscape:zoom="19.671762"
     inkscape:cx="1.3471086"
     inkscape:cy="11.005623"
     inkscape:window-x="0"
     inkscape:window-y="26"
     inkscape:current-layer="svg3145"
     inkscape:showpageshadow="2"
     inkscape:pagecheckerboard="0"
     inkscape:deskcolor="#d1d1d1"
     inkscape:window-maximized="0" />
  <path
     id="path3147"
     style="fill:#000000;stroke:none"
     d="M 20.833984,1.8535155 C 18.36485,3.6615698 17.191618,7.6766882 15.367188,10.837891 14.308265,10.726598 9.7274603,11.114117 5.4609375,11.994141 4.9393899,12.040281 4.9440653,11.748113 4.0820312,11.181641 3.8535507,10.892671 3.4937075,10.894466 3.1992188,10.775391 3.4501068,9.9973295 3.7265189,9.1944348 3.9980469,8.390625 4.4484755,7.0569103 4.8613417,5.7459575 4.9785156,4.7480469 5.0419001,4.2087597 5.0218107,3.7563904 4.8925781,3.4003906 4.7569414,3.0264643 4.5105785,2.7622998 4.1230469,2.671875 4.1153469,2.670285 4.0887559,2.663945 4.0800779,2.662105 4.0724479,2.660085 4.0681679,2.657985 4.0605469,2.656245 3.9651191,2.633956 3.8731887,2.6256664 3.7851562,2.6289062 3.5210593,2.6386276 3.2888531,2.7589297 3.0878906,2.96875 2.8328,3.2350661 2.6292029,3.6510067 2.4785156,4.1699219 2.1997186,5.1301202 2.0702494,6.486177 1.9648438,7.9003906 1.8994318,8.779505 1.7756369,9.9119001 1.6953125,10.775391 H 1.6582031 0.62695312 c -0.71500808,0.02252 -0.82018065,0.617281 -0.46875,1.0625 0.25614529,0.09164 0.37287152,0.172416 0.375,0.3125 0.00928,0.611269 0.0909994,1.181116 0.21875,1.625 0.12774957,0.443881 0.36217428,0.661667 0.71874998,0.65625 0.010523,-3.04e-4 0.020728,2.92e-4 0.03125,0 0.7949418,0.200974 1.7890625,-0.1875 1.7890625,-0.1875 0.7477261,-0.198039 0.4006592,-0.301644 1.2636719,-0.5 2.424837,0.307086 4.6048201,0.376577 6.5312505,0.15625 1.926421,-0.22033 5.242848,-0.656441 6.125,-1.28125 2.188773,-2.9137789 5.486949,-6.3222871 5.341796,-10.1093754 -0.04053,-0.1522376 -0.09516,-0.2705206 -0.1875,-0.375 C 22.223537,1.9744446 21.852943,1.461267 20.833984,1.8535155 Z M 21.560547,2.5625 c 0.169854,0.013724 0.230991,0.1921353 0.22065,0.7207031 -0.559191,3.0772267 -3.754674,6.8384189 -5.152343,8.7050779 -3.179899,0.832711 -5.111261,0.954602 -10.5175259,1.265625 -0.067292,0.0031 -0.6472378,-0.205037 -1.3829705,-0.215967 -1.3727221,-0.02034 -2.2983024,0.737746 -3.0986156,0.609658 -0.2626949,-0.04204 -0.5654094,-1.630791 -0.1532353,-1.823636 1.2867511,-0.602037 2.2571052,0.368975 3.4163745,0.937275 0.42948,0.210541 0.8245952,-0.01163 0.8836347,-0.01704 3.4045934,-0.80438 7.1898191,-0.879609 10.2762711,-1.111331 1.506882,-3.1125515 3.993903,-8.2448958 4.941406,-8.80474 0.219594,-0.1283866 0.396499,-0.2793491 0.566354,-0.265625 z m -18.0350768,1 C 3.7221954,3.0939784 4.2497327,3.0316817 4.4111394,3.660156 4.4786918,5.7874892 3.1005601,8.6416112 2.6797585,10.765602 L 2.3196826,10.74821 C 2.7131054,8.6474393 2.5116611,5.4279517 3.5254702,3.5625 Z"
     sodipodi:nodetypes="ccccccccccccccccccccscccccccscscccsssscccsccccc" />
  <rect
     style="fill:none;fill-opacity:1;stroke:#ff0000;stroke-width:0.46598;stroke-miterlimit:4;stroke-dasharray:none;stroke-opacity:1"
     id="zone2"
     width="9.6715908"
     height="8.3606758"
     x="5.6962161"
     y="0.67570901"
     inkscape:label="gravity:t" />
  <g
     id="path1">
    <path
       style="color:#000000;fill:#000000;fill-opacity:0;-inkscape-stroke:none"
       d="m 8.0517402,13.012187 7.6922878,-0.934577 3.4148,-4.6728846 2.228607,-4.3493776"
       id="path2" />
  </g>
  <g
     id="path4">
    <path
       style="color:#000000;fill:#ffffff;fill-opacity:0;-inkscape-stroke:none"
       d="m 2.6942172,9.938103 1.24544,-6.2780344 v 0.050834"
       id="path5" />
  </g>
</svg>
