<?xml version="1.0" encoding="UTF-8" standalone="no"?>
<svg
   width="17.226"
   height="17.977417"
   version="1.1"
   id="svg1"
   sodipodi:docname="US11V4VARB.svg"
   inkscape:version="1.3.2 (091e20e, 2023-11-25, custom)"
   xmlns:inkscape="http://www.inkscape.org/namespaces/inkscape"
   xmlns:sodipodi="http://sodipodi.sourceforge.net/DTD/sodipodi-0.dtd"
   xmlns="http://www.w3.org/2000/svg"
   xmlns:svg="http://www.w3.org/2000/svg">
  <defs
     id="defs1" />
  <sodipodi:namedview
     id="namedview1"
     pagecolor="#ffffff"
     bordercolor="#000000"
     borderopacity="0.25"
     inkscape:showpageshadow="2"
     inkscape:pageopacity="0.0"
     inkscape:pagecheckerboard="0"
     inkscape:deskcolor="#d1d1d1"
     inkscape:zoom="41.774633"
     inkscape:cx="14.578225"
     inkscape:cy="11.957017"
     inkscape:window-width="1920"
     inkscape:window-height="986"
     inkscape:window-x="-11"
     inkscape:window-y="-11"
     inkscape:window-maximized="1"
     inkscape:current-layer="svg1" />
  <path
     id="path1-4"
     style="fill:#000000;stroke:none"
     d="M 9.109375 0 C 8.2361615 -0.019598596 7.4169021 0.13580337 6.6503906 0.46679688 C 5.7743775 0.84507517 5.1333399 1.4767252 4.7285156 2.359375 C 4.3236913 3.2420248 4.0608621 4.5647792 3.9414062 6.3300781 L 3.9414062 9.0390625 C 2.9990285 8.7603308 1.9018608 7.6328334 0.43164062 6.9277344 L -0.14453125 7.6523438 C 1.5570111 8.4001033 3.0325892 9.729248 3.921875 10.273438 L 3.9023438 10.273438 C 3.3050616 11.295453 2.8904789 12.124618 2.6582031 12.761719 C 2.4259267 13.398819 2.2835597 14.041033 2.2304688 14.691406 C 2.2171955 15.501054 2.3658207 16.115106 2.6777344 16.533203 C 2.9896481 16.9513 3.5434678 17.160156 4.3398438 17.160156 C 5.1229463 17.160156 5.6705082 16.9513 5.9824219 16.533203 C 6.2943356 16.115106 6.4449136 15.501054 6.4316406 14.691406 C 6.3785494 14.041033 6.2342289 13.398819 6.0019531 12.761719 C 5.7696767 12.124618 5.4423124 11.368201 5.0175781 10.492188 L 5.7929688 9.7949219 C 7.2521022 8.7397893 8.7513269 8.1888269 8.7773438 8.2148438 L 8.2558594 7.6191406 C 7.54433 7.5566797 6.1477267 8.582466 4.9980469 9.2128906 L 4.9980469 6.4101562 C 5.0776848 3.689207 5.6647494 2.0496502 6.7597656 1.4921875 C 7.8547818 0.93472473 8.910403 0.71961058 9.9257812 0.84570312 C 10.94116 0.97179567 11.749597 1.5256162 12.353516 2.5078125 C 12.957434 3.4900095 13.302398 5.0235727 13.388672 7.1074219 C 13.474947 9.1912705 13.532048 11.242281 13.558594 13.259766 C 13.850597 15.197613 14.507276 16.768727 15.529297 17.976562 C 16.308316 18.023175 16.254962 17.685418 16.226562 17.359375 C 15.244365 16.098447 14.645961 14.769015 14.433594 13.322266 C 15.343689 14.613888 16.18254 15.035053 17.066406 15.376953 C 17.406572 15.261758 17.405718 14.87597 17.291016 14.5625 C 16.004717 14.386543 14.456706 12.315835 14.410156 11.791016 C 14.402996 11.710284 14.391062 11.31265 14.380859 11.039062 C 15.247461 12.20834 16.05343 12.615736 16.900391 12.943359 C 17.240556 12.828164 17.239702 12.444329 17.125 12.130859 C 15.993205 11.976038 14.660168 10.354197 14.324219 9.609375 C 14.235062 7.4275359 14.060989 4.308152 13.677734 3.4042969 C 13.182858 2.2371957 12.751516 1.3496959 12.054688 0.86523438 C 11.357859 0.38077219 10.501706 0.0991685 9.4863281 0.01953125 C 9.3594058 0.00957651 9.2341198 0.0027997994 9.109375 0 z M 4.3398438 11.804688 C 4.830942 12.070146 5.2028924 12.93451 5.4550781 14.394531 C 5.574534 15.536003 5.2025836 16.105469 4.3398438 16.105469 C 3.4638306 16.105469 3.0856215 15.536003 3.2050781 14.394531 C 3.4572632 12.93451 3.8354723 12.070146 4.3398438 11.804688 z " />
</svg>
