<?xml version="1.0" encoding="UTF-8" standalone="no"?>
<svg
   width="19.763315"
   height="5.52"
   version="1.1"
   id="svg1"
   sodipodi:docname="US11X4VARA.svg"
   inkscape:version="1.3.2 (091e20e, 2023-11-25, custom)"
   xmlns:inkscape="http://www.inkscape.org/namespaces/inkscape"
   xmlns:sodipodi="http://sodipodi.sourceforge.net/DTD/sodipodi-0.dtd"
   xmlns="http://www.w3.org/2000/svg"
   xmlns:svg="http://www.w3.org/2000/svg">
  <defs
     id="defs1" />
  <sodipodi:namedview
     id="namedview1"
     pagecolor="#ffffff"
     bordercolor="#000000"
     borderopacity="0.25"
     inkscape:showpageshadow="2"
     inkscape:pageopacity="0.0"
     inkscape:pagecheckerboard="0"
     inkscape:deskcolor="#d1d1d1"
     inkscape:zoom="62.641312"
     inkscape:cx="9.8736757"
     inkscape:cy="2.7537737"
     inkscape:window-width="1920"
     inkscape:window-height="986"
     inkscape:window-x="-11"
     inkscape:window-y="-11"
     inkscape:window-maximized="1"
     inkscape:current-layer="svg1" />
  <path
     style="fill:#000000;stroke:none"
     d="m 10.81119,4.719171 1.261148,-3.918342 h 3.744034 c 2.02114,0 3.03171,0.64829 3.03171,1.94487 0,1.315648 -1.01057,1.973472 -3.03171,1.973472 z M 11.25289,0.80480302 9.9917415,4.7311609 8.415893,4.6721013 9.639888,0.8107406 Z M 3.946942,4.719171 c -2.02114,0 -3.03171,-0.657824 -3.03171,-1.973472 0,-1.29658 1.01057,-1.94487 3.03171,-1.94487 v 0 h 4.87747 L 7.563263,4.719171 Z M 3.946942,0 C 1.315647,0.01906733 0,0.94383433 0,2.774301 0,4.604767 1.315647,5.52 3.946942,5.52 h 11.86943 c 2.631295,0 3.946943,-0.915233 3.946943,-2.745699 0,-1.83046667 -1.315648,-2.75523367 -3.946943,-2.774301 z"
     id="path1"
     sodipodi:nodetypes="ccsssccccccssscccscsssscc" />
</svg>
