<?xml version="1.0" encoding="UTF-8" standalone="no"?>
<svg
   width="1033.5625"
   height="1200"
   id="svg2"
   version="1.1"
   inkscape:version="1.3.2 (091e20e, 2023-11-25, custom)"
   sodipodi:docname="US11R7VARB.svg"
   xmlns:inkscape="http://www.inkscape.org/namespaces/inkscape"
   xmlns:sodipodi="http://sodipodi.sourceforge.net/DTD/sodipodi-0.dtd"
   xmlns="http://www.w3.org/2000/svg"
   xmlns:svg="http://www.w3.org/2000/svg"
   xmlns:rdf="http://www.w3.org/1999/02/22-rdf-syntax-ns#"
   xmlns:cc="http://creativecommons.org/ns#"
   xmlns:dc="http://purl.org/dc/elements/1.1/">
  <metadata
     id="metadata10">
    <rdf:RDF>
      <cc:Work
         rdf:about="">
        <dc:format>image/svg+xml</dc:format>
        <dc:type
           rdf:resource="http://purl.org/dc/dcmitype/StillImage" />
      </cc:Work>
    </rdf:RDF>
  </metadata>
  <defs
     id="defs8">
    <linearGradient
       id="linearGradient1"
       inkscape:swatch="gradient">
      <stop
         style="stop-color:#000000;stop-opacity:1;"
         offset="0"
         id="stop2" />
      <stop
         style="stop-color:#000000;stop-opacity:0;"
         offset="1"
         id="stop3" />
    </linearGradient>
    <linearGradient
       id="swatch1"
       inkscape:swatch="solid">
      <stop
         style="stop-color:#000000;stop-opacity:1;"
         offset="0"
         id="stop1" />
    </linearGradient>
  </defs>
  <sodipodi:namedview
     pagecolor="#ffffff"
     bordercolor="#666666"
     borderopacity="1"
     objecttolerance="10"
     gridtolerance="10"
     guidetolerance="10"
     inkscape:pageopacity="0"
     inkscape:pageshadow="2"
     inkscape:window-width="1920"
     inkscape:window-height="986"
     id="namedview6"
     showgrid="false"
     fit-margin-top="0"
     fit-margin-left="0"
     fit-margin-right="0"
     fit-margin-bottom="0"
     inkscape:snap-grids="true"
     inkscape:zoom="0.55505133"
     inkscape:cx="545.89546"
     inkscape:cy="716.14998"
     inkscape:window-x="-11"
     inkscape:window-y="-11"
     inkscape:window-maximized="1"
     inkscape:current-layer="svg2"
     inkscape:showpageshadow="2"
     inkscape:pagecheckerboard="0"
     inkscape:deskcolor="#d1d1d1"
     showguides="true">
    <inkscape:grid
       type="xygrid"
       id="grid2991"
       empspacing="5"
       visible="false"
       enabled="true"
       snapvisiblegridlinesonly="true"
       originx="0"
       originy="0"
       spacingy="1"
       spacingx="1"
       units="px" />
    <sodipodi:guide
       position="503.20964,845.84233"
       orientation="1,0"
       id="guide6"
       inkscape:locked="false" />
  </sodipodi:namedview>
  <g
     id="path1"
     transform="translate(-42,448)">
    <g
       id="g1">
      <path
         id="path5"
         style="color:#000000;display:inline;fill:#000000;stroke-width:1.2297;-inkscape-stroke:none"
         d="m 543.84766,-419.87695 c -48.4111,0 -92.22486,24.13443 -123.90235,63.08398 -31.6775,38.94955 -51.25,92.72055 -51.25,152.10352 0,59.38299 19.5725,113.155916 51.25,152.105466 21.31804,30.595291 22.95215,31.729398 38.77735,49.3105465 L 42,-2 c 73.5633,249.99029 147.08381,499.99401 220.59375,750 h 592.375 C 928.47863,497.99399 1001.9994,247.99034 1075.5625,-2 l -444.125,-1.2734375 c 32.56171,-27.7286315 33.41516,-28.6267535 48.02344,-49.3105465 31.6775,-38.94955 39.53711,-92.722476 39.53711,-152.105466 0,-59.38297 -19.57055,-113.15397 -51.24805,-152.10352 -31.67749,-38.94955 -75.49126,-63.08398 -123.90234,-63.08398 z m 0,77.875 c 25.44519,0.26671 52.49995,12.80699 69.37695,31.85156 24.27187,27.38918 32.84924,67.96964 33.47851,104.56055 0.58648,34.10207 -6.32732,71.99141 -27.83203,98.46484 -16.91755,20.826407 -48.49862,37.430336 -75.33007,37.302734 -26.56718,-0.126344 -49.8305,-18.244729 -66.27149,-37.605464 -22.98895,-27.07155 -37.15001,-64.44832 -36.875,-99.96289 0.29832,-38.52392 14.99043,-80.01271 41.67383,-107.80079 15.5484,-16.19209 39.33199,-27.04583 61.7793,-26.81054 z M 135.53125,68 h 846.5 l -179.4375,610 h -487.625 z" />
    </g>
  </g>
</svg>
