<?xml version="1.0" encoding="UTF-8" standalone="no"?>
<svg
   width="10.502062"
   height="17.977417"
   version="1.1"
   id="svg1"
   sodipodi:docname="US11O21VARB.svg"
   inkscape:version="1.3.2 (091e20e, 2023-11-25, custom)"
   xmlns:inkscape="http://www.inkscape.org/namespaces/inkscape"
   xmlns:sodipodi="http://sodipodi.sourceforge.net/DTD/sodipodi-0.dtd"
   xmlns="http://www.w3.org/2000/svg"
   xmlns:svg="http://www.w3.org/2000/svg">
  <defs
     id="defs1" />
  <sodipodi:namedview
     id="namedview1"
     pagecolor="#ffffff"
     bordercolor="#000000"
     borderopacity="0.25"
     inkscape:showpageshadow="2"
     inkscape:pageopacity="0.0"
     inkscape:pagecheckerboard="0"
     inkscape:deskcolor="#d1d1d1"
     inkscape:zoom="14.769563"
     inkscape:cx="5.7212254"
     inkscape:cy="12.898147"
     inkscape:window-width="1920"
     inkscape:window-height="986"
     inkscape:window-x="-11"
     inkscape:window-y="-11"
     inkscape:window-maximized="1"
     inkscape:current-layer="svg1" />
  <path
     style="fill:#000000;stroke:none"
     d="M 2.3309094,0.670344 2.2344814,3.3972442 H 3.7285157 L 3.7524537,0.67159552 Z M 8.226954,3.959269 8.247267,3.126417 8.1987145,0.670344 4.3509026,0.671596 c 0.00191,0.006987 0,3.4986553 0,3.4986553 H 2.254795 L 1.128424,16.088264 h 5.6422569 v -4 h 2.1861938 z m 0.7453277,8.854283 -1.51961,0.01676 0.012004,3.257949 h 1.7771726 z m -8.75896156,4.016154 c 0,0 1.28822226,-14.0594605 1.31018986,-14.128015 C 1.428714,1.929779 1.7079634,1.2526633 1.3558634,0.670344 H 0.446896 C 0.14896533,0.670344 0,0.55523433 0,0.325015 0,0.10833833 0.14896533,0 0.446896,0 h 9.587956 c 0.311473,0 0.46721,0.10833833 0.46721,0.325015 0,0.23021933 -0.155737,0.345329 -0.46721,0.345329 H 9.1737615 C 8.8216609,1.2526633 9.0530343,1.929779 8.958239,2.701691 c 0,0 1.208035,14.159187 1.174776,14.128015 z"
     id="path1"
     sodipodi:nodetypes="ccccccccccccccccccccccccsssssscccc" />
</svg>
