<?xml version="1.0" encoding="UTF-8" standalone="no"?>
<!-- Created with Inkscape (http://www.inkscape.org/) -->

<svg
   id="svg1342"
   sodipodi:version="0.32"
   inkscape:version="1.3.2 (091e20e, 2023-11-25, custom)"
   width="11.28pt"
   height="10.89pt"
   version="1.0"
   sodipodi:docname="US11M36VARC.svg"
   xmlns:inkscape="http://www.inkscape.org/namespaces/inkscape"
   xmlns:sodipodi="http://sodipodi.sourceforge.net/DTD/sodipodi-0.dtd"
   xmlns="http://www.w3.org/2000/svg"
   xmlns:svg="http://www.w3.org/2000/svg"
   xmlns:rdf="http://www.w3.org/1999/02/22-rdf-syntax-ns#"
   xmlns:cc="http://creativecommons.org/ns#"
   xmlns:dc="http://purl.org/dc/elements/1.1/">
  <metadata
     id="metadata1347">
    <rdf:RDF>
      <cc:Work
         rdf:about="">
        <dc:format>image/svg+xml</dc:format>
        <dc:type
           rdf:resource="http://purl.org/dc/dcmitype/StillImage" />
        <dc:creator>
          <cc:Agent>
            <dc:title>Serge Thomas</dc:title>
          </cc:Agent>
        </dc:creator>
        <dc:publisher>
          <cc:Agent>
            <dc:title>Serge Rosmorduc</dc:title>
          </cc:Agent>
        </dc:publisher>
        <dc:date>18/03/06</dc:date>
        <dc:description>KV57
valeur phonétique :Dr</dc:description>
        <cc:license
           rdf:resource="http://creativecommons.org/licenses/GPL/2.0/" />
      </cc:Work>
      <cc:License
         rdf:about="http://creativecommons.org/licenses/GPL/2.0/">
        <cc:permits
           rdf:resource="http://web.resource.org/cc/Reproduction" />
        <cc:permits
           rdf:resource="http://web.resource.org/cc/Distribution" />
        <cc:requires
           rdf:resource="http://web.resource.org/cc/Notice" />
        <cc:permits
           rdf:resource="http://web.resource.org/cc/DerivativeWorks" />
        <cc:requires
           rdf:resource="http://web.resource.org/cc/ShareAlike" />
        <cc:requires
           rdf:resource="http://web.resource.org/cc/SourceCode" />
      </cc:License>
    </rdf:RDF>
  </metadata>
  <defs
     id="defs1345" />
  <sodipodi:namedview
     inkscape:window-height="986"
     inkscape:window-width="1920"
     inkscape:pageshadow="2"
     inkscape:pageopacity="0.0"
     borderopacity="1.0"
     bordercolor="#666666"
     pagecolor="#ffffff"
     id="base"
     inkscape:zoom="64"
     inkscape:cx="8.8984375"
     inkscape:cy="10.195312"
     inkscape:window-x="-11"
     inkscape:window-y="-11"
     inkscape:current-layer="svg1342"
     inkscape:showpageshadow="2"
     inkscape:pagecheckerboard="0"
     inkscape:deskcolor="#d1d1d1"
     inkscape:document-units="pt"
     inkscape:window-maximized="1"
     showgrid="false" />
  <path
     id="path1335"
     style="fill:#000000;stroke:none"
     d="m 2.7089844,5.4277344 -0.013672,1.4511718 c -0.8215551,0.00745 -1.2556251,0.012979 -1.6722403,0.019531 L 1.0386972,5.46875 0.39416597,5.4589844 0.3804941,6.9257812 h 0.005859 c 0.20422027,1.2002842 0.54239868,2.905636 0.6761465,3.6015628 0.2790554,1.452001 0.1272002,1.438885 0.265625,3.814453 l 0.00977,0.169922 0.171875,0.0039 5.9667969,0.0039 0.3339844,-0.0078 c 0.1340138,-1.325581 0.1349594,-3.227362 0.2711299,-3.976563 0.096045,-0.0051 0.6632234,1.453083 0.6408619,2.652352 0,0 0.4898205,-0.06805 0.4936688,-0.0631 0.172418,0.22168 -0.3073175,-2.022061 -0.5528911,-2.389123 0.7286419,0.475609 1.1806555,1.81734 1.2448867,2.354556 L 10.349609,12.972656 C 10.313128,12.074759 9.4402746,10.409692 8.7480469,10.185547 9.651907,9.5396303 10.365521,8.5924776 10.412109,8.2949219 L 9.8925781,8.1738281 C 9.8632982,8.3610179 9.6696526,9.0866639 8.3984375,9.7851562 h -0.00195 L 8.12305,9.8769532 c -0.00391,-1.4770504 -0.0017,-2.9540696 0.0039,-4.4311053 L 7.4824219,5.4360823 7.46875,6.9160156 C 7.0106557,6.8914615 6.3572075,6.8787942 5.6308594,6.8730469 L 5.6464844,5.4375 5.0019531,5.4277344 4.9882812,6.8710938 C 4.4365917,6.869776 3.8842169,6.8713772 3.3378906,6.875 L 3.3535156,5.4375 Z M 7.4921875,7.3613281 C 7.6541011,9.6490394 7.4492745,11.845066 7.2910156,14.052734 L 1.8417969,14.039062 C 1.7214352,12.094925 1.8271094,11.495172 1.6328125,10.425781 1.3612139,8.9309309 0.9921875,7.3828125 0.9921875,7.3828125 c 0,0 5.5246173,-0.01443 6.5,-0.021484 z"
     sodipodi:nodetypes="cccccccscccccccsccccccccccccccccccccccscc" />
  <g
     id="path4">
    <path
       style="color:#000000;fill:#ffffff;fill-opacity:0;-inkscape-stroke:none"
       d="M 7.8601609,5.5283646 7.8447186,6.9953888"
       id="path5" />
  </g>
  <g
     id="path4-5"
     transform="translate(-2.4809287,-0.09480482)">
    <path
       style="color:#000000;fill:#ffffff;fill-opacity:0;-inkscape-stroke:none"
       d="M 7.8601609,5.5283646 7.8447186,6.9953888"
       id="path5-0" />
  </g>
  <g
     id="path4-1"
     transform="translate(-7.1749818,-0.06392008)">
    <path
       style="color:#000000;fill:#ffffff;fill-opacity:0;-inkscape-stroke:none"
       d="M 7.8601609,5.5283646 7.8447186,6.9953888"
       id="path5-9" />
  </g>
  <g
     id="path4-16"
     transform="translate(-4.7743343,-0.09480482)">
    <path
       style="color:#000000;fill:#ffffff;fill-opacity:0;-inkscape-stroke:none"
       d="M 7.8601609,5.5283646 7.8447186,6.9953888"
       id="path5-7" />
  </g>
</svg>
