<?xml version="1.0" encoding="UTF-8" standalone="no"?>
<svg
   width="10.629436"
   height="17.972734"
   version="1.1"
   id="svg1"
   sodipodi:docname="US11C1VARA.svg"
   inkscape:version="1.3.2 (091e20e, 2023-11-25, custom)"
   xmlns:inkscape="http://www.inkscape.org/namespaces/inkscape"
   xmlns:sodipodi="http://sodipodi.sourceforge.net/DTD/sodipodi-0.dtd"
   xmlns="http://www.w3.org/2000/svg"
   xmlns:svg="http://www.w3.org/2000/svg">
  <defs
     id="defs1" />
  <sodipodi:namedview
     id="namedview1"
     pagecolor="#ffffff"
     bordercolor="#000000"
     borderopacity="0.25"
     inkscape:showpageshadow="2"
     inkscape:pageopacity="0.0"
     inkscape:pagecheckerboard="0"
     inkscape:deskcolor="#d1d1d1"
     inkscape:zoom="29.546822"
     inkscape:cx="5.2289887"
     inkscape:cy="6.9550626"
     inkscape:window-width="1920"
     inkscape:window-height="986"
     inkscape:window-x="-11"
     inkscape:window-y="-11"
     inkscape:window-maximized="1"
     inkscape:current-layer="svg1" />
  <path
     style="fill:#000000;stroke:none"
     d="M 6.412801,7.663501 C 6.4888277,6.857617 6.6941,6.2836147 7.028618,5.941494 7.363136,5.5993733 7.465772,5.3408823 7.336526,5.166021 7.2072807,4.991159 7.028618,5.0177683 6.800538,5.245849 6.3899933,4.8961257 5.895819,4.698456 5.318015,4.65284 5.2571937,4.9113307 5.1659617,5.1090003 5.044319,5.245849 4.9226757,5.382697 4.8010327,5.572764 4.67939,5.81605 L 5.021511,5.998514 C 5.036716,6.5002907 5.2229817,6.7397753 5.580307,6.716968 5.937633,6.694159 6.1505083,6.770186 6.218933,6.945048 6.287356,7.1199093 6.351979,7.3593937 6.412801,7.663501 Z M 7.826899,17.402533 7.325122,17.10603 C 7.7812827,15.767958 8.032171,13.943315 8.077787,11.6321 8.1234037,9.3208847 8.0549797,8.1462703 7.872515,8.108257 7.690051,8.0702443 7.568408,8.5834253 7.507586,9.6478 H 6.389993 V 8.25651 C 5.8273943,9.7466347 5.4928763,12.042644 5.386439,15.144538 H 4.725006 l -2.668541,-3.60367 c -0.3953393,-0.62342 -0.7450623,-0.832494 -1.049169,-0.627221 -0.30410733,0.205272 -0.18246467,0.764069 0.364928,1.67639 0.5473933,0.912322 1.0415677,2.334023 1.482523,4.265104 L 1.554689,17.402533 Z M 8.602372,10.377658 H 8.944493 C 8.9901097,8.5378093 8.993911,7.2339497 8.955897,6.466079 8.9178837,5.6982083 8.739221,5.1051993 8.419909,4.687052 8.1005957,4.2689047 7.5912157,3.9876053 6.891769,3.843154 6.192323,3.6987033 5.7513677,3.839353 5.568903,4.265103 6.0858857,4.3411297 6.511636,4.500786 6.846154,4.744072 7.1350553,4.6224293 7.3821423,4.65284 7.587415,4.835304 7.792687,5.0177687 7.8421043,5.257253 7.735667,5.553757 7.6292297,5.8502617 7.442964,6.1353623 7.17687,6.409059 6.9107767,6.682755 6.77773,7.6178847 6.77773,9.214448 H 7.097042 C 7.1730687,8.0588407 7.4201557,7.4886397 7.838303,7.503845 8.256451,7.5190503 8.4959353,7.83076 8.556756,8.438974 Z M 5.295207,5.154617 C 5.4016443,4.8353043 5.736162,4.8581123 6.29876,5.223041 5.690546,5.4815317 5.3560283,5.4587237 5.295207,5.154617 Z M 5.751368,0.88738734 c 0,0.31931266 0.1292453,0.62722126 0.387736,0.92372596 0.2584913,0.2965047 0.5854067,0.444757 0.980746,0.444757 0.4409553,0 0.7868773,-0.144451 1.037766,-0.433353 0.250888,-0.288902 0.376332,-0.600612 0.376332,-0.93512996 0,-0.380134 -0.1482523,-0.70324767 -0.444757,-0.969341 -0.296504,-0.266094 -0.612015,-0.399141 -0.946533,-0.399141 -0.4105447,0 -0.7450627,0.1406497 -1.003554,0.421949 -0.2584907,0.28129867 -0.387736,0.59680967 -0.387736,0.946533 z M 9.058534,4.618628 C 9.2562033,5.02157 9.3854487,5.4891347 9.44627,6.021322 v 4.835305 H 8.62518 c 0.076027,2.037518 -0.098834,4.021817 -0.524585,5.952898 l 1.071978,1.163209 H 0.687983 L 0.596751,17.197262 2.079273,16.581444 C 1.6991397,15.076113 1.2467803,13.836877 0.722195,12.863734 0.19761033,11.890591 -0.041874,11.26337 0.003742,10.982071 0.049358,10.700772 0.285041,10.44228 0.710791,10.206597 1.136541,9.9709143 1.6003047,10.058345 2.102082,10.46889 l 2.736964,3.672094 C 4.9606893,11.145528 5.3560287,9.031983 6.025064,7.800349 6.025064,7.2681617 5.8502023,7.024876 5.500479,7.070492 L 4.656582,8.689862 C 4.2612427,9.3893093 3.797479,9.5185553 3.265291,9.0776 3.3109077,8.87993 3.413544,8.803903 3.5732,8.849519 3.732856,8.895135 3.8963137,8.8343137 4.063573,8.667055 L 4.770622,6.86522 C 4.7858273,6.4090587 4.6869927,6.146766 4.474118,6.078342 4.2612427,6.009918 4.287852,5.785639 4.553946,5.405505 4.8200393,5.025371 4.9454833,4.7820853 4.930278,4.675648 5.082332,4.1434607 5.5291692,3.1931964 6.900197,3.274411 8.5307089,3.5368354 8.860864,4.215686 9.058534,4.618628 Z M 4.656582,2.4383343 C 4.5349393,2.179843 4.420899,1.921352 4.314461,1.6628613 4.2080237,1.3739593 4.177613,1.1078653 4.223229,0.86457934 4.1015863,0.87978467 4.0103543,0.84937401 3.949533,0.77334734 c -0.030411,-0.091232 0.0076,-0.16725867 0.11404,-0.22808 0.1064373,-0.0760273 0.281299,-0.0912327 0.524585,-0.045616 0.3193127,0.12164267 0.456161,0.41054433 0.410545,0.86670496 -0.015206,0.3041073 -0.015206,0.5169823 0,0.638625 0.015205,0.1216427 0.079828,0.1938683 0.193868,0.216677 0.11404,0.022808 0.2014707,-0.087431 0.262292,-0.330717 -0.1976693,-0.243286 -0.296504,-0.577804 -0.296504,-1.00355396 0,-0.48657133 0.182464,-0.92752667 0.547392,-1.322866 0.3649293,-0.39533931 0.8438983,-0.60061174 1.436907,-0.61581704 0.5321873,0.015205 0.9959507,0.20527233 1.39129,0.57020104 0.3953393,0.3649287 0.593009,0.82108933 0.593009,1.368482 C 9.157368,1.0546467 9.142163,1.2295083 9.081342,1.4119723 9.157368,1.7616956 9.317024,2.042995 9.56031,2.2558703 9.8340067,2.514361 10.107703,2.750044 10.381399,2.9629193 10.594274,3.2670266 10.670301,3.4799016 10.60948,3.6015443 9.5603107,2.962919 8.936891,2.4535393 8.739221,2.0734053 8.5297651,2.3831691 8.0974762,2.7465539 7.1215656,2.8273916 6.0438143,2.7582895 5.8038312,2.307221 5.8038312,2.307221 5.5000967,2.7430138 4.8186173,2.7000843 4.656582,2.4383343 Z"
     id="path1"
     sodipodi:nodetypes="cssccsccsscccssccccccsscccccsssccsssccscccccssssssssssccccccccsssccccccsccssccscccccccsscsscscccccccsc" />
</svg>
