<?xml version="1.0" encoding="UTF-8" standalone="no"?>
<svg
   width="22.580719"
   height="6.823597"
   version="1.1"
   id="svg1"
   sodipodi:docname="US11D36VARA.svg"
   inkscape:version="1.3.2 (091e20e, 2023-11-25, custom)"
   xmlns:inkscape="http://www.inkscape.org/namespaces/inkscape"
   xmlns:sodipodi="http://sodipodi.sourceforge.net/DTD/sodipodi-0.dtd"
   xmlns="http://www.w3.org/2000/svg"
   xmlns:svg="http://www.w3.org/2000/svg">
  <defs
     id="defs1" />
  <sodipodi:namedview
     id="namedview1"
     pagecolor="#ffffff"
     bordercolor="#000000"
     borderopacity="0.25"
     inkscape:showpageshadow="2"
     inkscape:pageopacity="0.0"
     inkscape:pagecheckerboard="0"
     inkscape:deskcolor="#d1d1d1"
     inkscape:zoom="46.189074"
     inkscape:cx="10.078141"
     inkscape:cy="3.4098973"
     inkscape:window-width="1920"
     inkscape:window-height="986"
     inkscape:window-x="-11"
     inkscape:window-y="-11"
     inkscape:window-maximized="1"
     inkscape:current-layer="svg1" />
  <path
     style="fill:#000000;stroke:none"
     d="m 16.527603,5.1538339 c 0.359137,-0.014963 0.695827,-1.436546 1.010072,-4.2647474 0.04489,-0.4339566 0.44892,-0.650935 1.212086,-0.650935 0.778129,0 1.174676,0.3666187 1.18964,1.0998554 v 5.476835 l -3.411798,-0.044893 v 0 L 4.3618475,6.8372879 2.9588297,6.7249507 C 1.7160748,7.000857 0.0618601,6.8073597 0.0169681,6.3434749 c 0,-0.5087773 0.2169783,-0.763166 0.650935,-0.763166 0.9594226,-0.1133714 1.060175,-0.1262279 2.3943764,-0.010348 0.067613,0.00587 1.3329356,-0.035299 3.05036,-0.034544 z m 1.234533,-0.022445 h 1.436546 v -3.793382 c 0,-0.329208 -0.157122,-0.4938124 -0.471367,-0.4938124 -0.314245,0 -0.478849,0.097266 -0.493812,0.2917988 z"
     id="path1"
     sodipodi:nodetypes="ccsccccccccsccccsscc" />
</svg>
