<?xml version="1.0" encoding="UTF-8" standalone="no"?>
<svg
   width="14.35pt"
   height="15.38pt"
   id="svg1333"
   sodipodi:version="0.32"
   inkscape:version="1.3.2 (091e20e, 2023-11-25, custom)"
   sodipodi:docname="US11M23VARB.svg"
   version="1.0"
   xmlns:inkscape="http://www.inkscape.org/namespaces/inkscape"
   xmlns:sodipodi="http://sodipodi.sourceforge.net/DTD/sodipodi-0.dtd"
   xmlns="http://www.w3.org/2000/svg"
   xmlns:svg="http://www.w3.org/2000/svg"
   xmlns:rdf="http://www.w3.org/1999/02/22-rdf-syntax-ns#"
   xmlns:cc="http://creativecommons.org/ns#"
   xmlns:dc="http://purl.org/dc/elements/1.1/">
  <metadata
     id="metadata1340">
    <rdf:RDF>
      <cc:Work
         rdf:about="">
        <dc:format>image/svg+xml</dc:format>
        <dc:type
           rdf:resource="http://purl.org/dc/dcmitype/StillImage" />
        <dc:date>2/03/06</dc:date>
        <dc:creator>
          <cc:Agent>
            <dc:title>SR &amp; ST</dc:title>
          </cc:Agent>
        </dc:creator>
        <dc:publisher>
          <cc:Agent>
            <dc:title>Serge Rosmorduc</dc:title>
          </cc:Agent>
        </dc:publisher>
        <dc:description>optimisation de signe de Jsesh M23 
valeur : sw</dc:description>
        <cc:license
           rdf:resource="http://creativecommons.org/licenses/GPL/2.0/" />
      </cc:Work>
      <cc:License
         rdf:about="http://creativecommons.org/licenses/GPL/2.0/">
        <cc:permits
           rdf:resource="http://web.resource.org/cc/Reproduction" />
        <cc:permits
           rdf:resource="http://web.resource.org/cc/Distribution" />
        <cc:requires
           rdf:resource="http://web.resource.org/cc/Notice" />
        <cc:permits
           rdf:resource="http://web.resource.org/cc/DerivativeWorks" />
        <cc:requires
           rdf:resource="http://web.resource.org/cc/ShareAlike" />
        <cc:requires
           rdf:resource="http://web.resource.org/cc/SourceCode" />
      </cc:License>
    </rdf:RDF>
  </metadata>
  <defs
     id="defs1338" />
  <sodipodi:namedview
     inkscape:window-height="825"
     inkscape:window-width="1693"
     inkscape:pageshadow="2"
     inkscape:pageopacity="0.0"
     borderopacity="1.0"
     bordercolor="#666666"
     pagecolor="#ffffff"
     id="base"
     inkscape:zoom="29.797767"
     inkscape:cx="4.5305408"
     inkscape:cy="9.0275221"
     inkscape:window-x="0"
     inkscape:window-y="0"
     inkscape:current-layer="svg1333"
     showguides="true"
     inkscape:guide-bbox="true"
     showgrid="false"
     inkscape:showpageshadow="2"
     inkscape:pagecheckerboard="0"
     inkscape:deskcolor="#d1d1d1"
     inkscape:document-units="pt"
     inkscape:window-maximized="0" />
  <path
     style="fill:#000000;stroke:none"
     d="M 0.71208764,1.2027968 C 0.23250863,1.3239791 0.52763069,1.902205 0.97501185,1.8241316 1.8182385,1.9211783 2.8563387,1.9748655 3.4933377,2.4527968 c 0.8450258,0.9210467 0.4653675,2.8351105 0.56375,3.74375 0.00705,0.048926 0.01,3.6708333 0.01,5.5062492 -1.1795262,-0.565138 -2.5791981,-0.72484 -3.84125006,-0.47125 -0.49574766,0.260415 0.2146175,0.603368 0.53976025,0.517986 1.23216711,0.133169 2.63315871,0.463302 3.25898981,1.609514 0.2047815,0.687178 -0.6933051,-0.119814 -1.0625,-0.0625 -0.8914016,-0.192534 -1.8568385,-0.226453 -2.74199935,-0.07355 -0.46916268,0.309721 0.22147177,0.59237 0.54550954,0.526536 1.25766601,0.151671 2.64940061,0.492625 3.25898981,1.640764 0.00696,1.27638 -3.885e-4,2.119914 0.03375,3.29375 -0.029283,0.719977 0.9323773,0.718377 0.9349999,0.01251 -0.0087,-1.156584 -0.091258,-2.171781 0.060397,-3.293638 0.3059056,-1.258579 2.4896044,-1.451726 3.8458533,-1.76262 0.3401264,-0.399866 -0.4799577,-0.510806 -0.8125,-0.46875 -1.0533557,-0.08077 -2.1477526,0.07542 -3.09375,0.5625 -0.032174,-0.758608 0.7148884,-1.195104 1.25,-1.5 0.8445459,-0.363231 1.7743297,-0.398896 2.65625,-0.59375 C 9.255947,11.330895 8.5741308,11.077029 8.2502036,11.149359 7.132296,11.041789 5.9809967,11.20666 4.9720877,11.702796 4.9887614,8.8376265 5.0351769,6.0647699 4.9529492,3.3544098 4.8869209,2.5163659 4.4040689,1.7471838 3.5918254,1.4965691 2.704638,1.0929775 1.6642125,1.0839462 0.71208764,1.2027968 Z"
     id="path1335"
     sodipodi:nodetypes="ccccccccccccccccccccccccc" />
  <path
     style="fill:#000000;stroke:none"
     d="m 10.858943,1.2481467 c -0.479579,0.1211823 -0.184457,0.6994082 0.262924,0.6213348 0.843227,0.097047 1.881327,0.1507339 2.518326,0.6286652 0.845026,0.9210467 0.465368,2.8351105 0.56375,3.74375 0.007,0.048926 0.01,3.6708333 0.01,5.5062493 -1.179526,-0.565138 -2.579198,-0.72484 -3.84125,-0.47125 -0.4957477,0.260415 0.214617,0.603368 0.53976,0.517986 1.232168,0.133169 2.633159,0.463302 3.25899,1.609514 0.204782,0.687178 -0.693305,-0.119814 -1.0625,-0.0625 -0.891401,-0.192534 -1.856838,-0.226453 -2.741999,-0.07355 -0.469163,0.309721 0.221471,0.59237 0.545509,0.526536 1.257666,0.151671 2.649401,0.492625 3.25899,1.640764 0.007,1.27638 -3.88e-4,2.119915 0.03375,3.293751 -0.02928,0.719977 0.932378,0.718377 0.935,0.01251 -0.0087,-1.156584 -0.09126,-2.171782 0.0604,-3.293639 0.305906,-1.258579 2.489605,-1.451726 3.845853,-1.76262 0.340127,-0.399866 -0.479957,-0.510806 -0.8125,-0.46875 -1.053355,-0.08077 -2.147752,0.07542 -3.09375,0.5625 -0.03217,-0.758608 0.714889,-1.195104 1.25,-1.5 0.844546,-0.363231 1.77433,-0.398896 2.65625,-0.59375 0.35636,-0.309403 -0.325457,-0.563269 -0.649384,-0.490939 -1.117907,-0.10757 -2.269207,0.0573 -3.278116,0.553437 0.01667,-2.8651696 0.06309,-5.6380262 -0.01914,-8.3483863 C 15.033776,2.5617158 14.550924,1.7925337 13.738681,1.541919 12.851494,1.1383274 11.811068,1.1292961 10.858943,1.2481467 Z"
     id="path1335-2"
     sodipodi:nodetypes="ccccccccccccccccccccccccc" />
</svg>
