<?xml version="1.0" encoding="UTF-8" standalone="no"?>
<svg
   width="8.62"
   height="17.98"
   version="1.1"
   id="svg1"
   sodipodi:docname="US11W59VARA.svg"
   inkscape:version="1.3.2 (091e20e, 2023-11-25, custom)"
   xmlns:inkscape="http://www.inkscape.org/namespaces/inkscape"
   xmlns:sodipodi="http://sodipodi.sourceforge.net/DTD/sodipodi-0.dtd"
   xmlns="http://www.w3.org/2000/svg"
   xmlns:svg="http://www.w3.org/2000/svg">
  <defs
     id="defs1" />
  <sodipodi:namedview
     id="namedview1"
     pagecolor="#ffffff"
     bordercolor="#000000"
     borderopacity="0.25"
     inkscape:showpageshadow="2"
     inkscape:pageopacity="0.0"
     inkscape:pagecheckerboard="0"
     inkscape:deskcolor="#d1d1d1"
     inkscape:zoom="5.2210791"
     inkscape:cx="4.7882822"
     inkscape:cy="11.779174"
     inkscape:window-width="1341"
     inkscape:window-height="1020"
     inkscape:window-x="-11"
     inkscape:window-y="6"
     inkscape:window-maximized="0"
     inkscape:current-layer="svg1"
     showguides="true" />
  <path
     style="fill:#000000;stroke:none"
     d="m 7.27,5.72 c 0.01,0.04 0.02,0.09 0.02,0.15 0,0.06 -0.01,0.1 -0.02,0.14 H 1.35 C 1.34,5.97 1.33,5.93 1.33,5.87 1.33,5.81 1.34,5.76 1.35,5.72 Z M 4.89,6.63 v 3.580443 l 0.29,0.02693 c 0.011302,-0.0339 1.0900192,0.195133 1.533622,0.522441 l -4.9051548,-0.0016 c 0,0 0.8106246,-0.349451 1.6291943,-0.531904 C 3.5277873,10.206183 3.6272188,10.21563 3.73,10.210443 V 6.63 Z m 2.1268504,4.892175 c 0.1377108,0.597353 -4.707e-4,1.174117 -0.1335787,1.726333 H 1.6012114 C 1.4827474,12.754203 1.3688258,12.14921 1.4407874,11.522175 Z M 6.7294141,14.003941 5.9391339,17.35 H 2.7724409 L 1.8666445,14.003941 Z M 1.25,5.11 c -0.4,0.03 -0.53,0.41 -0.54,0.76 0,0.36 0.15,0.7 0.53,0.76 H 3.11 V 9.6643009 C 2.0441977,9.8595782 1.0943495,10.749857 0.96472441,10.759813 H -1.3151968 c -0.21,0 0,0.762362 0,0.762362 v 0 H 0.8207874 C 0.7846166,12.04475 0.7935686,12.591801 0.98121143,13.248508 H -0.9527559 c -0.2,0 0.01,0.755433 0.01,0.755433 v 0 H 1.2366445 L 2.2724409,17.98 h 4.176693 l 0.9102802,-3.976059 h 2.1356253 v 0 c 0,0 0.21,-0.755433 0,-0.755433 h -1.981767 c 0.145308,-0.640403 0.2195282,-1.204389 0.1674369,-1.726333 H 9.867481 v 0 c 0,0 0.21,-0.762362 0,-0.762362 H 7.5198425 C 7.4782792,10.634419 6.5944104,9.7850235 5.5,9.6643009 V 6.63 H 7.37 C 7.76,6.57 7.91,6.23 7.91,5.87 7.9,5.52 7.77,5.14 7.37,5.11 Z"
     id="path1"
     sodipodi:nodetypes="csccscccccccscccccccccccccccccccsscccssccccccsscccssccccccc" />
</svg>
