<?xml version="1.0" encoding="UTF-8" standalone="no"?>
<!-- Created with Inkscape (http://www.inkscape.org/) -->

<svg
   id="svg1342"
   sodipodi:version="0.32"
   inkscape:version="1.3.2 (091e20e, 2023-11-25, custom)"
   width="11.28pt"
   height="10.89pt"
   version="1.0"
   sodipodi:docname="US11M36VARA.svg"
   xmlns:inkscape="http://www.inkscape.org/namespaces/inkscape"
   xmlns:sodipodi="http://sodipodi.sourceforge.net/DTD/sodipodi-0.dtd"
   xmlns="http://www.w3.org/2000/svg"
   xmlns:svg="http://www.w3.org/2000/svg"
   xmlns:rdf="http://www.w3.org/1999/02/22-rdf-syntax-ns#"
   xmlns:cc="http://creativecommons.org/ns#"
   xmlns:dc="http://purl.org/dc/elements/1.1/">
  <metadata
     id="metadata1347">
    <rdf:RDF>
      <cc:Work
         rdf:about="">
        <dc:format>image/svg+xml</dc:format>
        <dc:type
           rdf:resource="http://purl.org/dc/dcmitype/StillImage" />
        <dc:creator>
          <cc:Agent>
            <dc:title>Serge Thomas</dc:title>
          </cc:Agent>
        </dc:creator>
        <dc:publisher>
          <cc:Agent>
            <dc:title>Serge Rosmorduc</dc:title>
          </cc:Agent>
        </dc:publisher>
        <dc:date>18/03/06</dc:date>
        <dc:description>KV57
valeur phonétique :Dr</dc:description>
        <cc:license
           rdf:resource="http://creativecommons.org/licenses/GPL/2.0/" />
      </cc:Work>
      <cc:License
         rdf:about="http://creativecommons.org/licenses/GPL/2.0/">
        <cc:permits
           rdf:resource="http://web.resource.org/cc/Reproduction" />
        <cc:permits
           rdf:resource="http://web.resource.org/cc/Distribution" />
        <cc:requires
           rdf:resource="http://web.resource.org/cc/Notice" />
        <cc:permits
           rdf:resource="http://web.resource.org/cc/DerivativeWorks" />
        <cc:requires
           rdf:resource="http://web.resource.org/cc/ShareAlike" />
        <cc:requires
           rdf:resource="http://web.resource.org/cc/SourceCode" />
      </cc:License>
    </rdf:RDF>
  </metadata>
  <defs
     id="defs1345" />
  <sodipodi:namedview
     inkscape:window-height="986"
     inkscape:window-width="1920"
     inkscape:pageshadow="2"
     inkscape:pageopacity="0.0"
     borderopacity="1.0"
     bordercolor="#666666"
     pagecolor="#ffffff"
     id="base"
     inkscape:zoom="64.756944"
     inkscape:cx="8.6400001"
     inkscape:cy="9.9834853"
     inkscape:window-x="-11"
     inkscape:window-y="-11"
     inkscape:current-layer="svg1342"
     inkscape:showpageshadow="2"
     inkscape:pagecheckerboard="0"
     inkscape:deskcolor="#d1d1d1"
     inkscape:document-units="pt"
     inkscape:window-maximized="1"
     showgrid="false" />
  <path
     style="fill:#000000;stroke:none"
     d="M 8.1213858,6.9873972 C 7.5438938,6.7786174 0.25340411,6.9087732 0.25344561,6.9090662 0.45706234,8.1101621 0.92894003,8.9438971 1.0632981,9.6429987 1.3423538,11.095002 1.1888766,11.966232 1.3273015,14.341802 l 0.011179,0.170891 0.1712345,0.0025 5.9666248,0.0037 0.333501,-0.0078 c 0.134014,-1.325582 0.07042,-3.233006 0.293946,-3.976747 0.846239,0.157879 1.7304888,1.931163 1.8050348,2.554649 L 10.349287,12.972061 C 10.301887,12.505479 9.4411942,10.409781 8.7489658,10.185636 9.6528268,9.5397188 10.36541,8.5929028 10.411998,8.2953468 L 9.8934432,8.1734518 c -0.02928,0.18719 -0.223046,0.912598 -1.4942624,1.611091 l -0.0027,6.23e-4 -0.273761,0.09265 M 7.2902599,14.052537 v 0 l -5.449295,-0.01392 C 1.7206031,12.094478 1.8277202,10.610594 1.6334231,9.5412023 1.3618242,8.04635 0.79590195,7.3614146 0.79590195,7.3614146 c 0,0 5.86213415,0.00662 6.83751785,-4.341e-4"
     id="path1335"
     sodipodi:nodetypes="ccscccccccccccccccccscc" />
</svg>
