<?xml version="1.0" encoding="UTF-8" standalone="no"?>
<svg
   width="17.95"
   height="17.98"
   version="1.1"
   id="svg1"
   sodipodi:docname="US11Aa22VARA.svg"
   inkscape:version="1.3.2 (091e20e, 2023-11-25, custom)"
   xmlns:inkscape="http://www.inkscape.org/namespaces/inkscape"
   xmlns:sodipodi="http://sodipodi.sourceforge.net/DTD/sodipodi-0.dtd"
   xmlns="http://www.w3.org/2000/svg"
   xmlns:svg="http://www.w3.org/2000/svg">
  <defs
     id="defs1" />
  <sodipodi:namedview
     id="namedview1"
     pagecolor="#ffffff"
     bordercolor="#000000"
     borderopacity="0.25"
     inkscape:showpageshadow="2"
     inkscape:pageopacity="0.0"
     inkscape:pagecheckerboard="0"
     inkscape:deskcolor="#d1d1d1"
     inkscape:zoom="41.768633"
     inkscape:cx="8.9660584"
     inkscape:cy="10.905313"
     inkscape:window-width="1264"
     inkscape:window-height="1020"
     inkscape:window-x="43"
     inkscape:window-y="22"
     inkscape:window-maximized="0"
     inkscape:current-layer="svg1" />
  <path
     id="path1"
     style="fill:#000000;stroke:none"
     d="M 8.9003906,4.3830623 V 6.6600272 L 6.9609375,6.7401053 6.0996094,6.6815116 C 5.45961,6.0015123 4.9001558,5.6697928 4.4101562,5.6697928 4.2301564,5.6497928 4.0398436,5.6407303 3.8398438,5.6307303 2.8398448,5.8207301 2.229531,5.9197928 2.0195312,5.9197928 c -0.1499998,0 -0.2187499,0.09125 -0.21875,0.28125 0,0.2699998 0.2089067,0.4101563 0.6289063,0.4101563 C 3.1196868,6.4911992 3.6495316,6.4315116 4.0195312,6.4315116 h 0.1699219 c 0.2199998,0 0.3800001,0.09 0.5,0.25 C 4.4594534,6.9715113 3.9406242,7.1111991 3.140625,7.1111991 H 2.9492188 C 2.0392197,7.0911991 1.2390618,6.9698707 0.5390625,6.749871 0.17906286,6.749871 0,6.9611995 0,7.3611991 0.04999995,7.7311987 1.3406276,7.9215116 3.890625,7.9315116 L 5.5703125,7.749871 8.9003906,7.7401053 V 11.849471 L 5.2792969,9.4510428 v 8.4589752 h 2.0214843 0.7675782 2.4531246 0.777344 2.009766 V 9.4510428 L 9.6992188,11.835799 V 7.7303397 l 5.5410152,-0.029297 2.708985,0.039063 v -4.359375 c 0,-0.5799994 -0.309688,-0.8691406 -0.929688,-0.8691406 -0.619999,0 -0.938984,0.169766 -0.958984,0.5097656 -0.26,2.2499978 -0.530782,3.3784375 -0.800781,3.3984375 L 9.6992188,6.6307303 v -2.247668 z m 8.1093754,-1.392957 c 0.249999,0 0.371093,0.1306253 0.371093,0.390625 v 3.0195313 h -1.140625 l 0.369141,-3.1601563 c 0.02,-0.1699998 0.150391,-0.25 0.400391,-0.25 z M 6.0253906,11.126815 9.2988281,13.062362 12.552734,11.126815 v 5.80664 H 6.0253906 Z"
     sodipodi:nodetypes="ccccccsscsscscccccccccccccccccccsscccccsscccscccccc" />
</svg>
