<?xml version="1.0" encoding="UTF-8" standalone="no"?>
<svg
   width="18.464462"
   height="11.52"
   version="1.1"
   id="svg1"
   sodipodi:docname="US11U2VARA.svg"
   inkscape:version="1.3.2 (091e20e, 2023-11-25, custom)"
   xmlns:inkscape="http://www.inkscape.org/namespaces/inkscape"
   xmlns:sodipodi="http://sodipodi.sourceforge.net/DTD/sodipodi-0.dtd"
   xmlns="http://www.w3.org/2000/svg"
   xmlns:svg="http://www.w3.org/2000/svg">
  <defs
     id="defs1" />
  <sodipodi:namedview
     id="namedview1"
     pagecolor="#ffffff"
     bordercolor="#000000"
     borderopacity="0.25"
     inkscape:showpageshadow="2"
     inkscape:pageopacity="0.0"
     inkscape:pagecheckerboard="0"
     inkscape:deskcolor="#d1d1d1"
     inkscape:zoom="65.19097"
     inkscape:cx="10.001385"
     inkscape:cy="5.7446606"
     inkscape:window-width="1920"
     inkscape:window-height="986"
     inkscape:window-x="-11"
     inkscape:window-y="-11"
     inkscape:window-maximized="1"
     inkscape:current-layer="svg1" />
  <path
     style="fill:#000000;stroke:none"
     d="M 13.768396,0.40586698 16.58766,1.174729 c 0.09666,0.2737531 -2.125236,2.4950185 -2.125236,2.4950185 0.552586,0.6870125 4.119128,2.0865043 4.052299,2.4240146 0.09403,0.8317455 -0.71112,1.8180933 -2.415448,2.9590435 C 14.394947,10.193755 12.158972,10.799771 9.3913486,10.870853 6.623727,10.941936 1.3576788,10.445867 0.54736036,9.7507941 0.54939735,9.7794511 0.05066555,9.3660028 0.01755647,8.7865611 0.08129192,8.651338 0.3939792,8.610723 2.5964546,8.6033381 4.7973155,8.5959586 6.855887,8.7194591 8.7414902,8.4829742 10.627093,8.2464873 11.858426,7.9543714 12.435487,7.6066263 13.012549,7.2588842 13.369964,6.8537898 13.507731,6.391343 13.645498,5.9288969 12.588311,5.0789633 10.770039,4.2754101 Z M 14.151363,1.3066938 12.056496,3.9108307 C 13.875521,5.1138321 14.61762,5.7990749 14.359995,6.5921798 13.864807,8.1166293 12.472504,8.7681125 9.4467889,9.1908906 6.4257276,9.6130183 4.1393345,9.4363721 1.0422831,9.2112238 0.81850118,9.3147554 1.1082843,9.5107809 1.5741623,9.5845466 6.8338739,10.367276 9.8929153,10.449289 12.509993,9.7385515 15.127068,9.027814 16.781265,7.8018275 17.656658,6.3673828 14.938319,5.256252 13.538538,4.3662104 13.473229,3.6956445 c -0.02723,-0.2795477 1.839799,-2.079353 1.839799,-2.079353 z"
     id="path1"
     sodipodi:nodetypes="ccscssccssssccccssccscscc" />
</svg>
