<?xml version="1.0" encoding="UTF-8" standalone="no"?>
<svg
   width="18.1"
   height="17.972717"
   version="1.1"
   id="svg1"
   sodipodi:docname="US11M20VARB.svg"
   inkscape:version="1.3.2 (091e20e, 2023-11-25, custom)"
   xmlns:inkscape="http://www.inkscape.org/namespaces/inkscape"
   xmlns:sodipodi="http://sodipodi.sourceforge.net/DTD/sodipodi-0.dtd"
   xmlns="http://www.w3.org/2000/svg"
   xmlns:svg="http://www.w3.org/2000/svg">
  <defs
     id="defs1" />
  <sodipodi:namedview
     id="namedview1"
     pagecolor="#ffffff"
     bordercolor="#000000"
     borderopacity="0.25"
     inkscape:showpageshadow="2"
     inkscape:pageopacity="0.0"
     inkscape:pagecheckerboard="0"
     inkscape:deskcolor="#d1d1d1"
     inkscape:zoom="29.546851"
     inkscape:cx="5.9904861"
     inkscape:cy="11.862516"
     inkscape:window-width="1898"
     inkscape:window-height="964"
     inkscape:window-x="0"
     inkscape:window-y="0"
     inkscape:window-maximized="0"
     inkscape:current-layer="svg1"
     showguides="true">
    <sodipodi:guide
       position="0.76150248,2.7426677"
       orientation="0,-1"
       id="guide1"
       inkscape:locked="false" />
    <sodipodi:guide
       position="7.6996362,4.8071855"
       orientation="1,0"
       id="guide2"
       inkscape:locked="false" />
    <sodipodi:guide
       position="2.2337406,4.8071855"
       orientation="1,0"
       id="guide3"
       inkscape:locked="false" />
    <sodipodi:guide
       position="13.165532,3.8256934"
       orientation="1,0"
       id="guide4"
       inkscape:locked="false" />
  </sodipodi:namedview>
  <path
     style="fill:#000000;stroke:none"
     d="m 3.1135081,9.7511031 c 0.5651793,0.3014289 1.3375917,1.0047629 2.317237,2.1100039 h 0.018839 V 1.4429601 C 5.3114294,1.1540901 4.9723218,1.0096551 4.4322611,1.0096551 Z m 5.463404,0.018839 c 0.56518,0.3014289 1.3313127,1.0047639 2.2983979,2.1100049 h 0.03768 V 1.4617991 C 10.762274,1.1729298 10.423166,1.0284951 9.8956651,1.0284951 Z m 7.4226939,7.1024269 v -3.183848 c 0,-0.879168 -0.973365,-1.978128 -2.920095,-3.296881 V 10.33512 L 14.624336,0.08652811 c 1.419229,-0.02511867 2.266999,0.35794767 2.543309,1.14919899 V 16.872369 h 0.904287 v 1.168037 H 3.0798545 c -3.75896874,-0.243242 -3.50973284,-3.114194 -2.43734375,-2.79396 0.58706055,0.175306 -0.049879,1.539529 2.43734375,1.625923 h 0.8720282 l -1.3738757,-1.609342 0.9311271,-0.236912 1.582503,1.846254 v -3.202686 c 0,-0.879169 -0.979645,-1.97813 -2.938935,-3.296882 v -0.05652 L 3.7163661,0.06768911 c 1.4192293,-0.02511933 2.2607193,0.357947 2.52447,1.14919899 V 16.853528 h 3.1932906 l -1.3061866,-1.594336 0.863438,-0.270756 1.5636639,1.883933 v -3.183848 c 0,-0.879168 -0.9796449,-1.978128 -2.9389349,-3.296881 V 10.33512 L 9.1609311,0.08652811 C 10.58016,0.06140944 11.42793,0.44447578 11.70424,1.2357271 V 16.872369 h 3.106764 l -1.25542,-1.618929 0.880359,-0.321523 z M 14.021478,9.7699421 c 0.56518,0.3014289 1.337592,1.0047639 2.317237,2.1100049 h 0.03768 V 1.4617991 C 16.225679,1.1729298 15.880291,1.0284951 15.34023,1.0284951 Z"
     id="path1"
     sodipodi:nodetypes="cccccccccccccsccccccccscccccscccccccccsccccccccccccccc" />
</svg>
