<?xml version="1.0" encoding="UTF-8" standalone="no"?>
<svg
   width="18.272749"
   height="8.4"
   version="1.1"
   id="svg1"
   sodipodi:docname="US11D39VARA.svg"
   inkscape:version="1.3.2 (091e20e, 2023-11-25, custom)"
   xmlns:inkscape="http://www.inkscape.org/namespaces/inkscape"
   xmlns:sodipodi="http://sodipodi.sourceforge.net/DTD/sodipodi-0.dtd"
   xmlns="http://www.w3.org/2000/svg"
   xmlns:svg="http://www.w3.org/2000/svg">
  <defs
     id="defs1" />
  <sodipodi:namedview
     id="namedview1"
     pagecolor="#ffffff"
     bordercolor="#000000"
     borderopacity="0.25"
     inkscape:showpageshadow="2"
     inkscape:pageopacity="0.0"
     inkscape:pagecheckerboard="0"
     inkscape:deskcolor="#d1d1d1"
     showguides="false"
     inkscape:zoom="67.751163"
     inkscape:cx="7.5718257"
     inkscape:cy="4.1991899"
     inkscape:window-width="1920"
     inkscape:window-height="986"
     inkscape:window-x="-11"
     inkscape:window-y="-11"
     inkscape:window-maximized="1"
     inkscape:current-layer="svg1">
    <sodipodi:guide
       position="9.1511344,2.5550815"
       orientation="1,0"
       id="guide1"
       inkscape:locked="false" />
  </sodipodi:namedview>
  <path
     id="path1"
     style="fill:#000000;stroke:none"
     d="M 17.226562 0 C 15.132721 1.0818549 13.487403 3.7264101 12.144531 5.6894531 C 11.080358 5.794126 10.183028 6.0631812 9.4023438 6.28125 C 8.6216595 6.4993178 6.9779897 6.6933974 6.0097656 6.9550781 C 6.0097197 6.9604765 5.995195 6.9829934 5.9863281 6.9980469 C 5.7988084 6.7897296 5.6190545 6.6268961 5.4472656 6.4785156 C 5.5924985 6.1448744 5.6777344 5.807042 5.6777344 5.4804688 C 5.6697976 4.9782392 5.5410064 4.5187301 5.3027344 4.1074219 C 5.0644624 3.6961123 4.7899641 3.3849678 4.4960938 3.203125 L 4.4960938 2.2675781 L 1.3574219 2.2675781 L 1.3574219 3.234375 C 1.0714959 3.4162164 0.81835013 3.7004415 0.58007812 4.1074219 C 0.34180603 4.5143998 0.21497339 4.9868976 0.20703125 5.4804688 C 0.20703125 6.0371111 0.40476078 6.5954639 0.81054688 7.1640625 C 0.73525545 7.1422225 0.65353896 7.1258335 0.58007812 7.1015625 C 0.22802435 7.1015625 0.033203125 7.323755 0.033203125 7.7558594 C 0.080144378 8.1498341 1.351969 8.3681511 3.8632812 8.3808594 L 5.1015625 8.2246094 L 5.1074219 8.2167969 C 7.6424502 8.2138011 10.068129 8.1028828 11.027344 7.9609375 C 11.999928 7.8170106 12.693679 7.703089 13.121094 7.4414062 C 14.413063 5.8554608 17.603348 3.5532723 18.273438 0.890625 C 18.273438 0.70744718 18.181812 0.54046655 18.011719 0.33984375 C 17.841626 0.13922095 17.584194 0.017444983 17.226562 0 z M 1.9335938 2.6738281 L 3.9492188 2.6738281 L 3.9492188 3.109375 L 1.9335938 3.109375 L 1.9335938 2.6738281 z M 2.9414062 3.515625 C 3.7833 3.515625 4.3775514 3.7335786 4.6992188 4.2011719 C 5.020886 4.6687652 5.1582031 5.1081261 5.1582031 5.4804688 C 5.1548689 5.7241969 5.1219982 5.9482679 5.0429688 6.1660156 C 4.8143364 6.0306945 4.5857064 5.9472656 4.3808594 5.9472656 C 4.2048309 5.9345561 4.0041861 5.9287252 3.8046875 5.9160156 C 2.8189398 6.1193572 2.2307632 6.1972656 2.0195312 6.1972656 C 1.8787095 6.1972656 1.8183594 6.306424 1.8183594 6.5097656 C 1.8183594 6.8020709 2.0130996 6.9453125 2.4238281 6.9453125 C 3.1185217 6.8125452 3.6423299 6.7578125 4.0078125 6.7578125 L 4.1230469 6.7578125 L 4.1621094 6.7578125 C 4.1684894 6.7578125 4.1744615 6.7574476 4.1796875 6.7578125 C 4.3305668 6.7578125 4.4526835 6.819268 4.5546875 6.9140625 C 4.5349055 6.9349655 4.5168477 6.9559935 4.4960938 6.9765625 C 4.3107398 7.1602708 4.10796 7.3083045 3.8925781 7.4140625 C 3.6672977 7.4549068 3.4172142 7.4765625 3.1152344 7.4765625 L 3 7.4765625 L 2.9628906 7.4765625 C 2.9564106 7.4765625 2.9487172 7.4767707 2.9414062 7.4765625 C 2.5744019 7.4661668 2.2322509 7.4257952 1.9042969 7.3828125 C 1.7093843 7.2801535 1.5262425 7.1438865 1.3574219 6.9765625 C 0.92059068 6.5436055 0.72460938 6.0519712 0.72460938 5.4804688 C 0.72460938 5.0994676 0.83750972 4.6687652 1.0996094 4.2011719 C 1.3617079 3.7335786 1.9803779 3.515625 2.9414062 3.515625 z " />
</svg>
