<?xml version="1.0" encoding="UTF-8" standalone="no"?>
<svg
   width="19.075127"
   height="5.76"
   version="1.1"
   id="svg1"
   sodipodi:docname="US11F42VARA.svg"
   inkscape:version="1.3.2 (091e20e, 2023-11-25, custom)"
   xmlns:inkscape="http://www.inkscape.org/namespaces/inkscape"
   xmlns:sodipodi="http://sodipodi.sourceforge.net/DTD/sodipodi-0.dtd"
   xmlns="http://www.w3.org/2000/svg"
   xmlns:svg="http://www.w3.org/2000/svg">
  <defs
     id="defs1" />
  <sodipodi:namedview
     id="namedview1"
     pagecolor="#ffffff"
     bordercolor="#000000"
     borderopacity="0.25"
     inkscape:showpageshadow="2"
     inkscape:pageopacity="0.0"
     inkscape:pagecheckerboard="0"
     inkscape:deskcolor="#d1d1d1"
     inkscape:zoom="64.901273"
     inkscape:cx="9.0368027"
     inkscape:cy="2.8890034"
     inkscape:window-width="1920"
     inkscape:window-height="986"
     inkscape:window-x="-11"
     inkscape:window-y="-11"
     inkscape:window-maximized="1"
     inkscape:current-layer="svg1"
     showguides="true">
    <sodipodi:guide
       position="8.5360421,0"
       orientation="0,-1"
       id="guide2"
       inkscape:locked="false" />
    <sodipodi:guide
       position="9.3004036,4.1123485"
       orientation="1,0"
       id="guide3"
       inkscape:locked="false" />
  </sodipodi:namedview>
  <path
     id="path1"
     style="fill:#000000;stroke:none"
     d="m 9.8375808,0.7656265 c 2.9039452,0.098973 5.3106602,0.7638953 6.3222652,1.2460929 1.011607,0.4821984 1.812204,1.0777716 2.402344,1.7851562 0.393599,0.8245676 0.09806,1.2246238 -0.886719,1.2011719 -1.10826,-0.554042 -2.133667,-1.0514616 -3.322265,-1.2773437 L 13.034846,3.3906256 C 11.36586,3.104645 10.307851,2.9870562 9.2028152,3.0546881 c -0.6441185,0.039422 -1.3048505,0.080905 -2.1113285,0.25 -0.730726,0.1532121 -1.372318,0.2692481 -2.240234,0.5742188 -0.960375,0.2599783 -2.406311,0.9525274 -3.193359,1.109375 C 1.1411577,5.09126 0.06793369,5.4301018 0.08953369,4.2363288 0.60827669,3.1384763 2.3384367,2.4995482 3.5797687,1.9921881 5.9359417,1.029168 8.4326697,0.7177438 9.8375808,0.7656265 Z M 9.8200028,1.5156258 C 7.4464817,1.5198861 5.9309947,1.9256973 3.9860187,2.583985 2.0410197,3.2422744 1.5245947,3.569407 1.3375807,3.7597662 0.93630469,4.0125622 0.52960569,4.5101409 1.5817217,4.34961 1.8698467,4.305648 4.3162747,3.0505954 7.3746907,2.5585944 8.9193826,2.2372778 11.161188,2.282531 12.714534,2.583985 c 1.553353,0.3014543 3.084164,0.7779075 4.591797,1.4316406 0.339442,0.1715479 0.841173,0.4327006 0.265625,-0.3730468 C 17.329732,3.365007 16.622276,2.9863722 15.450862,2.5078131 14.279445,2.0292527 12.373752,1.5110421 9.8200028,1.5156258 Z m 1.4140622,1.861328 c 0.02882,-6.063e-4 0.06085,0.00347 0.09375,0.011719 0.263197,0.065962 0.467187,0.382718 0.615235,0.9492187 0.148048,0.5665002 -0.01736,0.830728 -0.01736,0.830728 -0.30815,0.087771 -0.999536,-0.3426486 -0.99631,-1.1276033 0.0018,-0.4379709 0.102951,-0.6598186 0.304687,-0.6640624 z m -1.7265623,0.03125 c 0.028819,-0.00103 0.058897,0.00201 0.091797,0.00977 0.2631962,0.062083 0.4691393,0.3768594 0.6171873,0.9433594 0.148048,0.5665002 -0.01736,0.8424466 -0.01736,0.8424466 -0.02689,-4.357e-4 -1.0004625,-0.117354 -0.9963118,-1.1276073 0.0018,-0.4379705 0.1029515,-0.660754 0.3046875,-0.6679687 z m -1.771484,0 c 0.028817,-0.00103 0.060851,0.00201 0.09375,0.00977 0.263196,0.062083 0.469037,0.3768594 0.61914,0.9433594 0.150105,0.5665002 -0.021267,0.8424466 -0.021267,0.8424466 -0.02055,0.041473 -1.0003969,-0.1328539 -0.9963109,-1.1276029 0.00184,-0.4379705 0.102966,-0.660754 0.304688,-0.6679687 z m 3.5579423,0.4487845 c -0.0329,0.5897811 0.0095,0.5851243 0.404297,0.7868915 C 11.613982,4.0759165 11.35587,3.8956772 11.293961,3.8569883 Z m -1.7285154,0.035156 c -0.0329,0.5897809 0.0095,0.5811659 0.4042963,0.7751728 C 9.9110535,3.8997034 9.5797444,3.9444321 9.5654456,3.8921443 Z m -1.7695308,0 c -0.0329,0.5897809 0.0095,0.5811659 0.4042958,0.7751728 C 8.1775566,4.0839463 7.7959148,3.8921443 7.7959148,3.8921443 Z"
     sodipodi:nodetypes="ssccccsscscsssccscsccssscscssscsccsccccccccccccccccc" />
</svg>
