<?xml version="1.0" encoding="UTF-8" standalone="no"?>
<svg
   width="12.932"
   height="17.983217"
   version="1.1"
   id="svg1"
   sodipodi:docname="US11A14VARA.svg"
   inkscape:version="1.3.2 (091e20e, 2023-11-25, custom)"
   xmlns:inkscape="http://www.inkscape.org/namespaces/inkscape"
   xmlns:sodipodi="http://sodipodi.sourceforge.net/DTD/sodipodi-0.dtd"
   xmlns="http://www.w3.org/2000/svg"
   xmlns:svg="http://www.w3.org/2000/svg">
  <defs
     id="defs1" />
  <sodipodi:namedview
     id="namedview1"
     pagecolor="#ffffff"
     bordercolor="#000000"
     borderopacity="0.25"
     inkscape:showpageshadow="2"
     inkscape:pageopacity="0.0"
     inkscape:pagecheckerboard="0"
     inkscape:deskcolor="#d1d1d1"
     inkscape:zoom="41.761159"
     inkscape:cx="4.7412477"
     inkscape:cy="6.3815278"
     inkscape:window-width="1511"
     inkscape:window-height="1020"
     inkscape:window-x="22"
     inkscape:window-y="0"
     inkscape:window-maximized="0"
     inkscape:current-layer="svg1" />
  <path
     id="path1"
     style="fill:#000000;stroke:none"
     d="M 3.4129836,2.7396925 3.4902344,1.5840606 2.8925781,1.5489044 0.65625,1.3496856 0.54619236,4.7559356 0.04492187,4.71492 C 0.03876588,4.9455271 0.13197392,5.0740863 0.328125,5.0996856 0.18011481,5.2461002 0.10122671,5.4645169 0.08984375,5.7539825 0.06371358,6.0482755 0.27273464,6.2028822 0.49838063,6.2188263 l -0.004589,0.7461165 -0.59340112,-0.03125 c -0.01098399,0.2158595 0.09091431,0.3414339 0.30664062,0.3769532 -0.16222633,0.053101 -0.24360948,0.1284206 -0.24414062,0.2265624 0.00177,0.5790645 0.34243192,0.8749475 0.51900792,0.890625 l 0.0155985,1.3799518 0.33790189,-0.011368 c 0.0628625,-0.00509 0.019267,-1.3417152 0.0789222,-1.35084 C 1.2320388,8.3969792 1.4085972,8.2910767 1.6367188,8.1270522 3.4683956,8.4807094 3.6425375,8.6016216 4.7621716,8.5612461 5.1160768,8.5953981 6.4491934,7.7407004 6.7495719,7.3445823 7.4033452,10.191763 8.1380391,10.432674 8.8733076,11.833599 7.0564578,12.16084 2.8364263,11.685924 2.3457031,12.664062 c -0.1668564,0.750856 0.5910015,1.400978 2.2714844,1.949219 -0.977302,1.191834 -1.472457,1.925098 -1.484375,2.199219 -0.01192,0.274123 0.05991,0.52921 0.2148437,0.767578 0.5124875,0.50057 1.6973841,0.120767 3.5566407,-1.142578 0.2264481,0.107264 0.3360781,0.248961 0.3300781,0.427734 -0.006,0.178778 -0.1250145,0.307297 -0.3574219,0.384766 -0.2324081,0.07747 -0.4213328,0.20599 -0.5703125,0.384766 -0.1489784,0.17877 -0.03939,0.267578 0.3300782,0.267578 h 0.7675781 c 0.4171408,0 0.6023642,-0.464896 0.5546875,-1.394532 0,-0.286037 0.160627,-0.45233 0.4824218,-0.5 0.3098791,-0.107262 0.4062921,-0.364307 0.2871094,-0.769531 l 0.625,-0.03516 c 0.2860381,0.03575 0.4712578,0.175598 0.5546875,0.419922 0.08342,0.244327 0.1212319,0.548601 0.1152349,0.912109 -0.006,0.36351 -0.1004231,0.612939 -0.2851568,0.75 -0.1847324,0.137061 -0.2773437,0.275049 -0.2773437,0.41211 0,0.13706 0.2154712,0.205078 0.6445315,0.205078 0.309875,0 0.493144,-0.03211 0.552734,-0.09766 0.05959,-0.06555 0.10116,-0.163824 0.125,-0.294922 0,-0.01192 0.0246,-0.382359 0.07227,-1.109375 -0.04767,-0.631674 0.09597,-1.066322 0.429687,-1.304688 0.202611,-0.405222 -0.355302,-0.743857 -0.832031,-0.994141 0.709598,-0.108161 0.743064,-1.435569 0.397735,-2.155004 0.275646,-0.0021 1.007367,2.562612 1.129522,3.323278 1.255748,-0.887676 -0.06983,-4.38809 -1.010967,-4.420321 0.302404,-0.575958 0.576152,-1.8931729 0.279666,-1.9799995 -0.52261,-0.0072 -0.9513,1.1672245 -0.998923,1.6979995 C 10.193351,10.123996 9.5311172,6.0950946 9.0554283,5.8539372 8.809893,5.4717557 8.2909477,5.5849708 8.0207005,5.0165864 8.7185669,5.0791386 9.3783044,4.5307998 9.4456094,3.8924867 9.4195514,2.7726982 9.2343361,2.2975416 8.3219622,1.9746094 8.0004195,1.8674281 7.8147997,1.7765246 7.554384,1.8066406 7.0977759,1.8594457 6.6300502,2.0702346 6.3102434,2.4003906 6.0471863,2.6719607 5.8429809,3.1836682 5.8532122,3.4394531 5.5240291,3.9112826 5.3769341,4.2252875 5.4098528,4.3789062 l 0.2792968,0.1640626 c 0.010973,0.1536187 0.026883,0.2735464 0.048828,0.3613281 0.021946,0.087783 0.053392,0.1758899 0.091797,0.2636719 C 5.8681796,5.2557518 6.0958879,5.0293783 5.7008684,5.4902344 5.7337874,5.6438531 6.0114802,5.782245 6.1209066,5.6807537 6.1364636,5.6697887 6.5784098,5.4844789 7.083157,4.9797313 L 6.9490386,5.5352098 C 6.6384655,5.7633455 6.5864812,5.8714393 6.5708643,5.8618065 5.7698595,6.1009726 4.6782427,6.5974533 4.7242223,6.569531 3.8919484,6.2190475 3.3113365,5.9780603 1.8046875,5.6074981 l -0.021484,0.00977 C 1.4423637,5.124692 1.1938244,4.8572273 0.91923924,4.8164825 L 0.97070312,3.3535919 C 1.199119,3.0631749 2.1292686,2.8611575 2.9101562,2.7481231 Z M 2.9628906,2.3887481 C 2.4473801,2.4350263 1.4477075,2.5563166 0.98046875,2.7500763 L 1.0449219,1.7110137 C 1.427305,1.781786 2.4837017,1.9098076 3.0625,1.9571075 Z M 6.3317278,2.78125 c 0.2084834,0.010973 0.5702177,0.094428 1.0859375,0.2480469 l 0.1640625,0.640625 C 7.4171361,3.8564593 7.3787117,4.0326749 7.4664934,4.1972656 7.3787114,4.537422 7.9568274,5.6537051 8.0198316,5.6573692 9.7042723,5.7553307 9.3129058,10.176812 10.17624,11.457472 l -0.9976147,0.1812 C 9.1883953,11.196482 8.4279862,10.58071 8.2110032,10.165132 7.9648308,9.6936474 7.6886575,8.7195643 7.4027089,8.1265398 7.1038707,7.4057295 6.7676904,6.8413916 7.0361243,6.2612312 7.2874434,5.847686 7.2077401,5.8414587 7.2993548,5.5828906 7.584032,5.1579084 7.2533186,4.2913274 7.2203996,3.9511719 7.1326179,3.8085252 7.0173429,3.7522375 6.8746965,3.7851562 L 6.741884,4.4277344 C 6.7309113,4.7569165 6.5182238,5.0258923 6.101259,5.234375 L 6.0192278,5.0527344 C 6.2606282,4.9539794 6.3580403,4.8002796 6.3141496,4.5917969 l -0.3125,0.048828 -0.097656,-0.097656 C 6.0685841,4.4003224 6.1318512,4.285048 6.0934465,4.1972656 6.0550421,4.1094839 5.9739123,4.0823164 5.8532122,4.1152344 L 5.8375872,4.2949219 5.6403215,4.2460938 C 5.7061585,4.0485841 5.8101754,3.8452012 5.9528215,3.6367188 6.0076855,3.4611544 6.0779295,3.3458796 6.1657122,3.2910156 6.5387857,3.1703152 6.8846111,3.237861 7.2028215,3.4902344 L 7.1539934,3.390625 C 6.9674567,3.0724146 6.632889,2.9909125 6.1500872,3.1445312 Z m 1.5527344,0.2304688 c 0.022288,-0.00103 0.045042,9.595e-4 0.068359,0.00781 C 8.0460905,3.046968 8.1093569,3.1665173 8.1422746,3.375 8.2410299,3.7041831 8.1304063,3.9506434 7.8121965,4.1152344 7.6805231,4.1591254 7.6013463,4.134284 7.5739153,4.0410156 7.5464826,3.9477472 7.5961658,3.8934124 7.7223528,3.8769531 7.8485389,3.8604938 7.8780325,3.7634547 7.8121965,3.5878906 7.7024688,3.3903812 7.6640442,3.2366808 7.6969622,3.1269531 7.7545694,3.0528869 7.8175967,3.0148047 7.8844622,3.0117188 Z M 6.4860246,3.3222656 C 6.3749255,3.3154076 6.298657,3.3249204 6.257509,3.3496094 6.1752133,3.3989864 6.1006892,3.5119359 6.0348528,3.6875 6.1445805,3.7752824 6.2870228,3.7958444 6.4625872,3.7519531 6.6381513,3.6861167 6.7918512,3.5661891 6.9235246,3.390625 6.7424739,3.35222 6.597124,3.3291236 6.4860246,3.3222656 Z m 0.035156,0.089844 c 0.090525,-0.00617 0.1809591,0.00266 0.2714844,0.027344 C 6.69391,3.5382086 6.5898934,3.6104061 6.480165,3.6542974 6.546002,3.533597 6.528139,3.4567473 6.429384,3.4238286 c 0.030175,-0.00549 0.061622,-0.00966 0.091797,-0.011719 z m -0.2226563,0.027344 c -0.076809,0.1097272 -0.049642,0.1865775 0.082031,0.2304688 -0.098755,0.021946 -0.1802567,0.017294 -0.2460937,-0.015625 0.021946,-0.076809 0.076281,-0.149007 0.1640627,-0.2148438 z m -0.1816406,1.3164063 0.082031,0.066406 -0.3457031,0.082031 -0.048828,-0.1152344 z m -4.4547746,1.4629669 0.00781,0.023437 C 2.1323912,6.462229 2.5205531,7.179139 4.6815376,7.534769 4.9888012,7.536549 5.2363943,7.2752965 5.2786429,7.2418955 c 0,0 -0.4785493,0.088975 -0.7060871,0.2968793 C 4.1546737,7.3864077 2.5666067,7.5392247 1.605466,7.4278334 l 0.00586,0.021484 C 1.3034634,7.2072016 1.1804864,7.0662342 0.90590112,7.0254897 L 0.87924001,6.2657013 C 1.0312782,6.2812492 1.2202037,6.2655048 1.6621091,6.2188268 Z m 9.4068729,2.9889539 c 0.335109,0.085699 -0.388879,1.5625873 -0.574439,1.9834583 -0.0097,-0.0091 -0.02163,-0.01747 -0.03019,-0.02664 l 0.01759,-0.0085 -0.03871,-0.102763 c -0.07343,-0.280958 0.464951,-1.8708409 0.625749,-1.8455553 z m -0.449846,2.1660983 c 1.052293,-0.707156 1.966998,2.52633 1.46218,3.423304 0.11493,-0.913182 -0.821344,-3.789728 -1.346304,-3.205717 -0.06701,-0.09836 -0.142595,-0.224879 -0.115876,-0.217587 z m -0.18489,0.485497 c 0.133649,0.590245 0.294991,0.960165 0.304688,1.386719 0.01007,0.442831 -1.0033052,0.697718 -1.7779968,0.787108 -0.7746906,0.08939 -1.6156921,0.365266 -2.5214844,0.830078 -0.4392869,0.225425 -0.7662512,0.410724 -0.9921875,0.560547 L 4.6953125,12.474609 c 0.2314964,-0.0034 0.4581628,-0.0055 0.6699219,-0.0059 0.7519706,-0.0011 1.3783367,0.01698 1.8789062,0.05273 z m -6.1627619,0.628906 0.3710937,1.509766 c -1.0549165,-0.34262 -1.6368571,-0.745536 -1.7421872,-1.208986 0,-0.171063 0.4742865,-0.268844 1.3710935,-0.30078 z M 4.9179688,15.125 5.0800781,15.789062 c -0.051362,0.30785 0.1207797,0.345886 0.5195313,0.111329 1.2156664,-0.549327 0.7881356,-0.322467 1.1933594,-0.310547 0.05954,0.131103 0.1213786,0.14389 -0.00977,0.298828 l -2.3984375,1.371094 c -0.4052228,0.01192 -0.6263534,-0.126068 -0.6621094,-0.41211 0,-0.111461 0.7295379,-1.112712 1.1953126,-1.722656 z"
     sodipodi:nodetypes="ccccccccccccccccsccccccsccssssscccccssssscccccccccccccsscccsscccccccccccccccccccccsccscccccccccccscccccccccscccssccssscccscccccccccccccccccccccccccccccccccccscccccccccccccccccccc" />
  <g
     id="path2">
    <path
       style="color:#000000;fill:#ffffff;fill-opacity:0;-inkscape-stroke:none"
       d="m 4.2862795,12.48768 0.9698006,3.292533"
       id="path3" />
  </g>
</svg>
