<?xml version="1.0" encoding="UTF-8" standalone="no"?>
<svg
   width="8.62"
   height="17.98"
   version="1.1"
   id="svg1"
   sodipodi:docname="US11W59VARB.svg"
   inkscape:version="1.3.2 (091e20e, 2023-11-25, custom)"
   xmlns:inkscape="http://www.inkscape.org/namespaces/inkscape"
   xmlns:sodipodi="http://sodipodi.sourceforge.net/DTD/sodipodi-0.dtd"
   xmlns="http://www.w3.org/2000/svg"
   xmlns:svg="http://www.w3.org/2000/svg">
  <defs
     id="defs1" />
  <sodipodi:namedview
     id="namedview1"
     pagecolor="#ffffff"
     bordercolor="#000000"
     borderopacity="0.25"
     inkscape:showpageshadow="2"
     inkscape:pageopacity="0.0"
     inkscape:pagecheckerboard="0"
     inkscape:deskcolor="#d1d1d1"
     inkscape:zoom="59.069767"
     inkscape:cx="4.7401575"
     inkscape:cy="11.757284"
     inkscape:window-width="1341"
     inkscape:window-height="1020"
     inkscape:window-x="-11"
     inkscape:window-y="6"
     inkscape:window-maximized="0"
     inkscape:current-layer="svg1"
     showguides="true" />
  <path
     style="fill:#000000;stroke:none"
     d="m 7.27,5.72 c 0.01,0.04 0.02,0.09 0.02,0.15 0,0.06 -0.01,0.1 -0.02,0.14 H 1.35 C 1.34,5.97 1.33,5.93 1.33,5.87 1.33,5.81 1.34,5.76 1.35,5.72 Z M 4.89,6.63 v 3.580443 l 0.29,0.02693 c 0.011302,-0.0339 1.0900192,0.195133 1.533622,0.522441 l -4.9051548,-0.0016 c 0,0 0.8106246,-0.349451 1.6291943,-0.531904 C 3.5277873,10.206183 3.6272188,10.21563 3.73,10.210443 V 6.63 Z M 5.9391339,17.35 H 2.7724409 C 2.3919839,15.978832 2.0730576,14.591401 1.6012114,13.248508 1.4827474,12.754203 1.3688258,12.14921 1.4407874,11.522175 h 5.576063 C 7.1545612,12.119528 7.0163797,12.696292 6.8832717,13.248508 6.6070361,14.624026 6.2615806,15.984755 5.9391339,17.35 Z M 1.25,5.11 c -0.4,0.03 -0.53,0.41 -0.54,0.76 0,0.36 0.15,0.7 0.53,0.76 H 3.11 V 9.6643009 C 2.0441977,9.8595782 1.0943495,10.749857 0.96472441,10.759813 H -1.3151968 c -0.21,0 0,0.762362 0,0.762362 v 0 H 0.8207874 C 0.61548214,13.178133 1.8154709,15.717347 2.2724409,17.98 h 4.176693 C 6.8943452,15.853406 7.8121217,13.128973 7.6807093,11.522175 H 9.867481 v 0 c 0,0 0.21,-0.762362 0,-0.762362 H 7.5198425 C 7.4782792,10.634419 6.5944104,9.7850235 5.5,9.6643009 V 6.63 H 7.37 C 7.76,6.57 7.91,6.23 7.91,5.87 7.9,5.52 7.77,5.14 7.37,5.11 Z"
     id="path1"
     sodipodi:nodetypes="csccscccccccsccccccccccccccccssccccccssccccccc" />
</svg>
