<?xml version="1.0" encoding="UTF-8" standalone="no"?>
<svg
   width="18.497"
   height="13.68"
   version="1.1"
   id="svg1"
   sodipodi:docname="US11O42VARC.svg"
   inkscape:version="1.3.2 (091e20e, 2023-11-25, custom)"
   xmlns:inkscape="http://www.inkscape.org/namespaces/inkscape"
   xmlns:sodipodi="http://sodipodi.sourceforge.net/DTD/sodipodi-0.dtd"
   xmlns="http://www.w3.org/2000/svg"
   xmlns:svg="http://www.w3.org/2000/svg">
  <defs
     id="defs1" />
  <sodipodi:namedview
     id="namedview1"
     pagecolor="#ffffff"
     bordercolor="#000000"
     borderopacity="0.25"
     inkscape:showpageshadow="2"
     inkscape:pageopacity="0.0"
     inkscape:pagecheckerboard="0"
     inkscape:deskcolor="#d1d1d1"
     inkscape:zoom="27.44883"
     inkscape:cx="10.820133"
     inkscape:cy="11.056938"
     inkscape:window-width="1345"
     inkscape:window-height="1020"
     inkscape:window-x="8"
     inkscape:window-y="0"
     inkscape:window-maximized="0"
     inkscape:current-layer="svg1" />
  <path
     style="fill:#000000;stroke:none"
     d="M 16.09351,3.143636 C 15.932297,3.097575 15.845934,2.939242 15.834419,2.668636 15.822909,2.39803 15.889119,2.1590907 16.033055,1.951818 16.176994,1.7445453 16.32957,1.6639393 16.490782,1.71 c 0.161212,0.046061 0.244697,0.1957577 0.250455,0.449091 0.0057,0.2533333 -0.06048,0.4922727 -0.198637,0.716818 -0.138181,0.2245453 -0.287878,0.3137877 -0.44909,0.267727 z m -3.23,0 C 12.690783,3.097575 12.598661,2.942121 12.587146,2.677273 c -0.01151,-0.2648487 0.05182,-0.503788 0.19,-0.716818 0.138182,-0.2130307 0.287879,-0.290758 0.449091,-0.233182 0.172727,0.046061 0.264848,0.1928787 0.276363,0.440454 0.01151,0.247576 -0.05182,0.4836367 -0.189999,0.708182 -0.138182,0.2245453 -0.287879,0.3137877 -0.449091,0.267727 z m -3.2127285,0 C 9.4895695,3.1090907 9.4032062,2.956515 9.3916915,2.685909 9.3801762,2.415303 9.4435092,2.173485 9.5816905,1.960455 9.7198725,1.7474243 9.8695695,1.6639393 10.030782,1.71 c 0.172727,0.057576 0.264849,0.2101517 0.276364,0.457727 0.01151,0.247576 -0.0547,0.4836367 -0.198636,0.708182 C 9.9645705,3.1004543 9.8119942,3.1896967 9.6507815,3.143636 Z m -3.212727,0 C 6.2768425,3.097575 6.1904785,2.942121 6.1789635,2.677273 c -0.01151,-0.2648487 0.05182,-0.503788 0.19,-0.716818 0.138182,-0.2130307 0.287879,-0.2965157 0.449091,-0.250455 0.172727,0.046061 0.264849,0.192879 0.276364,0.440455 0.01151,0.2475753 -0.0547,0.4865147 -0.198637,0.716818 -0.143939,0.2303027 -0.296515,0.3224237 -0.457727,0.276363 z M 11.251577,7.279779 9.7198725,12.937273 H 7.3707815 L 8.9024859,7.297051 Z m 3.212727,0 -1.531704,5.657494 H 10.583509 L 12.132486,7.279779 Z M 4.1580545,12.937273 5.6897585,7.297051 h 2.349091 l -1.531704,5.640222 z M 13.778964,13.68 h 4.662739 v -0.742727 h -4.610921 l 1.531704,-5.657494 h 3.04 v -0.76 H 15.569759 L 16.3526,3.782727 C 16.525327,3.7251517 16.721085,3.5265153 16.939873,3.186818 17.158661,2.8471213 17.301423,2.4593548 17.259419,2.029546 17.211532,1.5395478 17.035049,1.2694695 16.640362,1.14 16.245675,1.0105305 15.8776,1.217728 15.653055,1.580455 15.42851,1.9431817 15.319116,2.3260603 15.324873,2.729091 c 0.0057,0.40303 0.07195,0.6793937 0.198637,0.829091 l -0.851933,2.97887 H 12.305214 L 13.105328,3.782727 C 13.28957,3.725152 13.485327,3.5265153 13.6926,3.186818 13.899873,2.8471213 14.08074,2.4571846 14.00351,2.038182 13.936252,1.6732846 13.874172,1.3851867 13.418851,1.1765937 c -0.241693,-0.110725 -0.785645,0.044012 -1.004432,0.4124973 -0.218788,0.3684847 -0.325303,0.7542423 -0.319546,1.157273 0.0057,0.40303 0.07194,0.6793933 0.198636,0.82909 L 11.45885,6.537052 H 9.1097589 L 9.8926005,3.8 C 10.088358,3.730909 10.289873,3.5265153 10.497146,3.186818 10.704419,2.8471213 10.849964,2.4621765 10.808055,2.038182 10.756272,1.5142991 10.517983,1.2791498 10.173922,1.1593207 9.9205885,1.1017447 9.4204785,1.235 9.2016905,1.597727 8.9829032,1.9604543 8.8763882,2.3433333 8.8821455,2.746364 8.8879028,3.149394 8.9598725,3.42 9.0980545,3.558182 l -0.851932,2.97887 h -2.349091 l 0.800114,-2.754325 c 0.184242,-0.057575 0.38,-0.2562117 0.587273,-0.595909 C 7.4916915,2.8471213 7.6488495,2.4580343 7.5953275,2.029546 7.5367855,1.5608638 7.3928975,1.2716453 6.9869555,1.14 6.7336225,1.070909 6.2077515,1.217728 5.9889645,1.580455 c -0.218789,0.3627267 -0.325304,0.7456053 -0.319546,1.148636 0.0058,0.40303 0.07773,0.6793937 0.215909,0.829091 l -0.886478,2.996142 v -0.01727 h -0.207272 c -2.130304,0 -4.38170499,4.52325 -4.83079499,6.400219 V 13.68 Z M 0.72078251,12.937273 C 1.0777515,11.56697 3.0758195,7.2912936 4.7915775,7.279779 h 0.01727 l -1.548977,5.657494 z"
     id="path1"
     sodipodi:nodetypes="ssssccscsscssccsscsscssscsssccccccccccccccccccccccccsszscccccsssscccccsscssccccssccccccscccccccc" />
</svg>
