<?xml version="1.0" encoding="UTF-8" standalone="no"?>
<svg
   width="17.758648"
   height="10.56"
   version="1.1"
   id="svg1"
   sodipodi:docname="US11F37VARA.svg"
   inkscape:version="1.3.2 (091e20e, 2023-11-25, custom)"
   xmlns:inkscape="http://www.inkscape.org/namespaces/inkscape"
   xmlns:sodipodi="http://sodipodi.sourceforge.net/DTD/sodipodi-0.dtd"
   xmlns="http://www.w3.org/2000/svg"
   xmlns:svg="http://www.w3.org/2000/svg">
  <defs
     id="defs1" />
  <sodipodi:namedview
     id="namedview1"
     pagecolor="#ffffff"
     bordercolor="#000000"
     borderopacity="0.25"
     inkscape:showpageshadow="2"
     inkscape:pageopacity="0.0"
     inkscape:pagecheckerboard="0"
     inkscape:deskcolor="#d1d1d1"
     showguides="true"
     inkscape:zoom="71.117421"
     inkscape:cx="8.8796808"
     inkscape:cy="6.4049004"
     inkscape:window-width="1920"
     inkscape:window-height="986"
     inkscape:window-x="-11"
     inkscape:window-y="-11"
     inkscape:window-maximized="1"
     inkscape:current-layer="svg1" />
  <path
     style="fill:#000000;stroke:none"
     d="m 13.324833,6.1177899 h -2.272309 l -0.899366,3.8538532 c -0.04848,0.1211919 -0.1939037,0.1393709 -0.4362837,0.05454 -0.24238,-0.08483 -0.339332,-0.1939065 -0.290856,-0.3272175 L 10.198134,6.1177899 H 8.271214 L 7.3900253,9.9171052 C 7.34155,10.038297 7.193093,10.059506 6.9446543,9.9807324 6.696215,9.9019569 6.5962333,9.7959135 6.6447093,9.6626028 L 7.398646,6.1177899 H 5.435369 L 4.5723603,9.9171052 C 4.5238843,10.050418 4.381486,10.074656 4.1451653,9.9898267 3.9088453,9.9049952 3.8088637,9.8019765 3.8452203,9.6807841 L 4.635516,6.1177899 H 2.690417 L 1.8274083,9.862569 c -0.036357,0.145432 -0.1787556,0.17573 -0.427195,0.090892 C 1.151774,9.868629 1.0517923,9.7656109 1.1002683,9.6444192 L 1.836028,6.1177899 H 0.199963 C 0.06665433,6.0814332 0,5.9360052 0,5.6815059 0,5.4270072 0.06665433,5.3179362 0.199963,5.3542929 h 1.908742 l 0.8630087,-3.908375 c 0.036357,-0.12119 0.175725,-0.1423983 0.418105,-0.063625 0.24238,0.078773 0.3453913,0.178755 0.309034,0.299945 L 2.926738,5.3542929 h 1.945098 l 0.8448307,-3.908375 c 0.048475,-0.12119 0.1939026,-0.1393687 0.436282,-0.054536 0.24238,0.084833 0.3453913,0.187845 0.309034,0.309035 L 5.67169,5.3542929 h 1.981454 l 0.8448317,-3.890197 c 0.060595,-0.1333087 0.2181426,-0.1605763 0.472642,-0.081803 0.254498,0.078773 0.3575086,0.1969337 0.309032,0.354481 L 8.489355,5.3542929 h 1.963279 l 0.863008,-3.85384 c 0.03636,-0.1333087 0.178755,-0.1575467 0.427194,-0.072714 0.248439,0.084833 0.348421,0.1939043 0.299946,0.327213 l -0.772116,3.599341 h 2.054167 c 1.377042,0.065119 2.358015,0.6929436 3.14488,1.681511 0.78678,0.98846 1.214932,2.2897148 1.281586,3.2592491 -0.09841,0.266984 -0.424852,0.499821 -0.764198,-0.01134 C 16.807492,9.4721926 16.76508,8.4141863 15.088146,6.7722159 14.532968,6.3268693 14.04867,6.1508919 13.324833,6.1177899 Z"
     id="path1"
     sodipodi:nodetypes="cccsccccsccccsccccscccscccsccccsccccsccccscccscccc" />
</svg>
