<?xml version="1.0" encoding="UTF-8" standalone="no"?>
<svg
   width="19.263382"
   height="8.64"
   version="1.1"
   id="svg1"
   sodipodi:docname="US11K4VARA.svg"
   inkscape:version="1.3.2 (091e20e, 2023-11-25, custom)"
   xmlns:inkscape="http://www.inkscape.org/namespaces/inkscape"
   xmlns:sodipodi="http://sodipodi.sourceforge.net/DTD/sodipodi-0.dtd"
   xmlns="http://www.w3.org/2000/svg"
   xmlns:svg="http://www.w3.org/2000/svg">
  <defs
     id="defs1" />
  <sodipodi:namedview
     id="namedview1"
     pagecolor="#ffffff"
     bordercolor="#000000"
     borderopacity="0.25"
     inkscape:showpageshadow="2"
     inkscape:pageopacity="0.0"
     inkscape:pagecheckerboard="0"
     inkscape:deskcolor="#d1d1d1"
     inkscape:zoom="32.133506"
     inkscape:cx="17.271691"
     inkscape:cy="10.783137"
     inkscape:window-width="1898"
     inkscape:window-height="964"
     inkscape:window-x="1"
     inkscape:window-y="4"
     inkscape:window-maximized="0"
     inkscape:current-layer="svg1" />
  <rect
     style="fill:none;fill-opacity:1;stroke:#ff0000;stroke-width:0.6;stroke-miterlimit:4;stroke-dasharray:none;stroke-opacity:1"
     id="zone2"
     width="10.579983"
     height="12.671353"
     x="2.4455252"
     y="6.9844236"
     inkscape:label="gravity:t" />
  <g
     id="g15">
    <path
       id="path1"
       style="fill:#000000;stroke:none"
       d="m 15.591179,6.1836189 c 0.514921,0.5008047 0.830251,2.8517068 1.086704,4.5666471 0.01575,0.105298 0.770193,1.236473 0.832001,1.388179 0.06405,-0.187301 -1.439012,-0.252393 -1.580341,0.158494 0.263272,-0.564286 0.50292,-1.544531 0.50292,-1.544531 C 16.21112,9.1760851 15.766668,7.9541793 15.557487,6.8906276 15.204483,6.1115403 14.488504,5.7332656 13.794922,5.5390625 13.10134,5.344858 12.455854,5.2243322 11.859375,5.1757812 11.262895,5.1272306 10.389632,4.9753764 9.2382812,4.71875 8.0869317,4.4621243 7.2088874,4.2532745 6.6054688,4.09375 6.0020547,3.9342249 5.4657782,3.7016608 4.9941406,3.3964844 5.2438304,2.8554896 5.2494903,2.1131956 5.0136719,1.1699219 c 2.6633613,0.3884069 4.556763,1.1323888 5.7343751,1.6748724 2.577461,1.1873436 3.714458,1.7647998 4.843132,3.3388246 z M 14.107422,3.7910156 C 14.246138,3.4997106 14.606844,3.3136987 15.189453,3.2304688 13.719057,2.0513772 12.469857,1.2388161 11.443359,0.79492188 10.416855,0.35102899 9.0680234,0.09191892 7.3964844,0.015625 7.1875426,0.00608818 6.9801035,6.5027033e-4 6.7734375,0 5.3267755,-0.00455189 3.9367108,0.20778264 2.6015625,0.63867188 1.075678,1.1311161 0.20807512,2.1477455 0,3.6875 1.955906,3.2297352 3.4461526,3.2923899 4.4726562,3.875 c 0.8600439,0.9987617 1.463758,1.6100842 1.8105469,1.8320312 0,-0.6519693 0.1670797,-0.9728556 0.5,-0.9589843 1.1374789,0.3884069 2.3866704,0.6807962 3.7460939,0.875 1.414907,1.1374741 2.246404,1.6082643 2.496094,1.4140625 -0.24969,-0.4577656 -0.312345,-0.8526292 -0.1875,-1.1855469 0.305176,0.1109712 0.837321,0.106706 1.404297,0.4375 0.348445,0.2032954 0.593804,0.3953611 0.843747,0.8486344 0.103155,0.2488981 0.878445,3.4873201 0.871166,3.7187401 0.02227,0.116675 -0.823064,1.898379 -0.626322,2.557361 0.11452,0.114142 0.232534,-0.03491 0.53939,-0.34961 0.350238,-0.531692 0.512454,-0.588129 1.07933,-0.598857 0.445228,-0.04233 0.859383,0.191507 1.005045,0.612336 0.135631,0.252546 0.347989,0.344857 0.52194,0.322461 0.07571,-0.689643 -0.339967,-1.180314 -1.292852,-2.736043 C 17.063021,10.467169 16.748377,6.8014287 16.200098,6.0351121 15.761801,5.1794474 14.792742,4.4723681 14.107422,3.7910156 Z M 7.1230469,0.58398438 c 1.2284559,-0.008345 2.3280293,0.17298795 3.3007811,0.54492182 1.414906,0.5409948 2.567292,1.186477 3.455078,1.9355469 l -0.5625,0.3320313 C 12.997358,3.2161519 12.539837,2.9731444 11.943359,2.6679688 11.346877,2.3627924 10.525828,2.0153607 9.4785156,1.6269531 8.4312027,1.2385468 7.0614822,0.93483707 5.3691406,0.71289062 5.980361,0.63052758 6.5646578,0.58777744 7.1230469,0.58398438 Z M 3.4941406,1.2597656 c 0.3717187,-0.015172 0.6425728,0.088162 0.8125,0.3066406 0.1942038,0.2496898 0.2910156,0.4746415 0.2910156,0.6757813 10e-8,0.2011398 -0.04177,0.4545899 -0.125,0.7597656 C 3.6403544,2.5858035 2.4766554,2.5079219 0.97851562,2.7714844 1.1588481,2.424692 1.4806123,2.1029292 1.9453125,1.8046875 2.410014,1.5064471 2.8723139,1.3289241 3.3300781,1.2734375 3.387299,1.2665017 3.441038,1.2619331 3.4941406,1.2597656 Z M 3.2578125,1.4140625 c -0.030561,-1.084e-4 -0.062758,0.00239 -0.095703,0.00586 -0.2635606,0.027743 -0.4363008,0.221367 -0.5195314,0.5820306 0.2219471,0.1664599 0.48584,0.2054003 0.7910157,0.1152344 0.3051769,-0.090167 0.4019888,-0.2363609 0.2910156,-0.4375 C 3.6275078,1.5036913 3.4717402,1.4148211 3.2578125,1.4140625 Z"
       sodipodi:nodetypes="csccscssscccsccccssccccccccscccccccsccssccsscsscscccsssscsss" />
  </g>
</svg>
