<?xml version="1.0" encoding="UTF-8" standalone="no"?>
<!-- Created with Inkscape (http://www.inkscape.org/) -->

<svg
   width="18.000000px"
   height="18.000000px"
   id="svg1290"
   sodipodi:version="0.32"
   inkscape:version="1.3.2 (091e20e, 2023-11-25, custom)"
   sodipodi:docname="US11N35VARC.svg"
   version="1.1"
   xmlns:inkscape="http://www.inkscape.org/namespaces/inkscape"
   xmlns:sodipodi="http://sodipodi.sourceforge.net/DTD/sodipodi-0.dtd"
   xmlns="http://www.w3.org/2000/svg"
   xmlns:svg="http://www.w3.org/2000/svg"
   xmlns:rdf="http://www.w3.org/1999/02/22-rdf-syntax-ns#"
   xmlns:cc="http://creativecommons.org/ns#"
   xmlns:dc="http://purl.org/dc/elements/1.1/">
  <defs
     id="defs3" />
  <sodipodi:namedview
     id="base"
     pagecolor="#ffffff"
     bordercolor="#666666"
     borderopacity="1.0"
     inkscape:pageopacity="0.0"
     inkscape:pageshadow="2"
     inkscape:zoom="19.944444"
     inkscape:cx="8.9749306"
     inkscape:cy="1.9052925"
     inkscape:document-units="px"
     inkscape:current-layer="layer1"
     inkscape:window-width="1520"
     inkscape:window-height="1020"
     inkscape:window-x="96"
     inkscape:window-y="0"
     inkscape:showpageshadow="2"
     inkscape:pagecheckerboard="0"
     inkscape:deskcolor="#d1d1d1"
     showgrid="false"
     inkscape:window-maximized="0" />
  <metadata
     id="metadata4">
    <rdf:RDF>
      <cc:Work
         rdf:about="">
        <dc:format>image/svg+xml</dc:format>
        <dc:type
           rdf:resource="http://purl.org/dc/dcmitype/StillImage" />
        <cc:license
           rdf:resource="http://creativecommons.org/licenses/by/2.0/" />
        <dc:subject>
          <rdf:Bag>
            <rdf:li>JSesh hieroglyph</rdf:li>
          </rdf:Bag>
        </dc:subject>
        <dc:creator>
          <cc:Agent>
            <dc:title>Serge Rosmorduc</dc:title>
          </cc:Agent>
        </dc:creator>
        <dc:description>Sign from Hypostyle Hall, Karnak
</dc:description>
      </cc:Work>
      <cc:License
         rdf:about="http://creativecommons.org/licenses/by/2.0/">
        <cc:permits
           rdf:resource="http://web.resource.org/cc/Reproduction" />
        <cc:permits
           rdf:resource="http://web.resource.org/cc/Distribution" />
        <cc:requires
           rdf:resource="http://web.resource.org/cc/Notice" />
        <cc:requires
           rdf:resource="http://web.resource.org/cc/Attribution" />
        <cc:permits
           rdf:resource="http://web.resource.org/cc/DerivativeWorks" />
        <cc:requires
           rdf:resource="http://web.resource.org/cc/ShareAlike" />
      </cc:License>
    </rdf:RDF>
  </metadata>
  <g
     inkscape:label="Layer 1"
     inkscape:groupmode="layer"
     id="layer1">
    <path
       id="path2133"
       d="M 1.6875000,13.781250 L 1.3125000,14.593750 L 0.12500000,17.250000 L -0.062500000,17.625000 L 0.71875000,18.000000 L 0.90625000,17.593750 L 1.7187500,15.750000 L 2.1250000,16.468750 L 2.5000000,17.218750 L 2.8750000,16.468750 L 3.3125000,15.687500 L 3.7187500,16.468750 L 4.0937500,17.218750 L 4.4687500,16.468750 L 4.8750000,15.687500 L 5.3125000,16.468750 L 5.6875000,17.218750 L 6.0625000,16.468750 L 6.4687500,15.718750 L 6.8750000,16.468750 L 7.2812500,17.218750 L 7.6562500,16.468750 L 8.0625000,15.687500 L 8.4687500,16.468750 L 8.8750000,17.218750 L 9.2500000,16.468750 L 9.6562500,15.687500 L 10.062500,16.468750 L 10.468750,17.218750 L 10.843750,16.468750 L 11.250000,15.687500 L 11.656250,16.468750 L 12.031250,17.218750 L 12.437500,16.468750 L 12.843750,15.687500 L 13.250000,16.468750 L 13.625000,17.218750 L 14.031250,16.468750 L 14.437500,15.687500 L 14.875000,16.500000 L 15.250000,17.187500 L 15.656250,16.500000 L 16.093750,15.656250 L 17.187500,17.625000 L 17.406250,18.000000 L 18.156250,17.593750 L 17.968750,17.218750 L 16.468750,14.531250 L 16.093750,13.875000 L 15.718750,14.562500 L 15.250000,15.375000 L 14.812500,14.562500 L 14.406250,13.843750 L 14.062500,14.562500 L 13.625000,15.343750 L 13.218750,14.562500 L 12.843750,13.812500 L 12.468750,14.562500 L 12.062500,15.343750 L 11.625000,14.562500 L 11.250000,13.812500 L 10.875000,14.562500 L 10.437500,15.343750 L 10.031250,14.562500 L 9.6562500,13.812500 L 9.2812500,14.562500 L 8.8750000,15.343750 L 8.4375000,14.562500 L 8.0625000,13.812500 L 7.6875000,14.562500 L 7.2812500,15.312500 L 6.8750000,14.562500 L 6.4687500,13.812500 L 6.0937500,14.562500 L 5.6875000,15.343750 L 5.2812500,14.562500 L 4.8750000,13.812500 L 4.5000000,14.562500 L 4.0937500,15.343750 L 3.6875000,14.562500 L 3.3125000,13.812500 L 2.9062500,14.562500 L 2.5000000,15.343750 L 2.0937500,14.562500 L 1.6875000,13.781250 z "
       style="opacity:0.99415207;fill:#000000;fill-opacity:1.0000000;fill-rule:nonzero;stroke:none;stroke-width:0.86318368;stroke-linecap:square;stroke-linejoin:miter;stroke-miterlimit:4.0000000;stroke-opacity:1.0000000;display:inline" />
  </g>
</svg>
