<?xml version="1.0" encoding="UTF-8" standalone="no"?>
<svg
   width="23.322735"
   height="14.469024"
   id="svg3145"
   sodipodi:version="0.32"
   inkscape:version="1.3.2 (091e20e, 2023-11-25, custom)"
   sodipodi:docname="US11D238VARC.svg"
   inkscape:output_extension="org.inkscape.output.svg.inkscape"
   version="1.0"
   xmlns:inkscape="http://www.inkscape.org/namespaces/inkscape"
   xmlns:sodipodi="http://sodipodi.sourceforge.net/DTD/sodipodi-0.dtd"
   xmlns="http://www.w3.org/2000/svg"
   xmlns:svg="http://www.w3.org/2000/svg"
   xmlns:rdf="http://www.w3.org/1999/02/22-rdf-syntax-ns#"
   xmlns:cc="http://creativecommons.org/ns#"
   xmlns:dc="http://purl.org/dc/elements/1.1/">
  <metadata
     id="metadata3152">
    <rdf:RDF>
      <cc:Work
         rdf:about="">
        <dc:format>image/svg+xml</dc:format>
        <dc:type
           rdf:resource="http://purl.org/dc/dcmitype/StillImage" />
      </cc:Work>
    </rdf:RDF>
  </metadata>
  <defs
     id="defs3150">
    <inkscape:perspective
       sodipodi:type="inkscape:persp3d"
       inkscape:vp_x="0 : 5.4000001 : 1"
       inkscape:vp_y="0 : 1000 : 0"
       inkscape:vp_z="23.438807 : 5.4000001 : 1"
       inkscape:persp3d-origin="11.719403 : 3.6000001 : 1"
       id="perspective3154" />
  </defs>
  <sodipodi:namedview
     inkscape:window-height="932"
     inkscape:window-width="1245"
     inkscape:pageshadow="2"
     inkscape:pageopacity="0.0"
     guidetolerance="10.0"
     gridtolerance="10.0"
     objecttolerance="10.0"
     borderopacity="1.0"
     bordercolor="#666666"
     pagecolor="#ffffff"
     id="base"
     showgrid="false"
     inkscape:zoom="27.820073"
     inkscape:cx="13.263804"
     inkscape:cy="4.5830218"
     inkscape:window-x="0"
     inkscape:window-y="26"
     inkscape:current-layer="svg3145"
     inkscape:showpageshadow="2"
     inkscape:pagecheckerboard="0"
     inkscape:deskcolor="#d1d1d1"
     inkscape:window-maximized="0" />
  <path
     id="path3147"
     style="fill:#000000;stroke:none"
     d="m 21.347656,1.8046875 c -0.156758,0.00358 -0.327824,0.019734 -0.513672,0.048828 -2.469137,1.8080561 -3.642364,5.82317 -5.466796,8.9843755 -1.058924,-0.111293 -5.6397234,0.276225 -9.9062505,1.15625 -0.5215481,0.04614 -0.5168714,-0.246027 -1.3789063,-0.8125 C 3.8076513,10.870194 3.2165258,10.858225 2.8476174,10.766416 2.4915327,8.9367362 2.3508996,6.9798034 1.9941406,5.1503906 1.9478428,3.4236959 3.0843739,3.0866211 3.671875,4.8066406 4.3574614,4.6480151 4.8227199,4.4873614 3.84375,2.9257812 2.457896,1.4103269 0.63696816,2.8027419 0.65429688,4.6777344 L 1.376578,10.775391 H 0.62695312 c -0.7150088,0.02252 -0.64226083,0.528321 -0.46875,1.0625 0.25614554,0.09164 0.37287151,0.172416 0.375,0.3125 0.00928,0.61127 0.0909993,1.181116 0.21875,1.625 0.12774969,0.443882 0.36217388,0.661667 0.71874998,0.65625 0.010523,-3.04e-4 0.020728,2.92e-4 0.03125,0 0.7949426,0.200975 1.7890625,-0.1875 1.7890625,-0.1875 0.7477268,-0.198039 0.4006583,-0.301643 1.2636719,-0.5 2.4248394,0.307087 4.6048187,0.376578 6.5312505,0.15625 1.926423,-0.22033 5.242848,-0.65644 6.125,-1.28125 2.188776,-2.9137814 5.486949,-6.3222833 5.341796,-10.1093754 -0.04053,-0.1522378 -0.09516,-0.2705205 -0.1875,-0.375 C 22.157462,1.8996853 21.817931,1.7939607 21.347656,1.8046875 Z"
     sodipodi:nodetypes="scccccccccccccsccccsccss" />
  <rect
     style="fill:none;fill-opacity:1;stroke:#ff0000;stroke-width:0.6;stroke-miterlimit:4;stroke-dasharray:none;stroke-opacity:1"
     id="zone2"
     width="10.579983"
     height="12.671353"
     x="5.202239"
     y="-5.4483867"
     inkscape:label="gravity:t" />
</svg>
