<?xml version="1.0" encoding="UTF-8" standalone="no"?>
<svg
   width="19.297203"
   height="15.12"
   id="svg2"
   sodipodi:version="0.32"
   inkscape:version="1.3.2 (091e20e, 2023-11-25, custom)"
   sodipodi:docname="US11F40VARD.svg"
   version="1.1"
   xmlns:inkscape="http://www.inkscape.org/namespaces/inkscape"
   xmlns:sodipodi="http://sodipodi.sourceforge.net/DTD/sodipodi-0.dtd"
   xmlns="http://www.w3.org/2000/svg"
   xmlns:svg="http://www.w3.org/2000/svg"
   xmlns:rdf="http://www.w3.org/1999/02/22-rdf-syntax-ns#"
   xmlns:cc="http://creativecommons.org/ns#"
   xmlns:dc="http://purl.org/dc/elements/1.1/">
  <metadata
     id="metadata9">
    <rdf:RDF>
      <cc:Work
         rdf:about="">
        <dc:format>image/svg+xml</dc:format>
        <dc:type
           rdf:resource="http://purl.org/dc/dcmitype/StillImage" />
      </cc:Work>
    </rdf:RDF>
  </metadata>
  <defs
     id="defs7" />
  <sodipodi:namedview
     inkscape:window-height="986"
     inkscape:window-width="1920"
     inkscape:pageshadow="2"
     inkscape:pageopacity="0.0"
     guidetolerance="10.0"
     gridtolerance="10.0"
     objecttolerance="10.0"
     borderopacity="1.0"
     bordercolor="#666666"
     pagecolor="#ffffff"
     id="base"
     inkscape:zoom="32"
     inkscape:cx="9.09375"
     inkscape:cy="9.328125"
     inkscape:window-x="-11"
     inkscape:window-y="-11"
     inkscape:current-layer="svg2"
     inkscape:showpageshadow="2"
     inkscape:pagecheckerboard="0"
     inkscape:deskcolor="#d1d1d1"
     inkscape:window-maximized="1"
     showguides="true">
    <sodipodi:guide
       position="7.56,15.72"
       orientation="1,0"
       id="guide2"
       inkscape:locked="false" />
    <sodipodi:guide
       position="15.272919,2.9403124"
       orientation="0,-1"
       id="guide5"
       inkscape:locked="false" />
  </sodipodi:namedview>
  <rect
     style="fill:none;fill-opacity:1;stroke:#ff0000;stroke-width:0.523875;stroke-miterlimit:4;stroke-dasharray:none;stroke-opacity:1"
     id="zone2"
     width="10.656108"
     height="9.591011"
     x="4.3548732"
     y="10.912762"
     inkscape:label="gravity:t" />
  <g
     id="g5">
    <path
       id="path4"
       style="fill:#000000;stroke:none"
       d="M 8.7480469,0.00390625 C 8.5147659,0.03906241 8.4229229,0.19436416 8.390625,0.30859375 7.7646776,2.5224148 7.1682891,4.6512296 6.5214844,6.9199219 L 5.34375,6.9609375 C 4.2023107,7.0240441 3.6498999,7.8664888 3.5640344,7.9205375 2.2916818,8.7214292 0.53589115,11.287941 0,14.6875 0.22412871,15.318727 0.78759007,15.194364 1.0117188,14.6973 1.5350676,12.504219 2.6767318,10.370522 3.7634419,9.1436848 4.0210839,9.6125842 3.9210607,9.6898979 4.46875,9.84375 l 10.130859,1.725e-4 C 15.132294,9.70719 15.227726,9.623701 15.439147,9.0764199 c 1.277645,1.0383871 2.20358,3.0433391 2.818665,5.6208461 0.141692,0.572729 1.039059,0.584722 1.039063,0.0332 -0.66607,-3.736523 -2.40265,-5.9631428 -3.73973,-6.8070703 0,0 -0.536129,-0.9057318 -1.596207,-1.0034738 h -1.107422 c 0.58874,-2.2570974 1.043953,-4.1159948 1.652343,-6.60546878 0.01484,-0.0607308 -0.06494,-0.26757791 -0.310547,-0.31054687 z M 13.773438,0.50195312 12.037109,6.9199219 h -0.716797 l 1.736329,-6.41601565 z m -2.041016,0.001953 0.71875,0.003906 -1.705078,6.41210938 H 9.9882812 Z M 9.8183594,0.50585938 8.0390625,6.9199219 H 7.3027344 L 9.0742188,0.51367188 Z m 0.5742186,0 0.726563,0.0117187 L 9.4199219,6.9199219 H 8.6503906 Z M 5.0840041,8.0527344 h 8.9410419 c 0.438381,0.1069117 0.569827,0.1817049 0.603037,0.4050245 -0.130754,0.2852862 -0.140655,0.2986749 -0.562327,0.3840955 l -8.9401055,0.00708 C 4.7984453,8.7970781 4.6610287,8.694166 4.6194658,8.4201519 4.7237321,8.2405108 4.7912755,8.1709054 5.0840041,8.0527344 Z"
       sodipodi:nodetypes="csccsccccccccsccsccccccccccccccccccccccccccccc" />
  </g>
</svg>
