<?xml version="1.0" encoding="UTF-8" standalone="no"?>
<svg
   width="9.289846"
   height="8.88"
   version="1.1"
   id="svg1"
   sodipodi:docname="US11T28VARG.svg"
   inkscape:version="1.3.2 (091e20e, 2023-11-25, custom)"
   xmlns:inkscape="http://www.inkscape.org/namespaces/inkscape"
   xmlns:sodipodi="http://sodipodi.sourceforge.net/DTD/sodipodi-0.dtd"
   xmlns="http://www.w3.org/2000/svg"
   xmlns:svg="http://www.w3.org/2000/svg">
  <defs
     id="defs1" />
  <sodipodi:namedview
     id="namedview1"
     pagecolor="#ffffff"
     bordercolor="#000000"
     borderopacity="0.25"
     inkscape:showpageshadow="2"
     inkscape:pageopacity="0.0"
     inkscape:pagecheckerboard="0"
     inkscape:deskcolor="#d1d1d1"
     inkscape:zoom="84.572071"
     inkscape:cx="4.3986152"
     inkscape:cy="4.3217577"
     inkscape:window-width="1920"
     inkscape:window-height="986"
     inkscape:window-x="-11"
     inkscape:window-y="-11"
     inkscape:window-maximized="1"
     inkscape:current-layer="svg1"
     showguides="true"
     inkscape:lockguides="false">
    <sodipodi:guide
       position="11.320789,1.3551034"
       orientation="0,-1"
       id="guide1"
       inkscape:locked="false" />
    <sodipodi:guide
       position="-0.82769641,9.8022904"
       orientation="1,0"
       id="guide2"
       inkscape:locked="false" />
  </sodipodi:namedview>
  <path
     style="fill:#000000;stroke:none"
     d="M 5.0650846,6.6269822 8.33354,6.6877358 C 7.8261107,4.7751198 7.5203523,3.0055383 7.416265,0.858725 H 5.0151634 m -0.6841673,0 H 1.873582 C 1.7694947,3.0055383 1.4637367,4.7751198 0.956308,6.6877358 L 4.3314083,6.6411048 M 8.587252,0 c 0.3122647,0 0.468397,0.143121 0.468397,0.429363 0,0.28624133 -0.1561323,0.429362 -0.468397,0.429362 0,0 -0.4263298,6.3697e-4 -0.4181089,-0.004067 C 8.2732311,2.7542623 8.67833,5.1068133 9.289846,7.474814 H 0 C 0.61151667,5.1068133 1.0107035,2.7601744 1.1147908,0.86056978 L 0.702594,0.858725 C 0.39033,0.858725 0.234198,0.71560433 0.234198,0.429363 0.234198,0.143121 0.39033,0 0.702594,0 Z"
     id="path1"
     sodipodi:nodetypes="ccccccccssccccccsss" />
</svg>
