<?xml version="1.0" encoding="UTF-8" standalone="no"?>
<svg
   width="19.687"
   height="11.76"
   id="svg4518"
   sodipodi:version="0.32"
   inkscape:version="1.3.2 (091e20e, 2023-11-25, custom)"
   sodipodi:docname="US11U9VARA.svg"
   version="1.1"
   xmlns:inkscape="http://www.inkscape.org/namespaces/inkscape"
   xmlns:sodipodi="http://sodipodi.sourceforge.net/DTD/sodipodi-0.dtd"
   xmlns="http://www.w3.org/2000/svg"
   xmlns:svg="http://www.w3.org/2000/svg"
   xmlns:rdf="http://www.w3.org/1999/02/22-rdf-syntax-ns#"
   xmlns:cc="http://creativecommons.org/ns#"
   xmlns:dc="http://purl.org/dc/elements/1.1/">
  <metadata
     id="metadata4525">
    <rdf:RDF>
      <cc:Work
         rdf:about="">
        <dc:format>image/svg+xml</dc:format>
        <dc:type
           rdf:resource="http://purl.org/dc/dcmitype/StillImage" />
        <cc:license
           rdf:resource="http://creativecommons.org/licenses/GPL/2.0/" />
        <dc:date>6/12/06</dc:date>
        <dc:creator>
          <cc:Agent>
            <dc:title>Serge Thomas</dc:title>
          </cc:Agent>
        </dc:creator>
        <dc:publisher>
          <cc:Agent>
            <dc:title>Serge Rosmorduc</dc:title>
          </cc:Agent>
        </dc:publisher>
        <dc:description>US22U9
FCD p. 86 ( bdt )

U9 d'abord redessiné sous Inkscape seul mais repris pour optimisation car jugé médiocre gabarit pour U10, U11, U12 </dc:description>
      </cc:Work>
      <cc:License
         rdf:about="http://creativecommons.org/licenses/GPL/2.0/">
        <cc:permits
           rdf:resource="http://web.resource.org/cc/Reproduction" />
        <cc:permits
           rdf:resource="http://web.resource.org/cc/Distribution" />
        <cc:requires
           rdf:resource="http://web.resource.org/cc/Notice" />
        <cc:permits
           rdf:resource="http://web.resource.org/cc/DerivativeWorks" />
        <cc:requires
           rdf:resource="http://web.resource.org/cc/ShareAlike" />
        <cc:requires
           rdf:resource="http://web.resource.org/cc/SourceCode" />
      </cc:License>
    </rdf:RDF>
  </metadata>
  <defs
     id="defs4523" />
  <sodipodi:namedview
     inkscape:window-height="886"
     inkscape:window-width="1473"
     inkscape:pageshadow="2"
     inkscape:pageopacity="0.0"
     guidetolerance="10.0"
     gridtolerance="10.0"
     objecttolerance="10.0"
     borderopacity="1.0"
     bordercolor="#666666"
     pagecolor="#ffffff"
     id="base"
     inkscape:zoom="45.336608"
     inkscape:cx="10.234555"
     inkscape:cy="7.135514"
     inkscape:window-x="116"
     inkscape:window-y="21"
     inkscape:current-layer="svg4518"
     inkscape:showpageshadow="2"
     inkscape:pagecheckerboard="0"
     inkscape:deskcolor="#d1d1d1"
     inkscape:window-maximized="0" />
  <path
     id="path4520"
     style="fill:#000000;stroke:none"
     d="M 10.127775,3.1504375 C 9.773423,3.2638295 9.59652,3.7758891 9.59652,4.3145006 V 6.0879381 H 1.3367437 C 0.54437317,6.2202809 0.03775928,7.104874 0.04182268,7.78911 l 0.023437,3.947246 0.88971297,-0.0039 -0.021484,-3.6718554 C 0.93094075,7.6249677 1.1569926,6.97661 1.8679936,6.97661 H 9.59652 v 2.1816406 c 0,0.5386121 -0.0399,1.1756664 0.3144565,1.2890574 1.0550825,0.06819 6.5536595,0.02008 9.4277315,-0.03125 0.368516,-0.11339 0.302735,-0.7191954 0.302735,-1.2578075 v -4.84375 c 0,-0.5386115 -0.08315,-1.1131712 -0.4375,-1.2265632 -2.082847,-0.099724 -7.250621,0.00515 -9.076168,0.0625 z m 6.318359,0.7167975 v 5.7382812 l -3.655339,0.044922 -0.05391,-5.7304688 c 0,0 3.672265,-0.00568 3.709218,-0.052734 z m 0.871094,0.044115 c 0,0 0.0057,-0.011904 1.431641,0.00276 l 0.08456,5.7229945 c 0.01684,-0.025349 -1.516198,-0.031588 -1.516198,-0.031588 z m -5.443359,0.045729 0.04883,5.6484375 -1.433594,-0.027344 V 4.00786 c 0.231082,-0.032912 1.384764,-0.050781 1.384764,-0.050781 z"
     sodipodi:nodetypes="csccccccscsccsscccccccccccccccccc" />
  <g
     id="path1"
     transform="matrix(1,0,0,0.88826998,0,0.38938387)" />
</svg>
