<?xml version="1.0" encoding="UTF-8" standalone="no"?>
<svg
   width="1800"
   height="1452"
   version="1.1"
   id="svg4"
   sodipodi:docname="US11W17VARF.svg"
   inkscape:version="1.3.2 (091e20e, 2023-11-25, custom)"
   xmlns:inkscape="http://www.inkscape.org/namespaces/inkscape"
   xmlns:sodipodi="http://sodipodi.sourceforge.net/DTD/sodipodi-0.dtd"
   xmlns="http://www.w3.org/2000/svg"
   xmlns:svg="http://www.w3.org/2000/svg"
   xmlns:rdf="http://www.w3.org/1999/02/22-rdf-syntax-ns#"
   xmlns:cc="http://creativecommons.org/ns#"
   xmlns:dc="http://purl.org/dc/elements/1.1/">
  <sodipodi:namedview
     id="namedview1"
     pagecolor="#ffffff"
     bordercolor="#000000"
     borderopacity="0.25"
     inkscape:showpageshadow="2"
     inkscape:pageopacity="0.0"
     inkscape:pagecheckerboard="0"
     inkscape:deskcolor="#d1d1d1"
     inkscape:zoom="0.41722222"
     inkscape:cx="898.8016"
     inkscape:cy="900"
     inkscape:window-width="1317"
     inkscape:window-height="1020"
     inkscape:window-x="14"
     inkscape:window-y="49"
     inkscape:window-maximized="0"
     inkscape:current-layer="svg4" />
  <title
     id="title1000">US11W17VARC</title>
  <defs
     id="defs8" />
  <path
     id="path2"
     style="fill:#000000;stroke:none;stroke-width:99.3717"
     d="m 1427.7617,32.896484 -1056.48826,1.337891 1.33984,107.650395 171.30664,-0.75586 v 290.24804 c -86.122,10.59963 -167.27608,49.68516 -243.46094,117.25782 -76.18484,67.57264 -114.27734,199.07517 -114.27734,394.50585 V 1449.5996 H 291.51562 V 941.15234 c 1.32495,-165.61922 33.12365,-273.27126 95.39649,-322.95703 61.61035,-49.02328 113.9468,-76.84789 157.00781,-83.47265 V 1447.6113 H 649.25391 V 532.20703 H 846.00977 V 1447.6113 H 951.34375 V 532.20703 h 195.76175 v 915.40427 h 105.334 V 534.72266 c 43.0608,6.62476 95.7292,34.44937 158.0019,83.47265 61.6103,49.68577 93.0775,157.33781 94.4024,322.95703 v 508.44726 h 105.3339 V 943.14062 c 0,-195.43068 -38.0924,-326.93321 -114.2773,-394.50585 -76.1848,-67.57266 -157.3389,-106.65819 -243.4609,-117.25782 l -1.3379,-291.58593 176.6601,-0.58399 z M 649.25391,138.23047 h 196.75586 v 111.18558 l -196.75586,-0.85938 z m 302.08984,0 H 1147.1055 V 250.7305 l -195.76175,-0.85547 z m -302.08984,188.03128 196.75586,0.83984 v 99.94724 H 649.25391 Z m 302.08984,1.28906 195.76175,0.83789 v 98.66013 H 951.34375 Z"
     sodipodi:nodetypes="cccccssccccccccccccccccccccsscccccccccccccccccccccccc" />
  <metadata
     id="metadata998">
    <rdf:RDF>
      <cc:Work
         rdf:about="">
        <dc:title>US11W17VARC</dc:title>
      </cc:Work>
    </rdf:RDF>
  </metadata>
  <g
     id="path1">
    <path
       style="color:#000000;fill:#000000;fill-opacity:0;-inkscape-stroke:none"
       d="M 654.32756,270.83888 H 1150.466"
       id="path3" />
  </g>
</svg>
