<?xml version="1.0" encoding="UTF-8" standalone="no"?>
<!-- Created with Inkscape (http://www.inkscape.org/) -->

<svg
   id="svg1342"
   sodipodi:version="0.32"
   inkscape:version="1.3.2 (091e20e, 2023-11-25, custom)"
   width="11.28pt"
   height="10.89pt"
   version="1.0"
   sodipodi:docname="US11M36VARA.svg"
   xmlns:inkscape="http://www.inkscape.org/namespaces/inkscape"
   xmlns:sodipodi="http://sodipodi.sourceforge.net/DTD/sodipodi-0.dtd"
   xmlns="http://www.w3.org/2000/svg"
   xmlns:svg="http://www.w3.org/2000/svg"
   xmlns:rdf="http://www.w3.org/1999/02/22-rdf-syntax-ns#"
   xmlns:cc="http://creativecommons.org/ns#"
   xmlns:dc="http://purl.org/dc/elements/1.1/">
  <metadata
     id="metadata1347">
    <rdf:RDF>
      <cc:Work
         rdf:about="">
        <dc:format>image/svg+xml</dc:format>
        <dc:type
           rdf:resource="http://purl.org/dc/dcmitype/StillImage" />
        <dc:creator>
          <cc:Agent>
            <dc:title>Serge Thomas</dc:title>
          </cc:Agent>
        </dc:creator>
        <dc:publisher>
          <cc:Agent>
            <dc:title>Serge Rosmorduc</dc:title>
          </cc:Agent>
        </dc:publisher>
        <dc:date>18/03/06</dc:date>
        <dc:description>KV57
valeur phonétique :Dr</dc:description>
        <cc:license
           rdf:resource="http://creativecommons.org/licenses/GPL/2.0/" />
      </cc:Work>
      <cc:License
         rdf:about="http://creativecommons.org/licenses/GPL/2.0/">
        <cc:permits
           rdf:resource="http://web.resource.org/cc/Reproduction" />
        <cc:permits
           rdf:resource="http://web.resource.org/cc/Distribution" />
        <cc:requires
           rdf:resource="http://web.resource.org/cc/Notice" />
        <cc:permits
           rdf:resource="http://web.resource.org/cc/DerivativeWorks" />
        <cc:requires
           rdf:resource="http://web.resource.org/cc/ShareAlike" />
        <cc:requires
           rdf:resource="http://web.resource.org/cc/SourceCode" />
      </cc:License>
    </rdf:RDF>
  </metadata>
  <defs
     id="defs1345" />
  <sodipodi:namedview
     inkscape:window-height="952"
     inkscape:window-width="1310"
     inkscape:pageshadow="2"
     inkscape:pageopacity="0.0"
     borderopacity="1.0"
     bordercolor="#666666"
     pagecolor="#ffffff"
     id="base"
     inkscape:zoom="64.756944"
     inkscape:cx="5.8758177"
     inkscape:cy="3.1888472"
     inkscape:window-x="0"
     inkscape:window-y="0"
     inkscape:current-layer="svg1342"
     inkscape:showpageshadow="2"
     inkscape:pagecheckerboard="0"
     inkscape:deskcolor="#d1d1d1"
     inkscape:document-units="pt"
     inkscape:window-maximized="0" />
  <path
     style="fill:#000000;stroke:none"
     d="m 11.234245,6.5544253 c -0.0036,0.00241 -0.0071,0.00456 -0.01044,0.00645 -9.7e-5,5.69e-5 -1.48e-4,8.71e-5 -1.6e-4,8.61e-5 -1.05e-4,-7.9e-6 0.0051,-0.00349 0.0106,-0.00654 z m 0.953472,-2.0029149 c 0.05991,0.00455 0.113757,0.020901 0.158593,0.047195 0.099,0.05807 0.164668,0.1731708 0.133932,0.3698099 -0.0392,0.2506257 -0.227962,0.5880818 -0.662176,0.9897005 l -0.0076,0.00703 -0.0074,0.0079 c -0.35969,0.384714 -0.492445,0.5273879 -0.562353,0.5768607 l -2e-6,-1e-7 c -0.06467,5.899e-4 -0.141564,0.00311 -0.254719,0.0296 l -0.0027,6.229e-4 v 0 c -0.100759,0.00317 -0.201379,0.00636 -0.301866,0.00955 v 0 c -5.48e-4,-0.031778 -0.0011,-0.063556 -0.0016,-0.095335 v 0 c 0.18173,-0.3319168 0.435889,-0.7660716 0.605164,-1.0803707 l 0.01096,-0.02025 0.0078,-0.022159 c 0.141266,-0.4025658 0.356497,-0.6361898 0.565315,-0.7454806 0.11362,-0.059462 0.223768,-0.081883 0.318699,-0.074673 z m -1.87328,-1.2522988 c -0.0075,0.7445642 -0.01487,1.4853797 -0.02225,2.2261929 0.0025,0.1480689 0.0051,0.2961083 0.0076,0.4441186 l -0.04787,0.1981345 -6.5858659,0.1937818 c -0.00527,8.514e-4 -0.01046,0.00177 -0.015573,0.00276 v 0 C 3.6080205,6.2512425 3.565003,6.1423581 3.526259,5.9972372 l -0.0035,-0.013231 -0.00556,-0.012816 C 3.1377906,5.0961171 2.7583756,4.2210454 2.3789606,3.3459726 l -2e-6,-1e-7 C 2.3044011,3.050899 2.08224,2.8123987 1.9185671,2.5584869 v 0 c 0.2500532,-0.00623 0.589596,-0.011247 0.9892822,-0.015255 0.849617,-0.00852 1.9710478,-0.012483 3.0886512,-0.013988 1.9299089,-0.0026 3.84771,0.00215 4.3376915,0.0035 0.02554,0.2675225 -0.01185,0.4840753 -0.01975,0.7664677 z m 0.604371,3.8991614 0.803882,1.2367691 v 0 c -0.231136,0.09874 -0.462272,0.1974755 -0.693411,0.2962125 v 0 L 10.908707,7.6174025 v 0 c -0.0021,-0.1390606 -0.0041,-0.2781193 -0.0062,-0.4171775 v 0 c 0.0054,-6.128e-4 0.01087,-0.00123 0.0163,-0.00185 z m -0.763819,-0.00406 c 0.05327,-0.00172 0.106575,-0.00343 0.15991,-0.00515 v -1.6e-6 c 0.01006,0.677566 0.02013,1.3551294 0.0302,2.0326945 l 0.0058,0.4375981 0.01224,-0.00522 v 0 l 0.02358,1.3711524 v 0 l -6.3449519,-0.09114 v 0 C 3.9741576,9.843052 3.9311054,8.4910996 3.8634667,7.4006096 v 0 c 0.080954,-0.00254 0.1618149,-0.00509 0.242589,-0.00765 M 10.774559,2.0539803 c 0,0 -9.3778275,0.041508 -9.429384,0.08931 0.00233,0.5234485 0.3094972,0.7243723 0.6101091,1.1570483 l 0.00151,0.00348 v 0 l -0.00198,0.026069 0.013722,0.00104 c 0.3975349,0.917883 0.800214,1.8466146 1.2029147,2.7753909 v 0 c 0.2769797,1.0161059 0.2140023,0.6322853 0.2140023,0.6322853 l 0.054597,0.3494207 c 0.037371,0.1313183 0.016998,-0.055087 0.043356,0.1791483 0.076859,1.1642893 0.1214258,2.689114 0.1990711,3.8621872 l 0.011179,0.170891 0.1712345,0.0025 6.7078583,0.09635 0.191549,0.0031 -0.0027,-0.151863 v 0 l 0.03218,-4.77e-4 0.324038,-0.0048 0.18335,-0.0024 -0.01984,-0.182546 -0.18597,-1.7181727 v 0 C 11.488387,9.1739666 11.881417,9.0060692 12.274449,8.838176 L 12.596351,8.701598 12.405601,8.4079921 C 12.113912,7.9592282 11.82222,7.5104631 11.530528,7.0616981 v 0 c 0.002,-0.00123 0.004,-0.00249 0.006,-0.00379 v 0 l 0.534466,-0.5120214 v 0 c 0.04722,-0.049993 0.09836,-0.1044619 0.153881,-0.1638178 0,0 0.776344,-0.9435138 0.835688,-1.322543 C 13.128673,4.624604 12.950338,4.2718363 12.643214,4.0918635 12.521306,4.0204235 12.38142,3.9778148 12.233165,3.9665548 12.028446,3.9510068 11.80778,3.9952338 11.596474,4.1058724 11.2604,4.2818323 10.948642,4.6246548 10.757383,5.1549754 v 0 c -0.02872,0.053069 -0.0597,0.1093231 -0.09221,0.1677459 v 0 c 0.0075,-1.0900403 0.07168,-2.1795077 0.109386,-3.268741 z"
     id="path1335"
     sodipodi:nodetypes="csccccscssccccccccccccssccssccccccccccccccccsccccccssssccccccccccccccccccssccccccccscccccccccscccccccccccccccccccc" />
</svg>
