<?xml version="1.0" encoding="UTF-8" standalone="no"?>
<!-- Created with Inkscape (http://www.inkscape.org/) -->

<svg
   width="1833.946"
   height="1799.0642"
   id="svg2"
   sodipodi:version="0.32"
   inkscape:version="1.3.2 (091e20e, 2023-11-25, custom)"
   version="1.0"
   sodipodi:docname="US11G4VARB.svg"
   inkscape:output_extension="org.inkscape.output.svg.inkscape"
   xmlns:inkscape="http://www.inkscape.org/namespaces/inkscape"
   xmlns:sodipodi="http://sodipodi.sourceforge.net/DTD/sodipodi-0.dtd"
   xmlns="http://www.w3.org/2000/svg"
   xmlns:svg="http://www.w3.org/2000/svg"
   xmlns:rdf="http://www.w3.org/1999/02/22-rdf-syntax-ns#"
   xmlns:cc="http://creativecommons.org/ns#"
   xmlns:dc="http://purl.org/dc/elements/1.1/">
  <defs
     id="defs4">
    <inkscape:perspective
       sodipodi:type="inkscape:persp3d"
       inkscape:vp_x="0 : 900 : 1"
       inkscape:vp_y="0 : 1000 : 0"
       inkscape:vp_z="1800 : 900 : 1"
       inkscape:persp3d-origin="900 : 600 : 1"
       id="perspective2387" />
  </defs>
  <sodipodi:namedview
     id="base"
     pagecolor="#ffffff"
     bordercolor="#666666"
     borderopacity="1.0"
     inkscape:pageopacity="0.0"
     inkscape:pageshadow="2"
     inkscape:zoom="0.16000001"
     inkscape:cx="296.87499"
     inkscape:cy="331.24999"
     inkscape:document-units="px"
     inkscape:current-layer="layer3"
     width="1800px"
     height="1800px"
     inkscape:window-width="1537"
     inkscape:window-height="953"
     inkscape:window-x="25"
     inkscape:window-y="0"
     showgrid="false"
     inkscape:snap-intersection-line-segments="true"
     inkscape:object-paths="true"
     inkscape:object-nodes="true"
     objecttolerance="4"
     gridtolerance="5"
     guidetolerance="3"
     inkscape:showpageshadow="2"
     inkscape:pagecheckerboard="0"
     inkscape:deskcolor="#d1d1d1"
     inkscape:window-maximized="0"
     showguides="false" />
  <metadata
     id="metadata7">
    <rdf:RDF>
      <cc:Work
         rdf:about="">
        <dc:format>image/svg+xml</dc:format>
        <dc:type
           rdf:resource="http://purl.org/dc/dcmitype/StillImage" />
        <dc:creator>
          <cc:Agent>
            <dc:title>S. Rosmorduc</dc:title>
          </cc:Agent>
        </dc:creator>
        <dc:description>G1 sign from Sethy temple in Abydos.</dc:description>
      </cc:Work>
    </rdf:RDF>
  </metadata>
  <g
     inkscape:groupmode="layer"
     id="layer3"
     inkscape:label="dessinCourant"
     style="display:inline"
     transform="translate(3.0937474,-9.6232905)">
    <path
       style="display:inline;fill:#000000;fill-opacity:1;fill-rule:evenodd;stroke:none;stroke-width:62.0354;stroke-linecap:butt;stroke-linejoin:miter;stroke-miterlimit:4;stroke-opacity:1"
       d="m 297.82501,282.86435 c -69.25363,31.92718 -139.40063,7.59582 -212.031017,32.51886 -52.47571,22.21886 -67.17257,67.314 -88.8877404,112.3935 129.6139774,-40.72452 210.3030074,19.8533 327.7931274,48.02048 -0.15436,42.38946 -7.19372,90.4923 -10.54456,138.95633 -3.03916,28.78151 2.86383,83.84825 2.86383,83.84825 -49.72997,-2.88951 -97.95057,61.08231 -97.95057,61.08231 -73.15024,89.16847 -161.204057,623.45332 -79.48499,638.02142 70.32166,12.5363 -5.96021,-296.8694 112.96509,-578.35451 28.66858,-67.85586 78.8991,-44.18018 78.8991,-44.18018 0,0 79.21048,114.92717 148.08605,168.28116 75.89402,159.59593 180.91231,282.05103 257.57211,406.57883 -9.13982,55.9276 -64.2702,267.0534 -91.45263,342.844 -74.71001,11.8533 -156.52161,16.5159 -232.83516,10.822 -44.46005,-5.9 -93.76123,67.7438 -142.06649,106.3312 l 944.47864,6.9663 c -25.4686,-85.0499 -211.6593,-127.8544 -260.707,-122.6571 21.0519,-56.8602 47.2979,-110.2735 54.7746,-189.6888 26.3603,22.2723 55.9204,46.3683 92.8206,48.8712 45.1142,-3.2053 63.4186,-32.3061 69.1381,-70.2756 102.1932,159.6216 216.4791,289.9605 426.1139,309.1286 72.4395,-3.3461 162.7134,-33.2601 182.2499,-105.9588 96.088,-5.11 25.6246,-93.5217 -10.0316,-128.1611 -261.4829,-267.2684 -477.302,-572.3728 -735.668,-841.63508 -99.5042,-92.69779 -211.85279,-155.39691 -350.99107,-207.39751 -10.35762,-24.024 -13.75506,-58.19863 -20.49064,-95.80169 -7.34974,-41.02075 -30.52784,-108.16856 -72.89991,-129.06506 -21.1081,-7.31494 -68.87617,7.66567 -64.97696,-14.25335 C 540.8707,178.42065 693.13785,114.59684 672.48665,74.487626 661.85722,53.842909 500.98818,119.51776 465.7321,267.63494 462.36299,281.78918 361.60962,23.632951 275.74937,82.024896 246.39314,101.98952 389.25571,192.56331 401.46508,271.84062 c 1.34902,8.7594 -69.86257,8.05951 -103.64007,11.02373 z m 152.55405,40.49569 c 10.33864,45.51379 -8.69453,98.04373 -45.25608,113.53683 l 11.68451,23.55825 c 45.6741,-20.49687 89.56475,-81.87102 96.09793,-136.96213 62.36129,3.49697 79.41545,47.85153 89.17273,99.31148 11.69161,35.16653 -0.16832,120.51529 47.02302,135.2604 139.38058,50.96679 245.92853,109.90721 341.55813,198.99525 165.0198,194.88714 337.475,383.64648 502.4907,578.74528 64.1217,75.9122 122.757,145.4614 170.3657,197.9317 C 1412.9095,1356.8314 1132.8916,1221.518 858.181,1080.9152 712.17459,1006.0009 572.86689,944.73648 572.86689,779.79407 c 0,-88.6938 173.09093,-163.01729 165.94848,-174.55956 -7.58172,-12.25201 -223.17407,50.27241 -223.17407,196.52244 0,37.19275 10.54088,71.71406 28.86928,103.88485 -0.27534,-0.0186 -0.54816,-0.0376 -0.82646,-0.0531 C 344.20019,805.77126 375.8727,603.84673 383.60639,425.83567 300.71455,421.50274 232.42641,378.77921 153.70661,361.01066 c 61.0608,-7.45969 121.92627,-17.08421 183.13325,-23.05303 -11.48453,2.17272 -21.98811,8.47707 -28.98326,17.28313 -1.96996,37.5131 88.6858,33.5222 84.55592,5.58379 -10.05968,-14.79444 -28.63747,-24.24952 -47.422,-23.69119 30.43913,-4.12016 70.987,-10.23392 105.38854,-13.77332 z M 570.33049,987.0586 c 123.9285,131.5087 226.53828,281.5695 317.98961,433.9927 19.2136,22.3842 -2.4072,42.8734 -18.2677,64.1336 C 809.79838,1304.4906 671.1111,1165.068 570.33049,987.0586 Z m 152.09808,86.8411 c 284.45203,143.0983 566.11383,287.5452 835.12873,455.4768 63.3632,48.4987 119.8158,102.5518 158.0542,153.0753 -25.3576,37.212 -73.6191,49.9896 -118.2415,52.8067 -227.7076,-7.4978 -316.8379,-214.8065 -437.1144,-362.9192 l -65.4333,-75.0352 11.2855,96.1473 c 0.844,18.7896 22.8846,113.6664 -16.6433,97.3706 L 974.3864,1360.7198 c -12.3087,7.6611 -23.895,16.3663 -36.5924,23.4783 -57.0866,-109.0942 -140.64191,-210.6547 -215.36543,-310.2984 z m 76.37676,394.5338 c 17.86657,41.0091 27.13567,84.4429 37.24797,127.4964 29.0569,-22.2181 57.2328,-45.0403 81.0791,-72.2169 -15.5344,79.7415 -44.5217,160.148 -114.82172,160.148 -42.54914,0 -62.25859,-27.1473 -34.96802,-109.4686 12.85458,-38.7756 23.0894,-75.8635 31.46267,-105.9589 z"
       id="path4951"
       sodipodi:nodetypes="cccccsssscccccccccscscsscccsssssccccccccccssssccccccccccscccccscccsccccccssc" />
  </g>
</svg>
