<?xml version="1.0" encoding="UTF-8" standalone="no"?>
<svg
   width="19.937496"
   height="17.972734"
   version="1.1"
   id="svg1"
   sodipodi:docname="US11D34VARA.svg"
   inkscape:version="1.3.2 (091e20e, 2023-11-25, custom)"
   xmlns:inkscape="http://www.inkscape.org/namespaces/inkscape"
   xmlns:sodipodi="http://sodipodi.sourceforge.net/DTD/sodipodi-0.dtd"
   xmlns="http://www.w3.org/2000/svg"
   xmlns:svg="http://www.w3.org/2000/svg">
  <defs
     id="defs1" />
  <sodipodi:namedview
     id="namedview1"
     pagecolor="#ffffff"
     bordercolor="#000000"
     borderopacity="0.25"
     inkscape:showpageshadow="2"
     inkscape:pageopacity="0.0"
     inkscape:pagecheckerboard="0"
     inkscape:deskcolor="#d1d1d1"
     inkscape:zoom="41.785517"
     inkscape:cx="21.574461"
     inkscape:cy="12.097493"
     inkscape:window-width="1920"
     inkscape:window-height="986"
     inkscape:window-x="-11"
     inkscape:window-y="-11"
     inkscape:window-maximized="1"
     inkscape:current-layer="svg1" />
  <path
     style="fill:#000000;stroke:none"
     d="M 0.83063986,4.8526408 C 0.85211255,3.9293101 0.04163322,2.051511 0.80141176,1.9572432 1.058603,1.9253328 1.5076015,1.1492131 0.96853251,2.4369508 0.48539466,3.1240801 0.86359155,3.9293101 0.90653693,4.8526408 V 17.092142 c 0,0.38651 0.75154827,0.579765 0.45092897,0.579765 -0.94165852,-0.01531 -1.30864138,0.177805 -0.52682604,-0.547556 z m 0.80522994,2.351271 0.225465,0.386511 c 0.5582927,0.4079833 1.481623,0.5153473 2.769991,0.322092 1.288368,-0.1932553 2.2224347,-0.289883 2.8022,-0.289883 0.579766,0 0.98775,-0.4616653 1.223951,-1.384996 0.2362,-0.92333 0.579765,-1.7124553 1.0306892,-2.367376 0.450925,-0.6549207 0.692494,-1.1648997 0.724703,-1.529937 0.03221,-0.365038 0.171782,-0.713971 0.41872,-1.0467991 0.246937,-0.3328287 0.585134,-0.49924303 1.014589,-0.49924303 0.493875,0 1.030695,0.31135573 1.610461,0.93406713 2.630503,2.7840875 3.944492,5.4999429 3.955341,5.4613445 0.365108,0.6025896 0.134364,1.7514058 0.134091,1.723193 l 0.02364,2.4460197 c 0,0 0.06382,2.226658 0.03161,2.452123 -0.03221,0.225465 0.174447,0.189031 0.04562,0.704378 l -0.01656,0.612875 c 0.536819,-0.02147 0.756051,-0.06442 1.614963,-0.128836 0.128838,0.429456 0.128838,0.943902 0,1.351885 -0.858912,-0.08589 -0.978399,-0.128836 -1.794365,-0.128836 -0.171782,0.214728 -0.499242,0.322092 -0.98238,0.322092 -0.483139,0 -0.767653,-0.03221 -0.853544,-0.09663 -0.08589,0.107365 -0.20936,0.187888 -0.370407,0.241569 -0.161045,0.05368 -0.327459,0.02684 -0.499241,-0.08052 l 0.128836,-0.386511 H 7.0380614 c -1.1595313,0.02147 -1.739297,-0.09663 -1.739297,-0.354302 -0.021473,-0.193255 0.1395727,-0.497891 0.483138,-0.626728 2.9399024,-0.1787 6.3605026,-0.161046 9.3039466,-0.161046 0.08589,-0.128837 0.177597,-0.253657 0.370856,-0.66164 0.193255,-0.407983 0.212062,-0.387654 0.630781,-0.752691 0.418721,-0.365038 0.07295,-2.82253 0.07295,-2.82253 -0.01173,-0.0054 -0.238121,-2.2950348 -0.297421,-2.2688687 -0.0027,-0.4138135 -0.02437,-0.8240369 -0.989171,-1.787611 C 14.202369,6.1164587 13.714311,5.0620001 13.39222,4.3856068 13.070128,3.7092135 12.785613,3.2529165 12.538676,3.0167158 12.291739,2.7805151 12.103852,2.6624148 11.975015,2.6624148 10.665174,5.9906988 9.84921,7.9125145 9.5271216,8.4278618 9.1835598,8.7284805 8.6360028,8.9539448 7.8844558,9.1042548 c -0.751548,0.15031 -1.8037153,0.2147287 -3.156502,0.193256 -1.3527867,-0.021473 -2.1580167,-0.016105 -2.41569,0.016104 -0.257674,0.032209 -0.4831387,0.05905 -0.676394,0.080523 V 17.671907 C 1.6123668,18.21248 0.10130712,18.108884 0.10130712,17.092142 L 0.06909812,4.8526408 C 0.09057072,3.8648915 0.15591282,3.1543537 0.14539662,2.5013688 0.13490332,1.8498083 0.18132322,1.3939279 0.77659597,0.96193991 1.3718688,0.52995199 2.406525,0.49446295 3.0385254,0.59351238 3.8051984,0.71366819 5.6275913,0.65464579 4.6241204,2.608247 4.2510983,2.1559741 2.2161293,1.6905718 1.8137501,2.3128958 1.3994868,2.9535997 1.6358698,4.2514021 1.6358698,4.8526408 Z"
     id="path1"
     sodipodi:nodetypes="csscssccccsssssssccccscccccscsccccccssccsssccsssccccssscssc" />
</svg>
