<?xml version="1.0" encoding="UTF-8" standalone="no"?>
<!-- Created with Inkscape (http://www.inkscape.org/) -->

<svg
   sodipodi:docname="US11D19VARB.svg"
   inkscape:version="1.3.2 (091e20e, 2023-11-25, custom)"
   sodipodi:version="0.32"
   id="svg1290"
   height="1800.000000px"
   width="1800.000000px"
   inkscape:output_extension="org.inkscape.output.svg.inkscape"
   version="1.1"
   xmlns:inkscape="http://www.inkscape.org/namespaces/inkscape"
   xmlns:sodipodi="http://sodipodi.sourceforge.net/DTD/sodipodi-0.dtd"
   xmlns="http://www.w3.org/2000/svg"
   xmlns:svg="http://www.w3.org/2000/svg"
   xmlns:rdf="http://www.w3.org/1999/02/22-rdf-syntax-ns#"
   xmlns:cc="http://creativecommons.org/ns#"
   xmlns:dc="http://purl.org/dc/elements/1.1/">
  <defs
     id="defs3">
    <inkscape:perspective
       sodipodi:type="inkscape:persp3d"
       inkscape:vp_x="0 : 900 : 1"
       inkscape:vp_y="0 : 1000 : 0"
       inkscape:vp_z="1800 : 900 : 1"
       inkscape:persp3d-origin="900 : 600 : 1"
       id="perspective9" />
  </defs>
  <sodipodi:namedview
     inkscape:window-y="22"
     inkscape:window-x="0"
     inkscape:window-height="800"
     inkscape:window-width="1273"
     inkscape:current-layer="layer2"
     inkscape:document-units="px"
     inkscape:cy="1281.4545"
     inkscape:cx="1196.2308"
     inkscape:zoom="0.3226802"
     inkscape:pageshadow="2"
     inkscape:pageopacity="0.0"
     borderopacity="1.0"
     bordercolor="#666666"
     pagecolor="#ffffff"
     id="base"
     showgrid="false"
     inkscape:showpageshadow="2"
     inkscape:pagecheckerboard="0"
     inkscape:deskcolor="#d1d1d1"
     inkscape:window-maximized="0" />
  <metadata
     id="metadata4">
    <rdf:RDF>
      <cc:Work
         rdf:about="">
        <dc:format>image/svg+xml</dc:format>
        <dc:type
           rdf:resource="http://purl.org/dc/dcmitype/StillImage" />
        <cc:license
           rdf:resource="http://creativecommons.org/licenses/by/2.0/" />
        <dc:subject>
          <rdf:Bag>
            <rdf:li>JSesh hieroglyph</rdf:li>
          </rdf:Bag>
        </dc:subject>
        <dc:creator>
          <cc:Agent>
            <dc:title>Serge Rosmorduc</dc:title>
          </cc:Agent>
        </dc:creator>
        <dc:description>from an original sign in Nefertary's tomb.</dc:description>
      </cc:Work>
      <cc:License
         rdf:about="http://creativecommons.org/licenses/by/2.0/">
        <cc:permits
           rdf:resource="http://web.resource.org/cc/Reproduction" />
        <cc:permits
           rdf:resource="http://web.resource.org/cc/Distribution" />
        <cc:requires
           rdf:resource="http://web.resource.org/cc/Notice" />
        <cc:requires
           rdf:resource="http://web.resource.org/cc/Attribution" />
        <cc:permits
           rdf:resource="http://web.resource.org/cc/DerivativeWorks" />
        <cc:requires
           rdf:resource="http://web.resource.org/cc/ShareAlike" />
      </cc:License>
    </rdf:RDF>
  </metadata>
  <g
     id="layer1"
     inkscape:groupmode="layer"
     inkscape:label="Layer 1" />
  <g
     inkscape:label="dessin"
     id="layer2"
     inkscape:groupmode="layer">
    <path
       sodipodi:nodetypes="cssssccsssccssscccssss"
       id="path1351"
       d="m 1667.1083,961.4375 c -15.5591,-118.40137 -48.0346,-297.2219 -229.1129,-297.2219 -321.3575,0 -565.8025,224.68576 -755.61721,373.0189 -133.84531,104.5951 -424.21476,316.8281 -576.79626,398.9468 -46.856857,25.2182 -79.821874,73.2194 -81.384763,127.7108 -1.259686,43.92 -3.278272,91.6266 25.537664,127.8774 57.517519,75.7911 158.134099,114.3619 251.936519,102.1915 84.8941,-7.4151 125.29474,-20.3501 211.04444,-16.7604 234.84726,9.8313 682.21721,18.6826 917.27981,13.4088 74.0728,-1.6619 159.1724,-7.1843 213.8859,-63.5094 47.0236,-48.4087 40.794,-122.1089 36.2776,-184.1525 -17.356,-194.7283 16.2186,-388.2702 -13.0508,-581.51 z M 1437.4809,730.34375 c 228.9922,3.09904 165.5562,381.58855 169.9353,542.43895 2.3799,87.4171 44.6083,343.3853 -17.1046,406.3968 -50.1231,51.1778 -140.183,51.8276 -209.9054,52.2893 -368.6612,-3.0165 -759.49688,-44.8383 -1098.81245,3.5 -68.70288,5.5164 -141.88722,-24.2407 -183.888099,-79.4582 -23.054115,-31.725 -16.016087,-73.1377 -10.8461,-108.9677 7.153833,-49.5789 63.013009,-64.7714 99.881359,-89.2115 154.86081,-102.6577 444.9954,-280.6085 589.26503,-392.6711 C 1025.8819,870.56714 1241.2771,727.68845 1437.4809,730.34375 Z"
       style="color:#000000;display:inline;overflow:visible;visibility:visible;fill:#000000;fill-opacity:1;fill-rule:evenodd;stroke:none;stroke-width:60;stroke-linecap:butt;stroke-linejoin:round;stroke-miterlimit:4;stroke-dashoffset:0;stroke-opacity:1;marker:none;marker-start:none;marker-mid:none;marker-end:none" />
  </g>
</svg>
