<?xml version="1.0" encoding="UTF-8" standalone="no"?>
<svg
   width="19.297203"
   height="15.12"
   id="svg2"
   sodipodi:version="0.32"
   inkscape:version="1.3.2 (091e20e, 2023-11-25, custom)"
   sodipodi:docname="US11F40VARA.svg"
   version="1.1"
   xmlns:inkscape="http://www.inkscape.org/namespaces/inkscape"
   xmlns:sodipodi="http://sodipodi.sourceforge.net/DTD/sodipodi-0.dtd"
   xmlns="http://www.w3.org/2000/svg"
   xmlns:svg="http://www.w3.org/2000/svg"
   xmlns:rdf="http://www.w3.org/1999/02/22-rdf-syntax-ns#"
   xmlns:cc="http://creativecommons.org/ns#"
   xmlns:dc="http://purl.org/dc/elements/1.1/">
  <metadata
     id="metadata9">
    <rdf:RDF>
      <cc:Work
         rdf:about="">
        <dc:format>image/svg+xml</dc:format>
        <dc:type
           rdf:resource="http://purl.org/dc/dcmitype/StillImage" />
      </cc:Work>
    </rdf:RDF>
  </metadata>
  <defs
     id="defs7" />
  <sodipodi:namedview
     inkscape:window-height="986"
     inkscape:window-width="1920"
     inkscape:pageshadow="2"
     inkscape:pageopacity="0.0"
     guidetolerance="10.0"
     gridtolerance="10.0"
     objecttolerance="10.0"
     borderopacity="1.0"
     bordercolor="#666666"
     pagecolor="#ffffff"
     id="base"
     inkscape:zoom="50"
     inkscape:cx="10.41"
     inkscape:cy="5.97"
     inkscape:window-x="-11"
     inkscape:window-y="-11"
     inkscape:current-layer="svg2"
     inkscape:showpageshadow="2"
     inkscape:pagecheckerboard="0"
     inkscape:deskcolor="#d1d1d1"
     inkscape:window-maximized="1"
     showguides="true">
    <sodipodi:guide
       position="9.4469466,5.333642"
       orientation="0,-1"
       id="guide1"
       inkscape:locked="false" />
    <sodipodi:guide
       position="9.64,15.92"
       orientation="1,0"
       id="guide2"
       inkscape:locked="false" />
  </sodipodi:namedview>
  <path
     style="fill:#000000;stroke:none"
     d="M 18.25712,14.69793 C 17.451807,11.323278 15.261366,8.0124368 13.825804,8.0526076 H 5.471399 C 4.0522227,8.1868629 1.8351547,11.247674 1.011798,14.69793 0.7876691,15.195029 0.22412893,15.319207 0,14.687979 0.81358082,9.5268266 3.9517417,7.1009543 5.3431036,6.9618414 L 6.5222354,6.919415 7.3560703,0.49223742 C 7.7296352,0.24404898 7.9317631,0.33873457 8.0939609,0.51328042 L 7.302213,6.919415 H 8.3399235 L 9.103386,0.47213641 C 9.446243,0.26255185 9.69416,0.36152117 9.932019,0.49317941 L 9.1685505,6.919415 h 1.0377135 l 0.756221,-6.42717758 c 0.402941,-0.23893684 0.629546,-0.16438854 0.79378,0.021043 L 11.000045,6.919415 h 1.037711 L 12.793977,0.47213641 C 13.021781,0.32506926 13.271141,0.30733697 13.552234,0.48 L 12.85258,6.919415 H 13.961 c 1.472463,-0.040837 4.404819,2.5860598 5.336211,7.81099 -4e-6,0.55152 -0.898395,0.54026 -1.040087,-0.03247 z"
     id="path4"
     sodipodi:nodetypes="cccccccccccccccccccccccccc" />
  <rect
     style="fill:none;fill-opacity:1;stroke:#ff0000;stroke-width:0.523875;stroke-miterlimit:4;stroke-dasharray:none;stroke-opacity:1"
     id="zone2"
     width="10.656108"
     height="9.591011"
     x="4.3548732"
     y="10.564494"
     inkscape:label="gravity:t" />
</svg>
