<?xml version="1.0" encoding="UTF-8" standalone="no"?>
<svg
   width="11.931"
   height="18.973"
   version="1.1"
   id="svg1"
   sodipodi:docname="US11C11VARA.svg"
   inkscape:version="1.3.2 (091e20e, 2023-11-25, custom)"
   xmlns:inkscape="http://www.inkscape.org/namespaces/inkscape"
   xmlns:sodipodi="http://sodipodi.sourceforge.net/DTD/sodipodi-0.dtd"
   xmlns="http://www.w3.org/2000/svg"
   xmlns:svg="http://www.w3.org/2000/svg">
  <defs
     id="defs1" />
  <sodipodi:namedview
     id="namedview1"
     pagecolor="#ffffff"
     bordercolor="#000000"
     borderopacity="0.25"
     inkscape:showpageshadow="2"
     inkscape:pageopacity="0.0"
     inkscape:pagecheckerboard="0"
     inkscape:deskcolor="#d1d1d1"
     inkscape:zoom="16"
     inkscape:cx="5.71875"
     inkscape:cy="8.53125"
     inkscape:window-width="1920"
     inkscape:window-height="986"
     inkscape:window-x="-11"
     inkscape:window-y="-11"
     inkscape:window-maximized="1"
     inkscape:current-layer="svg1" />
  <path
     id="path1"
     style="fill:#000000;stroke:none"
     d="M 6.3496094,0.53209091 C 6.2253079,0.53560891 6.0981343,0.57305971 5.9667969,0.64341901 5.8041891,0.76850211 5.6914482,0.99905381 5.6289062,1.3367786 v 4.1250005 c -0.7129744,0 -1.2314239,0.249667 -1.5566406,0.75 l -0.2070312,0.375 c -0.1000665,0.4127745 -0.2717129,0.7942975 -0.515625,1.1445315 -0.2439123,0.350232 -0.1779836,0.52032 0.1972656,0.507812 -0.1125745,0.08756 -0.1075048,0.162068 0.017578,0.22461 -0.087559,0.06254 -0.092628,0.117931 -0.017578,0.167968 0.07505,0.05003 0.099236,0.162775 0.074219,0.337891 -0.037296,0.220666 -0.07762,0.423869 -0.1210938,0.611328 -0.4366953,0.0026 -0.8441389,0.01387 -1.1582031,0.03906 C 2.1329505,9.0692816 1.9500752,8.2516136 1.7929688,7.7899046 1.6358641,7.3281946 1.6210836,6.7555761 1.5761719,6.0731072 1.6486416,5.8964469 1.84645,5.0585075 1.84375,4.9305291 1.7866003,4.6904655 1.6165162,4.5201797 1.3535156,4.537951 1.3359826,4.539131 1.3171786,4.542881 1.2988286,4.545761 1.0919692,4.578276 1.0918976,4.6725474 1.0527349,4.780136 1.0046849,4.9433673 0.9827086,5.0831212 0.9863286,5.1981047 0.9650786,5.4688888 0.9694374,5.6873622 0.9980474,5.8524016 l 0.015625,0.00195 c -0.1720859,1.628445 -0.0314993,3.331068 0.4218745,4.4843794 0.6153841,0.161286 1.1817274,0.245913 1.7011719,0.294921 -0.037921,0.0709 -0.074684,0.136587 -0.1152344,0.193358 -0.2501669,0.350233 -0.47916,0.489111 -0.6855469,0.414061 -0.2063876,-0.07505 -0.331221,-0.06647 -0.375,0.02734 -0.043779,0.09381 0.022148,0.18744 0.1972656,0.28125 0.1751163,0.09381 0.4489689,0.05402 0.8242188,-0.121094 0.1967456,-0.09181 0.4032492,-0.34817 0.6171875,-0.759763 0.074726,0.0047 0.148227,0.0099 0.2207031,0.01367 0.2331856,0.01221 0.6572201,0.006 0.9570313,-0.02148 -0.1407247,0.510429 -0.2583787,1.176487 -0.3496094,2.005861 -0.1375918,1.250831 -0.2241935,2.263546 -0.2617188,3.039062 L 1.8945312,12.797712 C 1.519282,12.42248 1.0979686,12.294117 0.62890625,12.412946 c -0.46906176,0.11883 -0.59233706,0.503866 -0.3671875,1.154297 0.71297458,1.313375 1.25756325,2.69552 1.63281245,4.146485 L 0,18.332868 0.11328125,18.989118 H 7.8613281 l -0.75,-0.90039 c 0.3001994,-1.000666 0.4441485,-2.570062 0.4316407,-4.708985 v -0.90039 h 0.75 L 8.28125,10.434434 c 6.889e-4,3.4e-5 0.00126,-3.4e-5 0.00195,0 0.5962714,0.02936 1.691334,-0.08664 2.535616,-0.347655 0.428055,-1.1086974 0.536635,-2.7793094 0.326172,-4.3398436 l 0.01563,-0.00391 c 0.02262,-0.1699416 0.01981,-0.1055607 -0.0078,-0.3652344 9.1e-4,-0.1105767 -0.02243,-0.2397469 -0.07227,-0.3847656 -0.04174,-0.1024092 -0.08742,-0.2909938 -0.273447,-0.386715 -0.04117,-0.021183 -0.08467,-0.030449 -0.128907,-0.027344 -0.191697,0.013455 -0.386954,0.243543 -0.355468,0.5820312 0.06691,0.3273678 0.145689,0.5573472 0.259765,0.7929688 -0.02675,0.6675346 -0.0247,1.2218742 -0.171875,1.6640622 -0.147182,0.442188 -0.319839,1.266487 -0.515625,1.800782 -0.5040088,-0.02363 -1.2871597,-0.03851 -1.6176472,-0.04687 l -0.00391,-0.55274 C 8.1866487,7.2346026 7.8441133,6.7872602 7.4863281,6.2117791 c -0.3627412,-0.500333 -0.844913,-0.75 -1.4453125,-0.75 0,-0.1375918 0.050324,-0.7226153 0.1503906,-0.7851563 0.2626749,-0.087559 0.5888039,-0.1066733 0.9765626,-0.056641 L 6.8300781,1.8621696 C 7.217836,1.4869194 7.2541143,1.1315344 6.9414062,0.79380961 6.7537816,0.61400251 6.5567785,0.52622761 6.3496094,0.53209091 Z m 0.085937,0.4101562 c 0.2001329,0 0.3007812,0.10064769 0.3007812,0.30078149 0,0.2126417 -0.1197643,0.3183596 -0.3574219,0.3183596 L 6.6425781,4.0945916 C 6.4674618,4.0695749 6.2610964,4.0886911 6.0234375,4.1512322 5.973405,2.4250845 5.9975899,1.4556703 6.0976562,1.2430286 6.1226732,1.0428948 6.2354145,0.94224711 6.4355464,0.94224711 Z M 4.5078125,6.2117791 C 5.0936105,5.6672078 6.2798533,5.7495269 6.6601562,5.9676385 6.9666744,6.1434331 7.0353731,6.2663984 7.2421875,6.5867791 7.9308746,7.6415406 7.9117561,8.9145506 7.9179734,10.131701 l -4.8e-6,1.933589 h -0.375 c 0.026555,-0.642651 0.055439,-1.275453 -0.04709,-1.92187 C 7.4671129,9.9884916 7.4314849,9.8335626 7.2870617,9.6786336 7.1005307,9.4038706 6.8595081,9.3151746 6.6425781,9.1395136 6.3048536,8.8643306 6.1347656,8.5815006 6.1347656,8.2938106 c 0.2501663,-0.237659 0.4062082,-0.459628 0.46875,-0.666016 0.062542,-0.206387 0.060983,-0.397149 -0.00781,-0.572265 C 6.5269073,6.8804128 6.3950508,6.7782062 6.2011719,6.7469354 6.0072923,6.7156641 5.8095079,6.7745701 5.609375,6.9246697 5.3967334,6.8120952 4.7010891,6.6056042 4.2382812,6.4930291 Z M 1.2304688,6.0926385 c 0.091146,0.068359 0.1239896,0.044613 0.1328124,0.1582031 -0.018471,0.4422667 -0.069842,0.883337 0.070313,1.337891 0.090425,0.78906 0.3927515,1.578127 0.6855468,2.367187 L 3.40625,9.9402946 C 3.3643555,10.085059 3.3200995,10.217639 3.2734375,10.336778 2.742511,10.289268 2.2238543,10.211536 1.7089844,10.123888 1.3555092,8.8001496 1.0727315,7.7146196 1.2304688,6.0926385 Z m 9.5668662,0.1152343 h 0.1875 c 0.04383,1.3847468 -0.002,2.7574688 -0.429687,3.6523438 C 9.965829,10.109115 8.9370541,10.121762 8.28125,10.127794 L 8.27734,9.6531856 c 0.4786523,0.01964 1.4374307,0.0636 1.871554,0.04297 0.09742,-0.6726248 0.439702,-1.4519841 0.542968,-2.181641 z m -6.68796,0.5664063 c 0.4878243,0.087558 0.987159,0.2576455 1.5,0.5078125 -0.1500996,0.775516 -0.3806513,1.243642 -0.6933594,1.40625 -0.3127081,0.162608 -0.5764209,0.256233 -0.7890625,0.28125 -0.2126416,0.03753 -0.3062665,0.0012 -0.28125,-0.111328 0.025017,-0.112575 0.012925,-0.194107 -0.037109,-0.244141 0.3877579,-0.06254 0.4884055,-0.144073 0.3007812,-0.24414 -0.1876249,-0.100067 -0.3003655,-0.126206 -0.3378906,-0.07617 0.050033,-0.187625 -0.050615,-0.28632 -0.3007813,-0.298828 0.2751834,-0.4503 0.4885723,-0.857963 0.6386719,-1.2207035 z M 4.2949219,6.959826 C 4.1820538,6.962756 4.0820881,7.008597 3.9960938,7.0945916 v 0.167969 c 0.1375909,-0.187625 0.4758137,-0.16344 1.0136718,0.07422 l 0.3945313,0.01953 V 7.2430296 L 5.0097656,7.2254506 C 4.8846827,7.1504016 4.7181062,7.0758916 4.5117188,7.0008416 4.4343233,6.9726979 4.3626427,6.958067 4.2949219,6.959826 Z m 1.7285156,0.1562496 c 0.049838,-0.002 0.093334,0.01248 0.1308594,0.04297 0.1000665,0.08131 0.1242517,0.20458 0.074219,0.367188 -0.050033,0.162608 -0.2111454,0.354928 -0.4863281,0.580078 0.050033,0.712974 0.3238859,1.188123 0.8242187,1.425781 -0.2126414,0.5128404 -0.6062578,0.6567894 -1.1816406,0.431641 -0.050033,-0.462808 -0.2130978,-0.825216 -0.4882812,-1.087891 0.425283,-0.22515 0.7010882,-0.762716 0.8261718,-1.613281 0.1172653,-0.09381 0.2177184,-0.143064 0.3007813,-0.146485 z m -1.6660156,0.150391 c -0.1657354,-0.0031 -0.2792554,0.05851 -0.3417969,0.183594 l -0.1699219,0.09375 v 0.113281 h 0.1503907 c 0.2251494,0.1501 0.5633721,0.123961 1.0136718,-0.07617 l 0.3945313,0.03906 v -0.169922 l -0.3945313,0.01953 C 4.7408365,7.3382546 4.5231572,7.2695936 4.3574219,7.2664666 Z m -0.097656,0.126953 c -0.037525,0.08756 -0.025432,0.169091 0.037109,0.244141 -0.087559,-0.02502 -0.1620674,-0.0492 -0.2246094,-0.07422 0.012509,-0.06254 0.074925,-0.119889 0.1875004,-0.169921 z m 0.28125,0 0.3378906,0.132813 c -0.1125743,0.05003 -0.2253155,0.08124 -0.3378906,0.09375 0.07505,-0.06254 0.07505,-0.139005 0,-0.226563 z m 0,1.652344 c 0.1632414,0.138755 0.285789,0.323436 0.3691403,0.552734 -0.2783804,-0.0071 -0.5637576,-0.0111 -0.8535156,-0.01367 0.048539,-0.136046 0.097152,-0.276917 0.1464844,-0.427734 z m 2.2890625,0.693359 c 0.250166,0.187625 0.3558838,0.4564074 0.3183591,0.8066384 -0.6504326,0.312707 -1.3077618,0.394238 -1.9707031,0.24414 l 0.1132812,-0.468748 c 0.2126416,0.100066 0.4884472,0.119182 0.8261719,0.05664 0.3377247,-0.06254 0.575299,-0.275929 0.7128909,-0.6386704 z M 4.9707031,9.9227166 4.8496094,10.37584 c -0.3081467,0.01315 -0.8084419,0.0088 -1.1054688,-0.0059 0.059705,-0.132461 0.1206433,-0.281004 0.1816406,-0.4374984 z M 7.1679688,10.82701 v 0.320311 C 6.5800771,11.46003 5.8603313,11.527515 5.0097656,11.3524 l 0.074219,-0.298829 c 0.7630071,0.162609 1.4585678,0.08615 2.0839842,-0.226561 z m 0,0.58203 v 0.31836 c -0.5253497,0.312707 -1.2763039,0.382148 -2.2519532,0.207031 l 0.056641,-0.31836 c 0.9256155,0.22515 1.6574547,0.155712 2.1953122,-0.207031 z m 0,0.582031 v 1.388672 c -0.025017,2.138923 -0.2142205,3.763713 -0.5644532,4.876953 l 0.5449219,0.337891 H 0.5625 v -0.01758 L 2.3457031,17.975446 C 1.8954034,16.16174 1.343792,14.6809 0.69335938,13.530134 c -0.23765824,-0.4503 -0.2064501,-0.714013 0.09375,-0.789063 0.30019942,-0.07505 0.60721392,0.06188 0.91992182,0.41211 l 2.4394532,3.171875 H 4.484375 l 0.4492188,-4.126953 c 1.0256818,0.237657 1.7715665,0.168218 2.234375,-0.207032 z"
     sodipodi:nodetypes="scccccscccccccccccccccccssssccccsccsccccccccccccccccssccccccccccccsssccccscsccccccssscccccccccccccccccccccscscscscccsccccccssccsccccccsccccccccscccccccccccccccccscccccccccccccccccccccccscccccccc" />
  <g
     id="path2">
    <path
       style="color:#000000;fill:#ffffff;fill-opacity:0;-inkscape-stroke:none"
       d="m 0.65625,9.15625 -2.796875,-0.125 -0.5,-2.578125 -0.09375,-1.09375 0.09375,-0.421875"
       id="path3" />
  </g>
  <g
     id="path5"
     transform="translate(-0.37565036,0.30935912)">
    <path
       style="color:#000000;fill:#ffffff;fill-opacity:0;-inkscape-stroke:none"
       d="M 11.468388,9.0045629 13.976407,8.7283493 14.517786,6.242427 v -1.3589708 0"
       id="path6" />
  </g>
</svg>
