<?xml version="1.0" encoding="UTF-8" standalone="no"?>
<!-- Created with Inkscape (http://www.inkscape.org/) -->

<svg
   sodipodi:docname="US11N35AVARCV.svg"
   inkscape:version="1.3.2 (091e20e, 2023-11-25, custom)"
   sodipodi:version="0.32"
   id="svg1290"
   height="18.000000px"
   width="18.000000px"
   version="1.1"
   xmlns:inkscape="http://www.inkscape.org/namespaces/inkscape"
   xmlns:sodipodi="http://sodipodi.sourceforge.net/DTD/sodipodi-0.dtd"
   xmlns="http://www.w3.org/2000/svg"
   xmlns:svg="http://www.w3.org/2000/svg"
   xmlns:rdf="http://www.w3.org/1999/02/22-rdf-syntax-ns#"
   xmlns:cc="http://creativecommons.org/ns#"
   xmlns:dc="http://purl.org/dc/elements/1.1/">
  <defs
     id="defs3" />
  <sodipodi:namedview
     inkscape:window-y="-9"
     inkscape:window-x="-9"
     inkscape:window-height="991"
     inkscape:window-width="1920"
     inkscape:current-layer="layer1"
     inkscape:document-units="px"
     inkscape:cy="7.0730376"
     inkscape:cx="17.939634"
     inkscape:zoom="28.205703"
     inkscape:pageshadow="2"
     inkscape:pageopacity="0.0"
     borderopacity="1.0"
     bordercolor="#666666"
     pagecolor="#ffffff"
     id="base"
     inkscape:showpageshadow="2"
     inkscape:pagecheckerboard="0"
     inkscape:deskcolor="#d1d1d1"
     inkscape:window-maximized="1" />
  <metadata
     id="metadata4">
    <rdf:RDF>
      <cc:Work
         rdf:about="">
        <dc:format>image/svg+xml</dc:format>
        <dc:type
           rdf:resource="http://purl.org/dc/dcmitype/StillImage" />
        <cc:license
           rdf:resource="http://creativecommons.org/licenses/by/2.0/" />
        <dc:subject>
          <rdf:Bag>
            <rdf:li>JSesh hieroglyph</rdf:li>
          </rdf:Bag>
        </dc:subject>
        <dc:creator>
          <cc:Agent>
            <dc:title>Serge Rosmorduc</dc:title>
          </cc:Agent>
        </dc:creator>
        <dc:description>Sign from Hypostyle Hall, Karnak
</dc:description>
      </cc:Work>
      <cc:License
         rdf:about="http://creativecommons.org/licenses/by/2.0/">
        <cc:permits
           rdf:resource="http://web.resource.org/cc/Reproduction" />
        <cc:permits
           rdf:resource="http://web.resource.org/cc/Distribution" />
        <cc:requires
           rdf:resource="http://web.resource.org/cc/Notice" />
        <cc:requires
           rdf:resource="http://web.resource.org/cc/Attribution" />
        <cc:permits
           rdf:resource="http://web.resource.org/cc/DerivativeWorks" />
        <cc:requires
           rdf:resource="http://web.resource.org/cc/ShareAlike" />
      </cc:License>
    </rdf:RDF>
  </metadata>
  <g
     id="layer1"
     inkscape:groupmode="layer"
     inkscape:label="Layer 1">
    <path
       id="path2133-5"
       d="m 1.6029137,-0.03444282 -0.375,0.8125 -1.18749996,2.65625002 -0.1875,0.375 0.78125,0.375 0.1875,-0.40625 0.81249996,-1.84375 0.40625,0.71875 13.5312503,0.03125 0.4375,-0.84375 1.09375,1.96875 0.21875,0.375 0.75,-0.40625 -0.1875,-0.375 -1.5,-2.68750002 -0.375,-0.65625 -0.375,0.6875 -0.46875,0.81250002 -12.7500003,-0.03125 -0.40625,-0.78125002 z"
       style="display:inline;opacity:0.994152;fill:#000000;fill-opacity:1;fill-rule:nonzero;stroke:none;stroke-width:0.863184;stroke-linecap:square;stroke-linejoin:miter;stroke-miterlimit:4;stroke-opacity:1"
       sodipodi:nodetypes="ccccccccccccccccccccc" />
    <path
       id="path2133-5-0"
       d="m 1.6446495,6.8425878 -0.375,0.8125 -1.18749997,2.6562502 -0.1875,0.375 0.78125,0.375 0.1875,-0.40625 0.81249997,-1.8437502 0.40625,0.71875 13.5312505,0.03125 0.4375,-0.84375 1.09375,1.9687502 0.21875,0.375 0.75,-0.40625 -0.1875,-0.375 -1.5,-2.6875002 -0.375,-0.65625 -0.375,0.6875 -0.46875,0.8125 -12.7500005,-0.03125 -0.40625,-0.78125 z"
       style="display:inline;opacity:0.994152;fill:#000000;fill-opacity:1;fill-rule:nonzero;stroke:none;stroke-width:0.863184;stroke-linecap:square;stroke-linejoin:miter;stroke-miterlimit:4;stroke-opacity:1"
       sodipodi:nodetypes="ccccccccccccccccccccc" />
    <path
       id="path2133-5-4"
       d="m 1.6091957,13.842588 -0.375,0.8125 -1.18749999,2.65625 -0.1875,0.375 0.78125,0.375 0.1875,-0.40625 0.81249999,-1.84375 0.40625,0.71875 13.5312503,0.03125 0.4375,-0.84375 1.09375,1.96875 0.21875,0.375 0.75,-0.40625 -0.1875,-0.375 -1.5,-2.6875 -0.375,-0.65625 -0.375,0.6875 -0.46875,0.8125 -12.7500003,-0.03125 -0.40625,-0.78125 z"
       style="display:inline;opacity:0.994152;fill:#000000;fill-opacity:1;fill-rule:nonzero;stroke:none;stroke-width:0.863184;stroke-linecap:square;stroke-linejoin:miter;stroke-miterlimit:4;stroke-opacity:1"
       sodipodi:nodetypes="ccccccccccccccccccccc" />
  </g>
</svg>
