<?xml version="1.0" encoding="UTF-8" standalone="no"?>
<svg
   width="27.612"
   height="17.280001"
   version="1.1"
   id="svg1"
   sodipodi:docname="US11A15VARA.svg"
   inkscape:version="1.3.2 (091e20e, 2023-11-25, custom)"
   xmlns:inkscape="http://www.inkscape.org/namespaces/inkscape"
   xmlns:sodipodi="http://sodipodi.sourceforge.net/DTD/sodipodi-0.dtd"
   xmlns="http://www.w3.org/2000/svg"
   xmlns:svg="http://www.w3.org/2000/svg">
  <defs
     id="defs1" />
  <sodipodi:namedview
     id="namedview1"
     pagecolor="#ffffff"
     bordercolor="#000000"
     borderopacity="0.25"
     inkscape:showpageshadow="2"
     inkscape:pageopacity="0.0"
     inkscape:pagecheckerboard="0"
     inkscape:deskcolor="#d1d1d1"
     inkscape:zoom="21.730323"
     inkscape:cx="14.610919"
     inkscape:cy="8.2143279"
     inkscape:window-width="1920"
     inkscape:window-height="986"
     inkscape:window-x="-11"
     inkscape:window-y="-11"
     inkscape:window-maximized="1"
     inkscape:current-layer="svg1"
     showgrid="true">
    <inkscape:grid
       id="grid1"
       units="px"
       originx="0"
       originy="0"
       spacingx="1"
       spacingy="1"
       empcolor="#0099e5"
       empopacity="0.30196078"
       color="#0099e5"
       opacity="0.14901961"
       empspacing="5"
       dotted="false"
       gridanglex="30"
       gridanglez="30"
       visible="true" />
  </sodipodi:namedview>
  <path
     id="path1"
     style="fill:#000000;stroke:none"
     d="M 6.5914074,7.7413326 C 6.4269444,7.7548852 6.2623394,7.8126003 6.1011731,7.9151608 5.6713955,8.1886558 5.3043622,8.571308 4.9996105,9.0635982 4.6948596,9.5558891 4.7924745,10.155249 5.2925793,10.858523 c 0.046885,0.218796 0.1327866,0.48431 0.2578125,0.796875 0.09377,0.187539 0.1757665,0.257822 0.2460937,0.210938 0.070327,-0.04688 0.1757517,-0.109358 0.3164063,-0.1875 -0.062513,0.140654 -0.078132,0.218747 -0.046875,0.234375 0.030149,0.01507 0.075537,0.0071 0.1347656,-0.02148 -0.00153,0.01042 -0.00378,0.01447 -0.00586,0.0332 -0.00781,0.07033 0.025376,0.08985 0.095703,0.05859 0.070327,-0.03126 0.1640381,-0.0039 0.28125,0.08203 0.1172119,0.08596 0.2187316,0.08986 0.3046875,0.01172 0.085955,-0.07814 0.1991892,-0.218708 0.3398437,-0.421875 0.5157328,0.203167 0.6953456,0.499918 0.5390625,0.890625 -0.5505351,0.15503 -1.0379836,0.525384 -1.0379836,0.525384 -0.2284401,0.243201 -1.5730188,1.277294 -1.6154069,1.283423 -0.5473482,0.07914 -1.7401732,0.30839 -2.662241,0.24588 C 2.2835551,14.413171 2.1273701,14.253082 1.9710876,14.120242 1.8148045,13.987401 1.666429,13.889786 1.5257751,13.827273 1.3851205,13.764763 1.1976996,13.729613 0.96327506,13.721805 c -0.23442388,-0.0078 -0.43746398,-0.05076 -0.60937508,-0.128907 -0.062513,0.01563 -0.109369,0.03515 -0.140625,0.05859 -0.031257,0.02344 -0.031257,0.06639 0,0.128906 -0.046885,0 -0.070312,0.01562 -0.070312,0.04687 0,0.03126 0.00781,0.05468 0.023437,0.07031 -0.031257,0.01563 -0.050784,0.04296 -0.058594,0.08203 -0.00781,0.03907 0.0039,0.0664 0.035156,0.08203 -0.046885,0 -0.070312,0.03124 -0.070312,0.09375 0,0.06251 0.031237,0.09375 0.09375,0.09375 0.2813084,0.01563 0.5038716,0.03125 0.6679688,0.04687 0.16409658,0.01563 0.37885032,0.10153 0.64453132,0.257813 0.078141,0.03126 0.109379,0.06249 0.09375,0.09375 -0.015628,0.03126 -0.046865,0.03126 -0.09375,0 -0.078141,-0.01561 -0.1874704,-0.07028 -0.328125,-0.164045 -0.1093979,-0.06251 -0.20701288,-0.09375 -0.29296892,-0.09375 -0.085955,0 -0.1289062,0.03905 -0.1289062,0.117188 -0.015628,0.06251 0.062464,0.109369 0.23437508,0.140625 0.10939794,0.06251 0.26167744,0.167937 0.45703124,0.316406 0.1953531,0.148469 0.4491538,0.191419 0.7617188,0.128906 l 0.9140625,0.164064 c 0.8987872,0.0715 1.2122594,0.02791 2.2323987,-0.08059 0.688844,-0.235226 1.2529014,-0.650697 1.6468259,-0.868149 -0.079651,0.46455 -0.5733103,0.71326 -0.8092208,0.894406 C 5.7284999,15.538639 4.5505816,15.881931 3.6441418,16.053836 3.4566027,15.92881 3.2652762,15.823389 3.0699231,15.73743 2.8745692,15.651473 2.7066714,15.596807 2.5660168,15.573367 c -0.1406538,-0.02345 -0.3280755,-0.01172 -0.5625,0.03516 -0.2344237,0.04688 -0.4374638,0.0547 -0.609375,0.02344 -0.078141,0.03126 -0.124996,0.05859 -0.140625,0.08203 -0.015628,0.02344 -0.00782,0.0664 0.023437,0.128906 -0.031257,0.01563 -0.046875,0.03905 -0.046875,0.07031 0,0.03126 0.015618,0.06249 0.046875,0.09375 -0.031257,0 -0.046875,0.01952 -0.046875,0.05859 0,0.03907 0.023428,0.0664 0.070312,0.08203 -0.046885,0 -0.066404,0.03124 -0.058594,0.09375 0.00781,0.06253 0.050764,0.08594 0.1289063,0.07031 0.2656804,-0.04688 0.4804347,-0.08203 0.6445312,-0.105469 0.1640972,-0.02344 0.4022788,0.0039 0.7148437,0.08203 0.062513,0.01563 0.09375,0.03515 0.09375,0.05859 0,0.02344 -0.023427,0.03516 -0.070312,0.03516 -0.09377,0 -0.2187174,-0.03124 -0.3749999,-0.09375 -0.1093979,-0.03126 -0.2070139,-0.03516 -0.2929688,-0.01172 -0.085956,0.02344 -0.1210977,0.0664 -0.1054687,0.128906 0,0.07814 0.085902,0.10938 0.2578125,0.09375 0.1250266,0.03126 0.300734,0.09373 0.5273436,0.1875 0.2266098,0.09377 0.4804098,0.07034 0.7617188,-0.07031 L 4.4664067,16.54602 C 5.810438,16.311595 6.7520709,15.919072 7.0413244,15.789104 7.7376478,15.443989 8.644391,13.909349 8.640235,13.876099 c 1.2658902,0 4.862855,0.156207 5.347332,0.359375 1.630859,0.899969 2.815506,2.950024 3.019854,2.991894 0.52904,0.126493 2.2722,-0.232593 3.36087,-0.477847 1.219002,-0.07122 2.058154,-0.0041 2.613739,-0.07264 0.522193,-0.09829 0.911952,0.07077 1.134766,0.158203 0.05197,0.02039 1.252501,0.163062 1.269531,0.164062 0.0411,0.0152 1.009962,0.135373 1.121094,0.101563 0.261169,-0.07946 0.34748,-0.177235 0.162109,-0.40625 -0.0064,-0.107229 -1.237906,-0.274086 -1.482422,-0.628907 -0.133391,-0.164956 -0.179569,-0.557637 -0.533203,-0.558594 -0.437433,0.21872 -1.187847,0.142389 -2.460937,-0.05859 -1.273093,-0.20098 -1.821802,-0.143406 -2.396521,0.04075 0.964359,-0.431091 2.170825,-0.509965 3.242225,-0.874731 0.53667,-0.230078 1.029222,-0.351213 1.283203,-0.234375 0.253984,0.116838 1.735328,0.110982 1.736328,0.113282 0,0 0.81036,-0.01622 0.923828,-0.03711 0.11346,-0.02089 0.115593,-0.206214 -0.123047,-0.425782 -0.04192,-0.129498 -1.599284,-0.30364 -1.845704,-0.863278 -0.192397,-0.436948 -0.462809,-0.48907 -0.757812,-0.232422 -0.456032,0.305664 -1.282373,0.631297 -2.503907,0.701172 -0.810177,0.04634 -1.727968,0.147637 -2.410156,0.804688 l -0.664062,0.234375 c -0.865711,-0.515413 -1.474987,-1.247919 -2.504817,-1.96423 -0.252065,-0.547671 -0.870465,-0.933395 -1.829678,-0.916175 -0.142514,0.0026 -0.597618,-0.01411 -0.785156,-0.09225 -0.343823,-0.140654 -1.509071,-0.390549 -2.392068,-0.75 -0.882997,-0.35945 -1.550685,-0.505874 -2.003905,-0.435547 -0.45322,0.07033 -0.828063,-0.02729 -1.125,-0.29297 C 8.1617462,9.8017909 8.1890782,9.4074251 8.1187512,9.0401608 8.0484242,8.6728964 7.8180512,8.341004 7.4273449,8.044067 7.1440823,7.8194105 6.8655125,7.718745 6.5914074,7.7413326 Z m 0.076172,0.4296875 c 0.1855856,-0.00586 0.369103,0.060517 0.5488281,0.2011719 0.3281937,0.2656804 0.5156154,0.6170959 0.5625,1.0546875 0.046885,0.4375916 -0.015589,0.6484405 -0.1875001,0.6328125 -0.1719111,0 -0.2773356,-0.1835169 -0.3164062,-0.5507812 C 7.2359305,9.1416464 7.0797462,8.9347023 6.8062512,8.887817 6.5327567,8.8409323 6.3394772,9.0517813 6.2300793,9.5206295 6.0269115,9.5362575 5.7145422,9.7392976 5.2925793,10.130005 5.1675527,9.8643241 5.1753622,9.5870963 5.3160168,9.2979732 5.4566714,9.0088502 5.7182801,8.7120999 6.1011731,8.4073482 6.2926192,8.2549728 6.4819937,8.1768806 6.6675794,8.1710201 Z m 0.080078,1.0566407 c -0.062513,-0.00781 -0.1171775,0.039041 -0.1640625,0.140625 -0.046885,0.1015838 -0.046885,0.2304362 0,0.3867187 0.046885,0.1562825 0.1093581,0.2421838 0.1875,0.2578125 -0.031257,0.07814 -0.023447,0.144521 0.023437,0.19922 0.046885,0.0547 0.105454,0.06251 0.1757813,0.02344 0.070328,-0.03907 0.09766,-0.160117 0.082032,-0.363285 C 7.0367162,9.6690249 6.9976704,9.5128399 6.9351574,9.403442 6.8726448,9.2940441 6.8101704,9.2354707 6.7476574,9.2276608 Z m 0.017578,0.15625 c 0.013186,0.00342 0.027341,0.013668 0.041016,0.03125 0.054699,0.070327 0.093745,0.1562286 0.1171875,0.2578124 0.023443,0.1015832 0.027347,0.1874853 0.011719,0.2578126 -0.015628,0.070327 -0.035152,0.050804 -0.058594,-0.058594 -0.023443,-0.1093979 -0.042966,-0.128921 -0.058594,-0.058594 -0.015629,0.070327 -0.04296,0.070327 -0.082031,0 C 6.6968679,9.7432708 6.6695369,9.6534649 6.6539069,9.544067 6.6890709,9.4268551 6.7256759,9.3736546 6.7652354,9.3839108 Z m 0.140625,0.6855472 c 0.035164,-0.0073 0.052734,0.0078 0.052734,0.04883 0,0.0547 -0.019523,0.07422 -0.058594,0.05859 -0.039074,-0.01563 -0.050784,-0.04687 -0.035156,-0.09375 0.015628,-0.0078 0.029294,-0.01123 0.041016,-0.01367 z m -0.580078,0.107423 -0.1425781,0.187501 c -0.3125657,0.06251 -0.4843683,0.197223 -0.515625,0.400391 l 0.023437,0.1875 0.070312,0.07031 0.046875,-0.07031 c 0.2031688,-0.09377 0.3437348,-0.267525 0.421876,-0.517578 l 0.1894531,-0.164063 z m -0.1894531,0.281252 c -0.046885,0.07814 -0.085931,0.140615 -0.1171875,0.1875 0,-0.06251 -0.039047,-0.101559 -0.1171875,-0.117188 z m -0.375,0.210937 c 0.031257,0.06251 0.078112,0.103513 0.140625,0.119141 l -0.140625,0.07031 c -0.015628,-0.04688 -0.015628,-0.111312 0,-0.189453 z m 0.3632812,0.560547 c -0.011722,-0.002 -0.019533,0.0039 -0.023437,0.01563 -0.00781,0.02344 0.0039,0.04297 0.035156,0.05859 0.031257,0.01563 0.04297,0.03906 0.035156,0.07031 -0.00781,0.03126 -0.039051,0.04687 -0.09375,0.04687 h -0.082031 c -0.046885,0.03126 -0.066404,0.05468 -0.058594,0.07031 0.00781,0.01563 0.027337,0.02344 0.058594,0.02344 0.015629,-0.04688 0.054675,-0.07031 0.1171875,-0.07031 0.062513,0 0.097659,-0.02343 0.1054687,-0.07031 0.00781,-0.04688 -0.0078,-0.08593 -0.046875,-0.117187 -0.019535,-0.01563 -0.035153,-0.02539 -0.046875,-0.02734 z m 0.3359376,0.185547 c 0.00342,-4.89e-4 0.00586,0.0019 0.00586,0.0059 l -0.2109375,0.28125 c -0.015628,0.03126 -0.033199,0.03516 -0.048828,0.01172 -0.015628,-0.02344 -0.00196,-0.05468 0.037109,-0.09375 l 0.140625,-0.140625 c 0.041024,-0.04102 0.065916,-0.06299 0.076172,-0.06445 z m 0.029297,0.05273 c 0.015629,0.03126 0.011724,0.07421 -0.011719,0.128906 -0.023443,0.0547 -0.042966,0.09765 -0.058594,0.128906 -0.015628,0.03126 -0.035151,0.04687 -0.058594,0.04687 -0.023442,0 -0.027347,-0.02343 -0.011719,-0.07031 z m 7.2553479,0.796875 c 0.420938,0.170279 1.155864,-0.383015 2.137149,0.758936 1.320797,1.312614 2.401994,1.913827 3.502846,3.277881 l -2.085936,0.331905 c -0.307464,0.07422 -1.420081,-2.031661 -2.936684,-2.866769 -1.283053,-0.362912 -3.686344,-0.266304 -4.6234398,-0.397093 5.64e-4,0.0019 -1.347972,-0.02032 -1.491471,-0.44861 -0.140654,-0.250052 -0.117226,-0.585849 0.07031,-1.007812 L 7.8960922,11.514769 C 7.489757,11.23346 7.2086245,11.245174 7.0523419,11.549929 6.8960594,11.85468 6.7320656,11.897631 6.5601544,11.678835 c 0.031257,-0.234424 0.00783,-0.343753 -0.070312,-0.328125 -0.078141,0.01563 -0.1816147,0.08591 -0.3066406,0.210937 -0.062513,-0.04688 -0.1718425,-0.03127 -0.328125,0.04687 C 5.6831682,11.264701 5.5894573,10.991378 5.5738293,10.788211 5.605086,10.6163 5.7027015,10.485494 5.8667981,10.399539 c 0.1640971,-0.08596 0.310521,-0.183572 0.4355468,-0.292971 l -0.095703,-0.07031 c -0.062513,0.07814 -0.1835561,0.156233 -0.3632813,0.234376 -0.1797251,0.07814 -0.300768,0.20309 -0.3632812,0.375001 -0.015628,-0.109398 -0.039056,-0.203108 -0.070312,-0.281251 0.296937,-0.328195 0.6112595,-0.5468535 0.9394531,-0.6562514 0.1250259,0.1250266 0.1718817,0.082076 0.140625,-0.1289063 -0.031257,-0.2109817 0.023408,-0.3515477 0.1640625,-0.421875 0.035164,-0.017582 0.068841,-0.025391 0.1015625,-0.025391 0.098165,0 0.1855309,0.078092 0.2617188,0.2363282 0.1015839,0.2109817 0.1562485,0.4218307 0.1640625,0.6328125 0.00781,0.210982 0.093715,0.324217 0.2578125,0.339845 0.1640965,0.01563 0.2460937,0.04687 0.2460937,0.09375 0.5313618,0.406335 1.0116288,0.580091 1.4414068,0.517578 0.429777,-0.06251 1.0662282,0.08977 1.9101552,0.457031 0.701452,0.337708 1.971115,0.617237 2.708474,0.855469 z"
     sodipodi:nodetypes="sscccscscsssscccscssccscscccscscsccsccsccccscccscccscscscsssscccccccccccccscscccsccscscscscccscsscscsscscssccssscsscsssscssssssscsssscscccccccccccccccccscssscccscsscccsscsccsscccccccccccscscccsccscccsssssscsscc" />
</svg>
