<?xml version="1.0" encoding="UTF-8" standalone="no"?>
<!-- Created with Inkscape (http://www.inkscape.org/) -->

<svg
   sodipodi:docname="US11W15VARA.svg"
   inkscape:version="1.3.2 (091e20e, 2023-11-25, custom)"
   sodipodi:version="0.32"
   id="svg1290"
   height="18.000000px"
   width="18.000000px"
   version="1.1"
   xmlns:inkscape="http://www.inkscape.org/namespaces/inkscape"
   xmlns:sodipodi="http://sodipodi.sourceforge.net/DTD/sodipodi-0.dtd"
   xmlns="http://www.w3.org/2000/svg"
   xmlns:svg="http://www.w3.org/2000/svg"
   xmlns:rdf="http://www.w3.org/1999/02/22-rdf-syntax-ns#"
   xmlns:cc="http://creativecommons.org/ns#"
   xmlns:dc="http://purl.org/dc/elements/1.1/">
  <defs
     id="defs3" />
  <sodipodi:namedview
     inkscape:guide-bbox="true"
     showguides="true"
     inkscape:window-y="0"
     inkscape:window-x="0"
     inkscape:window-height="948"
     inkscape:window-width="1272"
     inkscape:current-layer="layer1"
     inkscape:document-units="px"
     inkscape:cy="13.86824"
     inkscape:cx="1.009279"
     inkscape:zoom="13.375886"
     inkscape:pageshadow="2"
     inkscape:pageopacity="0.0"
     borderopacity="1.0"
     bordercolor="#666666"
     pagecolor="#ffffff"
     id="base"
     inkscape:showpageshadow="2"
     inkscape:pagecheckerboard="0"
     inkscape:deskcolor="#d1d1d1"
     inkscape:window-maximized="0">
    <sodipodi:guide
       position="8.5904481,8.2465374"
       orientation="1,0"
       id="guide1"
       inkscape:locked="false" />
  </sodipodi:namedview>
  <metadata
     id="metadata4">
    <rdf:RDF>
      <cc:Work
         rdf:about="">
        <dc:format>image/svg+xml</dc:format>
        <dc:type
           rdf:resource="http://purl.org/dc/dcmitype/StillImage" />
        <cc:license
           rdf:resource="http://creativecommons.org/licenses/by/2.0/" />
        <dc:subject>
          <rdf:Bag>
            <rdf:li>JSesh hieroglyph</rdf:li>
          </rdf:Bag>
        </dc:subject>
      </cc:Work>
      <cc:License
         rdf:about="http://creativecommons.org/licenses/by/2.0/">
        <cc:permits
           rdf:resource="http://web.resource.org/cc/Reproduction" />
        <cc:permits
           rdf:resource="http://web.resource.org/cc/Distribution" />
        <cc:requires
           rdf:resource="http://web.resource.org/cc/Notice" />
        <cc:requires
           rdf:resource="http://web.resource.org/cc/Attribution" />
        <cc:permits
           rdf:resource="http://web.resource.org/cc/DerivativeWorks" />
        <cc:requires
           rdf:resource="http://web.resource.org/cc/ShareAlike" />
      </cc:License>
    </rdf:RDF>
  </metadata>
  <g
     id="layer1"
     inkscape:groupmode="layer"
     inkscape:label="Layer 1">
    <path
       id="path3502"
       d="m 6.0102453,-0.00270369 c -0.1623246,1.8674e-4 -0.2938683,0.1317304 -0.294055,0.29405507 v 0.50063797 c 1.87e-5,0.1573779 0.1238116,0.28690955 0.2810273,0.29405505 l 1.8704132,0.086542 v 1.087817 C 7.6812384,2.424301 6.5311562,2.8680032 6.1212318,3.7577336 c -0.078806,0.171046 -0.061755,1.6379455 -0.061755,1.6379455 0,0 -0.9452057,0.06198 -0.8883588,0.065374 0,0 -0.05744,-1.3968073 -0.5552998,-1.7627046 C 4.2697896,3.4399085 2.7352793,3.7665815 2.57179,4.021251 -0.74985056,5.7007423 0.34256439,14.29009 0.4870339,16.239641 c 0.3149884,0.640323 0.49830683,0.390959 0.5677616,-0.03845 0,0 -1.23354332,-9.566815 1.5188558,-11.3675695 C 3.0441041,4.4549898 4.0730834,4.1352622 4.25607,4.3759582 c 0.2092513,0.5382794 0.2355492,1.401207 0.487983,1.8399557 0.067588,0.1174739 1.2940877,-0.022991 1.2940877,-0.022991 -0.1171604,0.186448 1.1467543,4.8557621 1.8843935,7.2127221 0.2301961,0.73554 0.188845,1.584349 0.051181,2.291023 -0.092099,0.472782 -0.3761308,1.069178 -0.6718599,1.259971 -0.4889138,0.315428 -1.3847219,0.313508 -2.2100655,0.510874 -0.1449613,0.03477 -0.2406545,0.172047 -0.2233329,0.32011 0.017322,0.148064 0.1421902,0.26018 0.2912633,0.260556 h 7.2443628 c 0.149251,9.4e-5 0.274619,-0.111414 0.292195,-0.259625 0.01758,-0.148211 -0.0782,-0.286226 -0.223333,-0.321041 C 11.6476,17.270149 10.750861,17.272069 10.261948,16.956641 9.9662165,16.765848 9.6831165,16.169452 9.5910165,15.69667 9.4533525,14.989996 9.4992365,14.163166 9.6412665,13.405647 10.088153,11.022254 10.992698,8.649463 11.393501,6.192924 11.523306,5.397343 11.507778,4.4649745 11.171099,3.7223035 10.858512,3.032772 10.155253,2.663513 9.6961695,2.2594728 V 1.1725859 L 11.628,1.0860439 c 0.157216,-0.00715 0.281009,-0.13667715 0.281028,-0.29405505 V 0.29135138 C 11.908842,0.12902671 11.777297,-0.00251695 11.614973,-0.00270369 Z M 8.4566715,1.1725859 h 0.650457 V 2.392542 c -10e-6,0.080053 0.03258,0.1566582 0.09026,0.2121663 0.549,0.5306994 1.2321475,0.9070283 1.4377075,1.3604698 0.259109,0.5715631 0.293592,1.4227445 0.177735,2.1328294 -0.387635,2.3758316 -1.2902235,4.7446355 -1.7503725,7.1987645 -0.151822,0.809712 -0.207756,1.699191 -0.04932,2.512497 0.11217,0.575811 0.373541,1.282733 0.929623,1.641496 0.0054,0.0035 0.01131,0.0059 0.01675,0.0093 H 7.6042841 c 0.00545,-0.0034 0.011323,-0.0058 0.01675,-0.0093 0.5560815,-0.358763 0.8183834,-1.065684 0.9305544,-1.641496 0.158436,-0.813306 0.101571,-1.702785 -0.05025,-2.512497 C 7.7299044,9.6359571 6.3021739,7.0424837 6.6827239,4.0517596 6.92611,3.4164857 8.1220205,2.8409492 8.3664075,2.6047083 c 0.05768,-0.055508 0.09027,-0.1321134 0.09026,-0.2121663 z"
       style="display:inline;opacity:0.994152;fill:#000000;fill-opacity:1;fill-rule:nonzero;stroke:none;stroke-width:19.7708;stroke-linecap:butt;stroke-linejoin:round;stroke-miterlimit:4;stroke-opacity:1"
       sodipodi:nodetypes="ccccccsccccccccssssscsccscssssscccccccccccscssccccsssccc" />
  </g>
</svg>
