<?xml version="1.0" encoding="UTF-8" standalone="no"?>
<svg
   width="11.994205"
   height="17.52"
   version="1.1"
   id="svg1"
   sodipodi:docname="US11N41VARA.svg"
   inkscape:version="1.3.2 (091e20e, 2023-11-25, custom)"
   xmlns:inkscape="http://www.inkscape.org/namespaces/inkscape"
   xmlns:sodipodi="http://sodipodi.sourceforge.net/DTD/sodipodi-0.dtd"
   xmlns="http://www.w3.org/2000/svg"
   xmlns:svg="http://www.w3.org/2000/svg">
  <defs
     id="defs1" />
  <sodipodi:namedview
     id="namedview1"
     pagecolor="#ffffff"
     bordercolor="#000000"
     borderopacity="0.25"
     inkscape:showpageshadow="2"
     inkscape:pageopacity="0.0"
     inkscape:pagecheckerboard="0"
     inkscape:deskcolor="#d1d1d1"
     inkscape:zoom="7.5775853"
     inkscape:cx="6.1365195"
     inkscape:cy="12.470991"
     inkscape:window-width="1920"
     inkscape:window-height="986"
     inkscape:window-x="-11"
     inkscape:window-y="-11"
     inkscape:window-maximized="1"
     inkscape:current-layer="svg1" />
  <path
     style="fill:#000000;stroke:none"
     d="M 5.965357,9.4263878 C 6.5964238,11.925293 7.558733,12.441259 8.5742365,12.418031 10.134073,12.382352 10.942631,9.621092 10.942631,9.621092 v 0 c 0,0 0.06659,2.477136 -0.313529,3.744593 -0.297961,0.993517 -0.759018,1.790005 -1.489264,2.351467 -0.724959,0.557397 -1.731622,0.901451 -3.143534,0.901451 -0.010294,0 -0.020609,-1.7e-5 -0.030947,-5.6e-5 -0.010337,3.9e-5 -0.020652,5.6e-5 -0.030946,5.6e-5 -1.411912,0 -2.418575,-0.344054 -3.143535,-0.901451 C 2.060631,15.15569 1.599574,14.359202 1.301613,13.365685 0.921496,12.098228 0.988084,9.621092 0.988084,9.621092 l 0.5365646,1.329747 c 0.011138,0.0276 0.4633105,1.472047 1.9484734,1.467192 0.7497052,-0.0025 1.9737305,-0.526157 2.492235,-2.9916432 z M 10.62578,8.583396 C 9.9033345,9.5733788 9.7547577,11.049163 8.5650165,11.542644 7.6247906,11.545214 6.9609493,10.104833 6.709989,8.9560948 L 6.670797,8.5641838 c -0.6108184,-0.6424002 -1.0129929,-0.3309999 -1.41088,0 L 5.220726,8.9560948 C 4.416879,10.967184 4.6619165,11.207044 3.4603122,11.645195 2.1992101,11.326355 1.5942515,8.6138413 1.4247957,8.5641838 1.0436829,7.916611 0.47782794,8.2676569 0.282644,8.5641838 -0.009913,11.147469 -0.230771,11.405389 0.439408,13.640022 0.774498,14.757339 1.336351,15.726115 2.2422,16.422592 3.141921,17.114359 4.376871,17.52 5.933506,17.52 c 0.010603,0 0.021219,-1.9e-5 0.031851,-5.7e-5 0.010632,3.8e-5 0.021249,5.7e-5 0.031851,5.7e-5 1.556636,0 2.791586,-0.405641 3.691307,-1.097408 0.905849,-0.696477 1.467703,-1.665253 1.802792,-2.78257 0.67018,-2.234633 0.5763,-2.492553 0.283743,-5.0758382 -0.259643,-0.529633 -0.84286,-0.4687521 -1.14927,0.019212 z"
     id="path1"
     sodipodi:nodetypes="csssssscssssssccccccccccssscssscc" />
</svg>
