<?xml version="1.0" encoding="UTF-8" standalone="no"?>
<!-- Created with Inkscape (http://www.inkscape.org/) -->

<svg
   width="1976"
   height="1800"
   id="svg2"
   sodipodi:version="0.32"
   inkscape:version="1.3.2 (091e20e, 2023-11-25, custom)"
   version="1.0"
   sodipodi:docname="US11G37VARA.svg"
   xmlns:inkscape="http://www.inkscape.org/namespaces/inkscape"
   xmlns:sodipodi="http://sodipodi.sourceforge.net/DTD/sodipodi-0.dtd"
   xmlns="http://www.w3.org/2000/svg"
   xmlns:svg="http://www.w3.org/2000/svg"
   xmlns:rdf="http://www.w3.org/1999/02/22-rdf-syntax-ns#"
   xmlns:cc="http://creativecommons.org/ns#"
   xmlns:dc="http://purl.org/dc/elements/1.1/">
  <defs
     id="defs4" />
  <sodipodi:namedview
     id="base"
     pagecolor="#ffffff"
     bordercolor="#666666"
     borderopacity="1.0"
     inkscape:pageopacity="0.0"
     inkscape:pageshadow="2"
     inkscape:zoom="0.40540789"
     inkscape:cx="1103.8266"
     inkscape:cy="1372.6916"
     inkscape:document-units="px"
     inkscape:current-layer="layer2"
     showguides="true"
     inkscape:guide-bbox="true"
     inkscape:window-width="1564"
     inkscape:window-height="974"
     inkscape:window-x="0"
     inkscape:window-y="0"
     inkscape:showpageshadow="2"
     inkscape:pagecheckerboard="0"
     inkscape:deskcolor="#d1d1d1"
     inkscape:window-maximized="0" />
  <metadata
     id="metadata7">
    <rdf:RDF>
      <cc:Work
         rdf:about="">
        <dc:format>image/svg+xml</dc:format>
        <dc:type
           rdf:resource="http://purl.org/dc/dcmitype/StillImage" />
        <dc:title>G37</dc:title>
        <dc:creator>
          <cc:Agent>
            <dc:title>Serge Rosmorduc</dc:title>
          </cc:Agent>
        </dc:creator>
        <dc:description>G37 sign from Karnak hypostyle hall</dc:description>
      </cc:Work>
    </rdf:RDF>
  </metadata>
  <g
     inkscape:groupmode="layer"
     id="layer2"
     inkscape:label="dessin">
    <path
       id="path1319"
       style="fill:#000000;fill-opacity:1;fill-rule:evenodd;stroke:none;stroke-width:60;stroke-linecap:butt;stroke-linejoin:miter;stroke-miterlimit:4;stroke-opacity:1"
       d="m 336.57031,972.67383 v 0.002 c -46.29308,2.09478 -91.35546,14.46851 -135.54297,27.54687 -54.90106,17.2187 -109.566159,36.9674 -159.894528,64.9219 -13.196742,8.2313 -28.327446,15.9561 -36.1874995,29.875 -4.33906277,10.2192 2.5102928,23.2693 13.5312495,25.3125 24.234935,5.6551 48.857945,-7.0605 73.0625,-0.2812 33.631518,7.5631 59.481938,33.0635 80.124998,59.25 32.16991,39.4995 53.37261,86.5981 82.99024,127.9512 22.21239,31.6225 49.79691,58.8048 78.44726,84.5488 93.53519,81.8678 210.53778,132.7553 331.0625,160.25 10.69727,11.7372 22.25681,22.6703 33.625,33.8125 -43.73953,46.6457 -87.47921,93.2917 -131.21875,139.9375 -65.83552,0.5935 -131.81717,-0.3854 -197.51953,3.8965 -15.67057,1.8687 -30.54498,13.5808 -32.35547,29.8535 -3.21549,21.3436 17.95932,41.5804 39.1875,37.8437 70.67972,-2.972 141.45876,-2.425 212.1875,-3.0234 104.7783,-0.4649 209.57868,-0.079 314.34375,-0.01 14.6115,-1.5464 25.11001,-13.697 30.83203,-26.3242 31.78378,-55.9388 64.1664,-111.5842 95.57421,-167.7071 3.679,-8.1872 2.8937,-17.8432 -0.6875,-25.9063 126.1758,-6.1823 252.0086,-17.6455 378.0606,-25.748 172.435,-22.7603 336.5611,-114.6714 502.5749,-166.0752 20.1161,-10.9042 71.431,-19.8684 65.3379,-40.7288 -27.221,-92.7841 -75.6486,-138.9769 -150.9903,-183.5193 -40.0831,-16.7297 -444.5795,222.372 -520.0593,260.4287 -115.6195,-66.9537 -244.9177,-119.4717 -368.27144,-173.4667 -97.97164,-40.2847 -203.85037,-56.4512 -303.10743,-92.6153 -58.97282,-34.4517 -104.82507,-86.4019 -160.83007,-125.125 -39.1549,-28.75922 -83.80849,-56.16313 -134.27735,-54.90032 z m 962.66599,525.58437 c -165.0877,11.4364 -330.70597,19.1615 -496.30271,7.4688 -129.06032,-12.4153 -258.07102,-48.3842 -366.73828,-120.8633 -38.69681,-26.116 -74.69137,-56.459 -105.39648,-91.7324 -30.71217,-36.2205 -52.5709,-79.1526 -77.79102,-119.252 -24.78565,-37.1036 -53.6087,-72.7883 -91.71875,-96.7969 54.8943,-19.6007 112.1876,-33.5893 170.52735,-36.7246 v -4e-4 l 0.99609,0.088 0.13281,0.012 c 44.06616,3.8384 80.74415,31.3124 115.4336,56.5039 31.98156,22.2775 59.79857,49.519 89.9414,74.1836 -22.95522,28.396 -44.40435,60.9297 -46.22265,98.5918 -2.60728,30.8942 4.70044,62.6094 22.41015,88.1582 27.18382,40.3932 71.65835,65.029 116.0625,82.5 80.54633,30.6448 166.90385,42.5761 252.54883,48.2461 110.42609,6.1069 265.13636,-7.4342 375.53516,-12.5753 0.5051,-0.8593 41.9116,-6.1412 40.2168,-5.1341 131.2643,-46.9569 393.4483,-231.0624 522.7926,-247.904 28.4517,16.5555 69.5423,59.1995 83.5833,91.1536 -1.8102,7.4393 -105.9967,44.801 -118.0432,50.2651 -289.1653,131.16 -369.5863,137.7778 -487.9675,133.8119 z M 291.53906,1046.7695 c -12.27997,0.066 -26.54823,5.308 -30.46875,18.0313 -3.25877,12.4346 8.52778,22.8825 19.46875,25.7812 13.44551,4.7209 30.8857,2.6551 39.28125,-9.9062 5.90218,-7.8021 6.60192,-21.4019 -2.92578,-26.7871 -6.83126,-6.2081 -16.45862,-7.3779 -25.35547,-7.1192 z m 286.03125,153.2813 0.83985,0.541 0.5664,0.3652 c 13.88952,9.2858 29.12051,16.2397 45.15625,21.125 108.27507,37.5087 223.68948,54.4531 327.57813,104.3282 66.36016,29.8853 132.42816,60.4257 198.48436,90.9843 -90.3069,4.5785 -180.91844,8.9617 -271.27538,3.2364 -72.27328,-5.4229 -145.03126,-15.5367 -213.53711,-39.6114 -31.6279,-10.8804 -58.27716,-32.0155 -86.84375,-48.5625 -16.81265,-10.7097 -28.8568,-29.3575 -28.53125,-49.6562 0.21643,-29.6801 14.0536,-57.0712 27.5625,-82.75 z m 199.40625,371.0312 c 1.11458,0.1145 2.22917,0.2292 3.34375,0.3438 55.21074,5.1783 110.72749,6.5828 166.15625,5.6562 2.00444,5.1548 10.77019,9.9756 7.60547,15.3868 l -76.82422,134.3945 c -72.20678,-0.6088 -144.41601,-0.9073 -216.625,-1.0938 37.78992,-40.5046 76.08903,-80.5695 113.5,-121.4062 7.0322,-9.4526 7.70894,-22.7094 2.84375,-33.2813 z"
       sodipodi:nodetypes="cccccccccccccccccccccccccccccccccccccccscccccccccccscccccccccccccccccccccccccc" />
  </g>
</svg>
