<?xml version="1.0" encoding="UTF-8" standalone="no"?>
<svg
   width="17.955151"
   height="4.08"
   version="1.1"
   id="svg1"
   sodipodi:docname="US11D35VARA.svg"
   inkscape:version="1.3.2 (091e20e, 2023-11-25, custom)"
   xmlns:inkscape="http://www.inkscape.org/namespaces/inkscape"
   xmlns:sodipodi="http://sodipodi.sourceforge.net/DTD/sodipodi-0.dtd"
   xmlns="http://www.w3.org/2000/svg"
   xmlns:svg="http://www.w3.org/2000/svg">
  <defs
     id="defs1" />
  <sodipodi:namedview
     id="namedview1"
     pagecolor="#ffffff"
     bordercolor="#000000"
     borderopacity="0.25"
     inkscape:showpageshadow="2"
     inkscape:pageopacity="0.0"
     inkscape:pagecheckerboard="0"
     inkscape:deskcolor="#d1d1d1"
     showgrid="false"
     showguides="true"
     inkscape:zoom="47.691402"
     inkscape:cx="8.0517657"
     inkscape:cy="1.9814892"
     inkscape:window-width="1743"
     inkscape:window-height="1020"
     inkscape:window-x="134"
     inkscape:window-y="6"
     inkscape:window-maximized="0"
     inkscape:current-layer="svg1" />
  <path
     style="fill:#000000;stroke:none"
     d="m 10.677949,2.9146397 c 0.911663,-0.011997 1.826495,0.1229287 3.184826,0.1531587 1.107965,0.044572 2.477605,0.1715277 3.424408,0.2338424 1.003772,0.066064 0.813862,0.8716326 0.03033,0.7825679 -1.766637,-0.1198126 -2.546921,-0.049957 -4.750266,-0.051079 -0.817481,-4.164e-4 -1.445463,0.080972 -1.889298,0.080972 C 9.9102323,3.8621926 9.50838,3.2805034 9.472392,2.5367787 9.4364073,1.7930514 9.26847,1.16957 8.96858,1.16957 8.6566927,1.16957 8.482756,1.7930514 8.44677,2.5367787 8.4107827,3.2805034 8.0209247,3.8561943 7.277196,4.0961063 6.8333607,4.108103 6.2050553,4.058922 5.387894,4.0241333 3.5659072,3.9465665 2.308022,4.0468408 0.49718623,4.1085875 -0.59258046,3.7774291 0.50070924,3.3270733 0.50070924,3.3270733 2.8764488,3.1878538 2.2976517,3.150009 4.092371,3.133678 5.303923,3.0106027 6.3655313,2.8966447 7.277196,2.8966447 7.3491707,2.8606587 7.4361393,2.7586967 7.538102,2.5907587 7.6400653,2.42282 7.7390297,1.7513563 7.834995,1.079603 7.9309597,0.40785033 8.3088213,0.04798267 8.96858,0 c 0.6477593,0.04798267 1.0196217,0.40785033 1.115587,1.079603 0.09596,0.6717533 0.197929,1.337219 0.305892,1.4931617 0.107958,0.155942 0.203921,0.2699003 0.28789,0.341875 z"
     id="path1"
     sodipodi:nodetypes="ccscsccsscscsccsscscc" />
</svg>
