<?xml version="1.0" encoding="UTF-8" standalone="no"?>
<svg
   width="9.289846"
   height="8.88"
   version="1.1"
   id="svg1"
   sodipodi:docname="US11W11VARB.svg"
   inkscape:version="1.3.2 (091e20e, 2023-11-25, custom)"
   xmlns:inkscape="http://www.inkscape.org/namespaces/inkscape"
   xmlns:sodipodi="http://sodipodi.sourceforge.net/DTD/sodipodi-0.dtd"
   xmlns="http://www.w3.org/2000/svg"
   xmlns:svg="http://www.w3.org/2000/svg">
  <defs
     id="defs1" />
  <sodipodi:namedview
     id="namedview1"
     pagecolor="#ffffff"
     bordercolor="#000000"
     borderopacity="0.25"
     inkscape:showpageshadow="2"
     inkscape:pageopacity="0.0"
     inkscape:pagecheckerboard="0"
     inkscape:deskcolor="#d1d1d1"
     inkscape:zoom="59.801485"
     inkscape:cx="3.0517637"
     inkscape:cy="4.1888592"
     inkscape:window-width="1920"
     inkscape:window-height="986"
     inkscape:window-x="-11"
     inkscape:window-y="-11"
     inkscape:window-maximized="1"
     inkscape:current-layer="svg1"
     showguides="true">
    <sodipodi:guide
       position="11.320789,1.3551034"
       orientation="0,-1"
       id="guide1"
       inkscape:locked="false" />
  </sodipodi:namedview>
  <path
     style="fill:#000000;stroke:none"
     d="m 4.644923,8.001759 c 1.8345493,0 3.0640883,-0.3512967 3.688617,-1.05389 C 7.8261107,5.035253 7.5203523,3.0055383 7.416265,0.858725 H 1.873582 C 1.7694947,3.0055383 1.4637367,5.035253 0.956308,6.947869 1.5808353,7.6504623 2.8103737,8.001759 4.644923,8.001759 Z M 8.587252,0 c 0.3122647,0 0.468397,0.143121 0.468397,0.429363 0,0.28624133 -0.1561323,0.429362 -0.468397,0.429362 0,0 -0.4263298,6.3697e-4 -0.4181089,-0.004067 C 8.2732311,2.7542623 8.67833,5.1068133 9.289846,7.474814 8.1448793,8.4116047 6.5965717,8.88 4.644923,8.88 2.693275,8.88 1.1449673,8.4116047 0,7.474814 0.61151667,5.1068133 1.0107035,2.7601744 1.1147908,0.86056978 L 0.702594,0.858725 C 0.39033,0.858725 0.234198,0.71560433 0.234198,0.429363 0.234198,0.143121 0.39033,0 0.702594,0 Z"
     id="path1"
     sodipodi:nodetypes="sccccssscccscccsss" />
</svg>
