<?xml version="1.0" encoding="UTF-8" standalone="no"?>
<svg
   width="19.91"
   height="12.72"
   version="1.1"
   id="svg1"
   sodipodi:docname="US11T32VARA.svg"
   inkscape:version="1.3.2 (091e20e, 2023-11-25, custom)"
   xmlns:inkscape="http://www.inkscape.org/namespaces/inkscape"
   xmlns:sodipodi="http://sodipodi.sourceforge.net/DTD/sodipodi-0.dtd"
   xmlns="http://www.w3.org/2000/svg"
   xmlns:svg="http://www.w3.org/2000/svg">
  <defs
     id="defs1" />
  <sodipodi:namedview
     id="namedview1"
     pagecolor="#ffffff"
     bordercolor="#000000"
     borderopacity="0.25"
     inkscape:showpageshadow="2"
     inkscape:pageopacity="0.0"
     inkscape:pagecheckerboard="0"
     inkscape:deskcolor="#d1d1d1"
     inkscape:zoom="29.52044"
     inkscape:cx="7.9267112"
     inkscape:cy="4.9965381"
     inkscape:window-width="1898"
     inkscape:window-height="964"
     inkscape:window-x="44"
     inkscape:window-y="42"
     inkscape:window-maximized="0"
     inkscape:current-layer="svg1" />
  <path
     id="path1"
     style="fill:#000000;stroke:none;stroke-width:0.982472"
     d="m 12.203533,6.7316086 c 1.779415,-0.1525781 3.310792,-0.9322759 3.973843,-1.7424361 1.077306,1.8545857 2.122213,1.8473912 2.855814,1.6719294 0.04703,-0.011247 0.09404,-0.022495 0.129501,-0.041238 0.226442,-0.095213 0.449982,-0.2923613 0.623592,-0.5801982 0.478763,-1.5598906 -0.317821,-2.3152724 -3.297221,-3.1934336 l -16.49522258,0.08752 C -0.04015597,3.2709688 0.12414154,3.459875 0.12414154,3.459875 1.0482932,4.189053 3.6310002,5.8264875 5.6883754,6.5498181 6.574665,6.7483578 7.5295457,6.9041319 8.2609984,6.9857596 L 8.1430645,7.1485001 4.9523428,10.764142 c -0.6409611,0.348234 -1.121758,0.636913 -1.4123352,0.846113 -0.2805495,0.199227 -0.6909612,0.348098 -1.2612344,0.446529 -0.720135,0.04802 -1.1004899,0.17697 -1.100987,0.356969 l -7.18e-4,0.259999 c -0.010141,0.04997 0.2498039,0.0707 0.7598057,0.07208 0.2599999,7.38e-4 0.5700255,-0.0084 0.9500514,-0.01738 0.4002737,-0.0989 0.7304102,-0.14799 1.0004093,-0.147246 0.149999,4.25e-4 0.2699728,0.01074 0.3798892,0.04104 0.3097819,0.08084 0.559709,0.111475 0.7596942,0.112094 0.1999993,5.68e-4 0.3601636,-0.05901 0.4804661,-0.168677 0.1202745,-0.09967 0.191128,-0.409475 0.2526151,-0.949308 4.159e-4,-0.14999 0.5420886,-0.758502 1.5748659,-1.7656601 C 8.4135996,9.0611168 9.1067127,8.2385756 9.4287497,7.6183151 9.8373187,7.0068772 9.8689052,7.1391007 9.8689052,7.1391007 c 0,0 0.2529998,0.1592588 0.7315388,0.6905785 0.946829,1.1526115 1.594597,1.9643987 1.933245,2.4553328 0.348677,0.480962 0.387768,0.811071 0.137384,0.950381 -0.240413,0.149339 -0.48088,0.318679 -0.731567,0.567988 -0.220606,0.219394 -0.460935,0.338733 -0.710933,0.338045 -0.03,-1.32e-4 -0.05001,-7.7e-5 -0.06996,-0.01029 -0.550244,0.08848 -0.850629,0.227659 -0.851152,0.417658 l -5.68e-4,0.200001 1.939992,0.0053 c 0.360521,-0.189005 0.680795,-0.288125 0.960795,-0.287354 0.129997,3.69e-4 0.249946,0.02068 0.35981,0.07097 0.349611,0.140975 0.59939,0.221661 0.78939,0.222175 0.29011,-0.0392 0.42044,-0.158843 0.420991,-0.358842 6.25e-4,-0.21997 -0.108824,-0.430273 -0.30805,-0.710823 C 14.161182,11.1995 13.793662,10.298485 13.327106,9.0471959 13.103685,8.455017 11.907934,7.3186386 11.540555,6.8834686 11.350051,6.8258426 12.012952,6.7708269 12.203533,6.7316086 Z M 16.29734,3.523215 c 2.014258,0.7703226 3.059793,1.4999072 2.687247,2.0508492 C 18.720271,5.9712069 18.211594,5.8543239 18.211594,5.8543239 17.132331,5.3516873 16.80571,4.1237157 16.29607,4.091427 16.00648,4.0769809 15.739812,4.2872389 15.512495,4.4740664 14.048601,5.5651867 12.203743,5.9856829 10.445246,5.9947706 8.9679497,6.1091481 7.3863485,5.9897524 5.5334539,5.4989894 3.7742005,4.7589516 3.1364896,4.3607938 1.6633988,3.5739288"
     sodipodi:nodetypes="ccsccccsccccccsccccccccccccccscccccccccccccccsccccc" />
</svg>
