<?xml version="1.0" encoding="UTF-8" standalone="no"?>
<svg
   width="18.152571"
   height="19.976999"
   version="1.1"
   id="svg1"
   sodipodi:docname="US11P5VARA.svg"
   inkscape:version="1.3.2 (091e20e, 2023-11-25, custom)"
   xmlns:inkscape="http://www.inkscape.org/namespaces/inkscape"
   xmlns:sodipodi="http://sodipodi.sourceforge.net/DTD/sodipodi-0.dtd"
   xmlns="http://www.w3.org/2000/svg"
   xmlns:svg="http://www.w3.org/2000/svg">
  <defs
     id="defs1" />
  <sodipodi:namedview
     id="namedview1"
     pagecolor="#ffffff"
     bordercolor="#000000"
     borderopacity="0.25"
     inkscape:showpageshadow="2"
     inkscape:pageopacity="0.0"
     inkscape:pagecheckerboard="0"
     inkscape:deskcolor="#d1d1d1"
     inkscape:zoom="29.539126"
     inkscape:cx="9.0896392"
     inkscape:cy="10.105241"
     inkscape:window-width="1920"
     inkscape:window-height="986"
     inkscape:window-x="-11"
     inkscape:window-y="-11"
     inkscape:window-maximized="1"
     inkscape:current-layer="svg1"
     showguides="true" />
  <path
     style="fill:#000000;stroke:none"
     d="M 9.4523196,13.137419 10.62149,10.433421 c -0.423536,0.0099 -1.2139072,0.01697 -1.2139072,0.01697 z M 8.749193,10.449689 7.619471,10.433421 8.8118722,13.153512 Z M 8.8069196,1.878736 7.6445633,3.579097 h 1.1287034 z m 0.5020196,0.00238 0.050808,1.6979828 H 10.509635 Z M 9.0130395,0.6530638 c 0,0 1.5971115,1.8653148 2.2254095,2.9260332 1.608018,0 2.81888,0.023137 4.207098,0.069411 1.862525,0.1272533 2.764866,0.335486 2.707024,0.624698 -0.0347,0.277644 -0.416465,0.352839 -1.145279,0.225585 -0.300781,-0.046273 -0.566857,-0.06941 -0.798226,-0.06941 -0.754893,0.9310851 -0.880991,1.6080183 -0.880991,2.533497 0,0.925478 0.102152,1.5363813 0.880991,2.550849 l 0.798226,-0.104116 c 0.728814,-0.1272533 1.110574,-0.046274 1.145279,0.242938 0.05784,0.277644 -0.844499,0.480092 -2.707024,0.607345 -1.388218,0.04627 -2.707025,0.08676 -3.95642,0.121469 l -1.26675,3.626718 c -0.335486,0.266075 -0.5263663,0.578424 -0.572641,0.937047 v 5.032289 H 8.608576 V 14.945128 C 8.562302,14.586505 8.3714217,14.274156 8.035935,14.008081 L 6.682424,10.398716 C 5.4214593,10.352442 4.0968683,10.306168 2.708651,10.259894 0.83455767,10.132641 -0.06778367,9.930193 0.001627,9.652549 0.03633233,9.363337 0.418092,9.2823577 1.146906,9.409611 1.528666,9.4674537 1.8236623,9.4211797 2.031895,9.270789 2.4367917,8.5535437 2.63924,7.78424 2.63924,6.962878 2.63924,6.141516 2.4367917,5.3664277 2.031895,4.637613 1.8236623,4.487223 1.528666,4.440949 1.146906,4.498791 0.418092,4.626045 0.03633233,4.55085 0.001627,4.273206 -0.06778367,3.983994 0.83455767,3.7757613 2.708651,3.648508 4.0968683,3.602234 5.3019466,3.579097 6.8983973,3.579097 M 9.077099,4.186443 C 6.2196843,4.244285 4.1489263,4.31948 2.864825,4.412028 c 0.3701913,0.775088 0.555287,1.6253713 0.555287,2.55085 0,0.91391 -0.1850957,1.758409 -0.555287,2.533497 C 4.1489263,9.600491 6.2196843,9.675686 9.077099,9.72196 11.934513,9.675686 13.999486,9.600491 15.272019,9.496375 14.41817,8.3654213 14.52985,7.78424 14.52985,6.962878 c 0,-0.821362 0.127702,-1.6477074 0.742169,-2.55085 C 13.999486,4.31948 11.934513,4.244285 9.077099,4.186443 Z"
     id="path1"
     sodipodi:nodetypes="ccccccccccccccccccccccsccccccccccccccccscccccccscccscc" />
</svg>
