<?xml version="1.0" encoding="UTF-8" standalone="no"?>
<svg
   width="8pt"
   height="15.38pt"
   id="svg1333"
   sodipodi:version="0.32"
   inkscape:version="1.3.2 (091e20e, 2023-11-25, custom)"
   sodipodi:docname="US11M16VARA.svg"
   version="1.0"
   xmlns:inkscape="http://www.inkscape.org/namespaces/inkscape"
   xmlns:sodipodi="http://sodipodi.sourceforge.net/DTD/sodipodi-0.dtd"
   xmlns="http://www.w3.org/2000/svg"
   xmlns:svg="http://www.w3.org/2000/svg"
   xmlns:rdf="http://www.w3.org/1999/02/22-rdf-syntax-ns#"
   xmlns:cc="http://creativecommons.org/ns#"
   xmlns:dc="http://purl.org/dc/elements/1.1/">
  <metadata
     id="metadata1340">
    <rdf:RDF>
      <cc:Work
         rdf:about="">
        <dc:format>image/svg+xml</dc:format>
        <dc:type
           rdf:resource="http://purl.org/dc/dcmitype/StillImage" />
      </cc:Work>
    </rdf:RDF>
  </metadata>
  <defs
     id="defs1338" />
  <sodipodi:namedview
     inkscape:window-height="974"
     inkscape:window-width="1867"
     inkscape:pageshadow="2"
     inkscape:pageopacity="0.0"
     borderopacity="1.0"
     bordercolor="#666666"
     pagecolor="#ffffff"
     id="base"
     inkscape:zoom="21.070203"
     inkscape:cx="3.0374648"
     inkscape:cy="5.7664371"
     inkscape:window-x="0"
     inkscape:window-y="0"
     inkscape:current-layer="svg1333"
     showguides="true"
     inkscape:guide-bbox="true"
     showgrid="true"
     inkscape:showpageshadow="2"
     inkscape:pagecheckerboard="0"
     inkscape:deskcolor="#d1d1d1"
     inkscape:document-units="pt"
     inkscape:window-maximized="0">
    <inkscape:grid
       id="grid1"
       units="pt"
       originx="0"
       originy="0"
       spacingx="1.3333333"
       spacingy="1.3333333"
       empcolor="#0099e5"
       empopacity="0.30196078"
       color="#0099e5"
       opacity="0.14901961"
       empspacing="5"
       dotted="false"
       gridanglex="30"
       gridanglez="30"
       visible="true" />
  </sodipodi:namedview>
  <path
     style="fill:#000000;stroke:none"
     d="M 4.7088248,6.3004839 C 4.1691502,5.3472941 3.259559,5.0610382 3.259559,5.0610382 3.2864216,5.0450055 2.4748768,4.7914063 2.6960313,5.3268913 c 0,0 1.3301943,1.5619435 2.0236824,2.7604215 0.00696,1.27638 -0.2856448,10.6568642 -0.2515063,11.8307002 -0.029283,0.719977 1.570009,0.718377 1.5726316,0.01251 C 6.0321402,18.773937 5.6139855,9.2217898 5.7656402,8.0999328 6.1852821,7.1957648 7.8023352,5.3329279 7.8124795,5.3023755 8.1068321,4.8721782 7.461002,4.9875182 7.4554185,4.9771991 c 0,0 -1.1594319,0.3794888 -1.6859348,1.3531855 C 5.7729337,6.3507358 5.6648555,4.58838 5.6648555,4.58838 5.1032856,3.5040983 4.6125728,5.2016919 4.7088248,6.3004839 Z"
     id="path1335"
     sodipodi:nodetypes="cccccccccccc" />
</svg>
